%FSLAX45Y45*%
G04 Gerber Fmt 4.5, Leading zero omitted, Abs format (unit mm)*
G04 Created by KiCad (PCBNEW (5.1.5)-3) date 2022-06-14 21:30:14*
%MOMM*%
%LPD*%
G04 APERTURE LIST*
%TA.AperFunction,Profile*%
%ADD10C,0.050000*%
%TD*%
%ADD11C,0.200000*%
%ADD12C,0.300000*%
G04 APERTURE END LIST*
D10*
X19723100Y-13426200D02*
X19050000Y-6432550D01*
X14058900Y-13426200D02*
X14058900Y-6426200D01*
X19723100Y-13426200D02*
X14058900Y-13426200D01*
X14058900Y-6426200D02*
X19050000Y-6432550D01*
D11*
D12*
X14342828Y-13894414D02*
X14342828Y-13594414D01*
X14414257Y-13594414D01*
X14457114Y-13608700D01*
X14485686Y-13637271D01*
X14499971Y-13665843D01*
X14514257Y-13722986D01*
X14514257Y-13765843D01*
X14499971Y-13822986D01*
X14485686Y-13851557D01*
X14457114Y-13880129D01*
X14414257Y-13894414D01*
X14342828Y-13894414D01*
X14642828Y-13894414D02*
X14642828Y-13694414D01*
X14642828Y-13751557D02*
X14657114Y-13722986D01*
X14671400Y-13708700D01*
X14699971Y-13694414D01*
X14728543Y-13694414D01*
X14828543Y-13894414D02*
X14828543Y-13694414D01*
X14828543Y-13594414D02*
X14814257Y-13608700D01*
X14828543Y-13622986D01*
X14842828Y-13608700D01*
X14828543Y-13594414D01*
X14828543Y-13622986D01*
X15014257Y-13894414D02*
X14985686Y-13880129D01*
X14971400Y-13851557D01*
X14971400Y-13594414D01*
X15171400Y-13894414D02*
X15142828Y-13880129D01*
X15128543Y-13851557D01*
X15128543Y-13594414D01*
X15514257Y-13894414D02*
X15514257Y-13594414D01*
X15614257Y-13808700D01*
X15714257Y-13594414D01*
X15714257Y-13894414D01*
X15985686Y-13894414D02*
X15985686Y-13737271D01*
X15971400Y-13708700D01*
X15942828Y-13694414D01*
X15885686Y-13694414D01*
X15857114Y-13708700D01*
X15985686Y-13880129D02*
X15957114Y-13894414D01*
X15885686Y-13894414D01*
X15857114Y-13880129D01*
X15842828Y-13851557D01*
X15842828Y-13822986D01*
X15857114Y-13794414D01*
X15885686Y-13780129D01*
X15957114Y-13780129D01*
X15985686Y-13765843D01*
X16128543Y-13694414D02*
X16128543Y-13994414D01*
X16128543Y-13708700D02*
X16157114Y-13694414D01*
X16214257Y-13694414D01*
X16242828Y-13708700D01*
X16257114Y-13722986D01*
X16271400Y-13751557D01*
X16271400Y-13837271D01*
X16257114Y-13865843D01*
X16242828Y-13880129D01*
X16214257Y-13894414D01*
X16157114Y-13894414D01*
X16128543Y-13880129D01*
X16399971Y-13865843D02*
X16414257Y-13880129D01*
X16399971Y-13894414D01*
X16385686Y-13880129D01*
X16399971Y-13865843D01*
X16399971Y-13894414D01*
X16399971Y-13708700D02*
X16414257Y-13722986D01*
X16399971Y-13737271D01*
X16385686Y-13722986D01*
X16399971Y-13708700D01*
X16399971Y-13737271D01*
M02*
