G04 #@! TF.GenerationSoftware,KiCad,Pcbnew,(5.1.5)-3*
G04 #@! TF.CreationDate,2022-06-14T21:30:09+02:00*
G04 #@! TF.ProjectId,PC128S_ExtROM,50433132-3853-45f4-9578-74524f4d2e6b,rev?*
G04 #@! TF.SameCoordinates,Original*
G04 #@! TF.FileFunction,Copper,L2,Bot*
G04 #@! TF.FilePolarity,Positive*
%FSLAX46Y46*%
G04 Gerber Fmt 4.6, Leading zero omitted, Abs format (unit mm)*
G04 Created by KiCad (PCBNEW (5.1.5)-3) date 2022-06-14 21:30:09*
%MOMM*%
%LPD*%
G04 APERTURE LIST*
%ADD10O,1.700000X1.700000*%
%ADD11R,1.700000X1.700000*%
%ADD12C,1.600000*%
%ADD13O,1.600000X1.600000*%
%ADD14R,1.600000X1.600000*%
%ADD15C,0.250000*%
G04 APERTURE END LIST*
D10*
X149000000Y-128634500D03*
X149000000Y-126094500D03*
X149000000Y-123554500D03*
X149000000Y-121014500D03*
X149000000Y-118474500D03*
X149000000Y-115934500D03*
X149000000Y-113394500D03*
X149000000Y-110854500D03*
X149000000Y-108314500D03*
X149000000Y-105774500D03*
X149000000Y-103234500D03*
X149000000Y-100694500D03*
X149000000Y-98154500D03*
X149000000Y-95614500D03*
X149000000Y-93074500D03*
X149000000Y-90534500D03*
X149000000Y-87994500D03*
X149000000Y-85454500D03*
X149000000Y-82914500D03*
X149000000Y-80374500D03*
X149000000Y-77834500D03*
X149000000Y-75294500D03*
X149000000Y-72754500D03*
X149000000Y-70214500D03*
D11*
X149000000Y-67674500D03*
D10*
X144000000Y-128634500D03*
X144000000Y-126094500D03*
X144000000Y-123554500D03*
X144000000Y-121014500D03*
X144000000Y-118474500D03*
X144000000Y-115934500D03*
X144000000Y-113394500D03*
X144000000Y-110854500D03*
X144000000Y-108314500D03*
X144000000Y-105774500D03*
X144000000Y-103234500D03*
X144000000Y-100694500D03*
X144000000Y-98154500D03*
X144000000Y-95614500D03*
X144000000Y-93074500D03*
X144000000Y-90534500D03*
X144000000Y-87994500D03*
X144000000Y-85454500D03*
X144000000Y-82914500D03*
X144000000Y-80374500D03*
X144000000Y-77834500D03*
X144000000Y-75294500D03*
X144000000Y-72754500D03*
X144000000Y-70214500D03*
D11*
X144000000Y-67674500D03*
D12*
X179070000Y-79549000D03*
X179070000Y-74549000D03*
D10*
X185738000Y-96075500D03*
X183198000Y-96075500D03*
D11*
X180658000Y-96075500D03*
D10*
X185738000Y-102108000D03*
X183198000Y-102108000D03*
D11*
X180658000Y-102108000D03*
D13*
X174625000Y-80645000D03*
X156845000Y-73025000D03*
X172085000Y-80645000D03*
X159385000Y-73025000D03*
X169545000Y-80645000D03*
X161925000Y-73025000D03*
X167005000Y-80645000D03*
X164465000Y-73025000D03*
X164465000Y-80645000D03*
X167005000Y-73025000D03*
X161925000Y-80645000D03*
X169545000Y-73025000D03*
X159385000Y-80645000D03*
X172085000Y-73025000D03*
X156845000Y-80645000D03*
D14*
X174625000Y-73025000D03*
D10*
X188468000Y-127508000D03*
X185928000Y-127508000D03*
X188468000Y-124968000D03*
X185928000Y-124968000D03*
X188468000Y-122428000D03*
X185928000Y-122428000D03*
X188468000Y-119888000D03*
X185928000Y-119888000D03*
X188468000Y-117348000D03*
X185928000Y-117348000D03*
X188468000Y-114808000D03*
D11*
X185928000Y-114808000D03*
D12*
X171848000Y-86741000D03*
X176848000Y-86741000D03*
D13*
X170815000Y-96393000D03*
X155575000Y-129413000D03*
X170815000Y-98933000D03*
X155575000Y-126873000D03*
X170815000Y-101473000D03*
X155575000Y-124333000D03*
X170815000Y-104013000D03*
X155575000Y-121793000D03*
X170815000Y-106553000D03*
X155575000Y-119253000D03*
X170815000Y-109093000D03*
X155575000Y-116713000D03*
X170815000Y-111633000D03*
X155575000Y-114173000D03*
X170815000Y-114173000D03*
X155575000Y-111633000D03*
X170815000Y-116713000D03*
X155575000Y-109093000D03*
X170815000Y-119253000D03*
X155575000Y-106553000D03*
X170815000Y-121793000D03*
X155575000Y-104013000D03*
X170815000Y-124333000D03*
X155575000Y-101473000D03*
X170815000Y-126873000D03*
X155575000Y-98933000D03*
X170815000Y-129413000D03*
D14*
X155575000Y-96393000D03*
D15*
X155575000Y-129413000D02*
X153493800Y-129413000D01*
X153493800Y-129413000D02*
X150175300Y-126094500D01*
X178394100Y-85574000D02*
X178394100Y-87556300D01*
X178394100Y-87556300D02*
X185738000Y-94900200D01*
X179070000Y-79549000D02*
X178394100Y-80224900D01*
X178394100Y-80224900D02*
X178394100Y-85574000D01*
X171848000Y-86741000D02*
X173015000Y-85574000D01*
X173015000Y-85574000D02*
X178394100Y-85574000D01*
X185738000Y-96075500D02*
X185738000Y-94900200D01*
X149000000Y-126094500D02*
X150175300Y-126094500D01*
X172085000Y-73025000D02*
X170959700Y-73025000D01*
X156845000Y-73025000D02*
X157970300Y-73025000D01*
X157970300Y-73025000D02*
X157970300Y-73306300D01*
X157970300Y-73306300D02*
X158814300Y-74150300D01*
X158814300Y-74150300D02*
X170115800Y-74150300D01*
X170115800Y-74150300D02*
X170959700Y-73306400D01*
X170959700Y-73306400D02*
X170959700Y-73025000D01*
X174625000Y-80645000D02*
X174625000Y-78994000D01*
X174625000Y-78994000D02*
X179070000Y-74549000D01*
X173767700Y-96393000D02*
X179482700Y-102108000D01*
X170815000Y-96393000D02*
X173767700Y-96393000D01*
X176848000Y-86741000D02*
X173767700Y-89821300D01*
X173767700Y-89821300D02*
X173767700Y-96393000D01*
X180658000Y-102108000D02*
X179482700Y-102108000D01*
X149000000Y-70214500D02*
X144000000Y-70214500D01*
X170815000Y-98933000D02*
X169689700Y-98933000D01*
X169689700Y-98933000D02*
X149939300Y-79182600D01*
X149939300Y-79182600D02*
X143510900Y-79182600D01*
X143510900Y-79182600D02*
X142338700Y-80354800D01*
X142338700Y-80354800D02*
X142338700Y-106653200D01*
X142338700Y-106653200D02*
X144000000Y-108314500D01*
X144000000Y-82914500D02*
X145175300Y-82914500D01*
X170815000Y-101473000D02*
X169689700Y-101473000D01*
X169689700Y-101473000D02*
X149955900Y-81739200D01*
X149955900Y-81739200D02*
X146350600Y-81739200D01*
X146350600Y-81739200D02*
X145175300Y-82914500D01*
X155575000Y-124333000D02*
X153493800Y-124333000D01*
X153493800Y-124333000D02*
X150175300Y-121014500D01*
X149000000Y-121014500D02*
X150175300Y-121014500D01*
X144000000Y-80374500D02*
X144000000Y-81549800D01*
X170815000Y-104013000D02*
X169689700Y-104013000D01*
X169689700Y-104013000D02*
X149861200Y-84184500D01*
X149861200Y-84184500D02*
X143526000Y-84184500D01*
X143526000Y-84184500D02*
X142824700Y-83483200D01*
X142824700Y-83483200D02*
X142824700Y-82357700D01*
X142824700Y-82357700D02*
X143632600Y-81549800D01*
X143632600Y-81549800D02*
X144000000Y-81549800D01*
X149000000Y-80374500D02*
X150175300Y-80374500D01*
X170815000Y-106553000D02*
X170815000Y-105427700D01*
X170815000Y-105427700D02*
X171096300Y-105427700D01*
X171096300Y-105427700D02*
X171971700Y-104552300D01*
X171971700Y-104552300D02*
X171971700Y-100979200D01*
X171971700Y-100979200D02*
X171340100Y-100347600D01*
X171340100Y-100347600D02*
X170148400Y-100347600D01*
X170148400Y-100347600D02*
X150175300Y-80374500D01*
X149000000Y-113394500D02*
X149000000Y-114569800D01*
X155575000Y-119253000D02*
X154449700Y-119253000D01*
X154449700Y-119253000D02*
X149766500Y-114569800D01*
X149766500Y-114569800D02*
X149000000Y-114569800D01*
X149000000Y-110854500D02*
X149000000Y-112029800D01*
X155575000Y-116713000D02*
X154449700Y-116713000D01*
X154449700Y-116713000D02*
X149766500Y-112029800D01*
X149766500Y-112029800D02*
X149000000Y-112029800D01*
X149000000Y-108314500D02*
X149000000Y-109489800D01*
X155575000Y-114173000D02*
X154449700Y-114173000D01*
X154449700Y-114173000D02*
X149766500Y-109489800D01*
X149766500Y-109489800D02*
X149000000Y-109489800D01*
X149000000Y-105774500D02*
X149000000Y-106949800D01*
X155575000Y-111633000D02*
X154449700Y-111633000D01*
X154449700Y-111633000D02*
X149766500Y-106949800D01*
X149766500Y-106949800D02*
X149000000Y-106949800D01*
X155575000Y-109093000D02*
X155575000Y-107967700D01*
X149000000Y-103234500D02*
X150175300Y-103234500D01*
X155575000Y-107967700D02*
X154908500Y-107967700D01*
X154908500Y-107967700D02*
X150175300Y-103234500D01*
X149000000Y-100694500D02*
X149000000Y-101869800D01*
X155575000Y-106553000D02*
X154449700Y-106553000D01*
X154449700Y-106553000D02*
X149766500Y-101869800D01*
X149766500Y-101869800D02*
X149000000Y-101869800D01*
X149000000Y-98154500D02*
X149000000Y-99329800D01*
X155575000Y-104013000D02*
X154449700Y-104013000D01*
X154449700Y-104013000D02*
X149766500Y-99329800D01*
X149766500Y-99329800D02*
X149000000Y-99329800D01*
X149000000Y-95614500D02*
X149000000Y-96789800D01*
X155575000Y-101473000D02*
X154449700Y-101473000D01*
X154449700Y-101473000D02*
X149766500Y-96789800D01*
X149766500Y-96789800D02*
X149000000Y-96789800D01*
X144000000Y-85454500D02*
X144000000Y-86629800D01*
X155575000Y-98933000D02*
X155575000Y-97807700D01*
X155575000Y-97807700D02*
X154908000Y-97807700D01*
X154908000Y-97807700D02*
X154449700Y-97349400D01*
X154449700Y-97349400D02*
X154449700Y-96796200D01*
X154449700Y-96796200D02*
X149537500Y-91884000D01*
X149537500Y-91884000D02*
X148669500Y-91884000D01*
X148669500Y-91884000D02*
X145175300Y-88389800D01*
X145175300Y-88389800D02*
X145175300Y-87437700D01*
X145175300Y-87437700D02*
X144367400Y-86629800D01*
X144367400Y-86629800D02*
X144000000Y-86629800D01*
X144000000Y-77834500D02*
X145175300Y-77834500D01*
X169545000Y-73025000D02*
X168419700Y-73025000D01*
X168419700Y-73025000D02*
X168419700Y-72743700D01*
X168419700Y-72743700D02*
X167575600Y-71899600D01*
X167575600Y-71899600D02*
X156282400Y-71899600D01*
X156282400Y-71899600D02*
X151522800Y-76659200D01*
X151522800Y-76659200D02*
X146350600Y-76659200D01*
X146350600Y-76659200D02*
X145175300Y-77834500D01*
X144000000Y-118474500D02*
X144000000Y-119649800D01*
X185928000Y-124968000D02*
X184752700Y-124968000D01*
X184752700Y-124968000D02*
X181679100Y-128041600D01*
X181679100Y-128041600D02*
X155145000Y-128041600D01*
X155145000Y-128041600D02*
X151927900Y-124824500D01*
X151927900Y-124824500D02*
X148572200Y-124824500D01*
X148572200Y-124824500D02*
X145175300Y-121427600D01*
X145175300Y-121427600D02*
X145175300Y-120457700D01*
X145175300Y-120457700D02*
X144367400Y-119649800D01*
X144367400Y-119649800D02*
X144000000Y-119649800D01*
X184752700Y-122428000D02*
X181715300Y-125465400D01*
X181715300Y-125465400D02*
X153506600Y-125465400D01*
X153506600Y-125465400D02*
X150325700Y-122284500D01*
X150325700Y-122284500D02*
X148572200Y-122284500D01*
X148572200Y-122284500D02*
X145175300Y-118887600D01*
X145175300Y-118887600D02*
X145175300Y-117917700D01*
X145175300Y-117917700D02*
X144367400Y-117109800D01*
X144367400Y-117109800D02*
X144000000Y-117109800D01*
X144000000Y-115934500D02*
X144000000Y-117109800D01*
X185928000Y-122428000D02*
X184752700Y-122428000D01*
X188468000Y-117348000D02*
X187292700Y-117348000D01*
X187292700Y-117348000D02*
X187292700Y-117715400D01*
X187292700Y-117715400D02*
X186484800Y-118523300D01*
X186484800Y-118523300D02*
X175356800Y-118523300D01*
X175356800Y-118523300D02*
X173500600Y-120379500D01*
X173500600Y-120379500D02*
X153978600Y-120379500D01*
X153978600Y-120379500D02*
X150803600Y-117204500D01*
X150803600Y-117204500D02*
X148569300Y-117204500D01*
X148569300Y-117204500D02*
X146818500Y-115453700D01*
X146818500Y-115453700D02*
X146818500Y-108593000D01*
X146818500Y-108593000D02*
X144000000Y-105774500D01*
X144000000Y-103234500D02*
X145175300Y-103234500D01*
X188468000Y-114808000D02*
X187292700Y-114808000D01*
X187292700Y-114808000D02*
X187292700Y-114000000D01*
X187292700Y-114000000D02*
X186195700Y-112903000D01*
X186195700Y-112903000D02*
X159127900Y-112903000D01*
X159127900Y-112903000D02*
X156587900Y-110363000D01*
X156587900Y-110363000D02*
X155250900Y-110363000D01*
X155250900Y-110363000D02*
X149297700Y-104409800D01*
X149297700Y-104409800D02*
X146350600Y-104409800D01*
X146350600Y-104409800D02*
X145175300Y-103234500D01*
X144000000Y-96789800D02*
X143632600Y-96789800D01*
X143632600Y-96789800D02*
X142824700Y-97597700D01*
X142824700Y-97597700D02*
X142824700Y-106358800D01*
X142824700Y-106358800D02*
X143510400Y-107044500D01*
X143510400Y-107044500D02*
X144392300Y-107044500D01*
X144392300Y-107044500D02*
X145729700Y-108381900D01*
X145729700Y-108381900D02*
X145729700Y-116930300D01*
X145729700Y-116930300D02*
X148543900Y-119744500D01*
X148543900Y-119744500D02*
X151663300Y-119744500D01*
X151663300Y-119744500D02*
X154839800Y-122921000D01*
X154839800Y-122921000D02*
X181719700Y-122921000D01*
X181719700Y-122921000D02*
X184752700Y-119888000D01*
X144000000Y-95614500D02*
X144000000Y-96789800D01*
X185928000Y-119888000D02*
X184752700Y-119888000D01*
X144000000Y-72754500D02*
X145175300Y-72754500D01*
X174625000Y-73025000D02*
X173499700Y-73025000D01*
X173499700Y-73025000D02*
X173499700Y-72743700D01*
X173499700Y-72743700D02*
X172145900Y-71389900D01*
X172145900Y-71389900D02*
X146539900Y-71389900D01*
X146539900Y-71389900D02*
X145175300Y-72754500D01*
X184752700Y-127508000D02*
X181718100Y-130542600D01*
X181718100Y-130542600D02*
X153503800Y-130542600D01*
X153503800Y-130542600D02*
X150325700Y-127364500D01*
X150325700Y-127364500D02*
X148572200Y-127364500D01*
X148572200Y-127364500D02*
X145175300Y-123967600D01*
X145175300Y-123967600D02*
X145175300Y-122997700D01*
X145175300Y-122997700D02*
X144367400Y-122189800D01*
X144367400Y-122189800D02*
X144000000Y-122189800D01*
X144000000Y-121014500D02*
X144000000Y-122189800D01*
X185928000Y-127508000D02*
X184752700Y-127508000D01*
X149000000Y-93074500D02*
X149000000Y-94249800D01*
X188468000Y-127508000D02*
X188468000Y-126332700D01*
X188468000Y-126332700D02*
X188835300Y-126332700D01*
X188835300Y-126332700D02*
X189675500Y-125492500D01*
X189675500Y-125492500D02*
X189675500Y-114279000D01*
X189675500Y-114279000D02*
X185614800Y-110218300D01*
X185614800Y-110218300D02*
X167431700Y-110218300D01*
X167431700Y-110218300D02*
X157416400Y-100203000D01*
X157416400Y-100203000D02*
X155250800Y-100203000D01*
X155250800Y-100203000D02*
X149297600Y-94249800D01*
X149297600Y-94249800D02*
X149000000Y-94249800D01*
X155575000Y-96393000D02*
X156700300Y-96393000D01*
X183198000Y-102108000D02*
X182022700Y-102108000D01*
X182022700Y-102108000D02*
X182022700Y-102916000D01*
X182022700Y-102916000D02*
X177258100Y-107680600D01*
X177258100Y-107680600D02*
X167987900Y-107680600D01*
X167987900Y-107680600D02*
X156700300Y-96393000D01*
M02*
