M48
; DRILL file {KiCad (5.1.5)-3} date 14/06/2022 21:30:13
; FORMAT={-:-/ absolute / metric / decimal}
; #@! TF.CreationDate,2022-06-14T21:30:13+02:00
; #@! TF.GenerationSoftware,Kicad,Pcbnew,(5.1.5)-3
; #@! TF.FileFunction,Plated,1,2,PTH
FMAT,2
METRIC
T1C0.800
T2C1.000
%
G90
G05
T1
X156.845Y-73.025
X156.845Y-80.645
X159.385Y-73.025
X159.385Y-80.645
X161.925Y-73.025
X161.925Y-80.645
X164.465Y-73.025
X164.465Y-80.645
X167.005Y-73.025
X167.005Y-80.645
X169.545Y-73.025
X169.545Y-80.645
X172.085Y-73.025
X172.085Y-80.645
X174.625Y-73.025
X174.625Y-80.645
X155.575Y-96.393
X155.575Y-98.933
X155.575Y-101.473
X155.575Y-104.013
X155.575Y-106.553
X155.575Y-109.093
X155.575Y-111.633
X155.575Y-114.173
X155.575Y-116.713
X155.575Y-119.253
X155.575Y-121.793
X155.575Y-124.333
X155.575Y-126.873
X155.575Y-129.413
X170.815Y-96.393
X170.815Y-98.933
X170.815Y-101.473
X170.815Y-104.013
X170.815Y-106.553
X170.815Y-109.093
X170.815Y-111.633
X170.815Y-114.173
X170.815Y-116.713
X170.815Y-119.253
X170.815Y-121.793
X170.815Y-124.333
X170.815Y-126.873
X170.815Y-129.413
X179.07Y-74.549
X179.07Y-79.549
X171.848Y-86.741
X176.848Y-86.741
T2
X180.658Y-96.075
X183.198Y-96.075
X185.738Y-96.075
X144.0Y-67.674
X144.0Y-70.215
X144.0Y-72.754
X144.0Y-75.294
X144.0Y-77.834
X144.0Y-80.374
X144.0Y-82.914
X144.0Y-85.454
X144.0Y-87.995
X144.0Y-90.534
X144.0Y-93.075
X144.0Y-95.614
X144.0Y-98.154
X144.0Y-100.694
X144.0Y-103.234
X144.0Y-105.774
X144.0Y-108.314
X144.0Y-110.855
X144.0Y-113.394
X144.0Y-115.934
X144.0Y-118.474
X144.0Y-121.014
X144.0Y-123.554
X144.0Y-126.094
X144.0Y-128.635
X180.658Y-102.108
X183.198Y-102.108
X185.738Y-102.108
X149.0Y-67.674
X149.0Y-70.215
X149.0Y-72.754
X149.0Y-75.294
X149.0Y-77.834
X149.0Y-80.374
X149.0Y-82.914
X149.0Y-85.454
X149.0Y-87.995
X149.0Y-90.534
X149.0Y-93.075
X149.0Y-95.614
X149.0Y-98.154
X149.0Y-100.694
X149.0Y-103.234
X149.0Y-105.774
X149.0Y-108.314
X149.0Y-110.855
X149.0Y-113.394
X149.0Y-115.934
X149.0Y-118.474
X149.0Y-121.014
X149.0Y-123.554
X149.0Y-126.094
X149.0Y-128.635
X185.928Y-114.808
X185.928Y-117.348
X185.928Y-119.888
X185.928Y-122.428
X185.928Y-124.968
X185.928Y-127.508
X188.468Y-114.808
X188.468Y-117.348
X188.468Y-119.888
X188.468Y-122.428
X188.468Y-124.968
X188.468Y-127.508
T0
M30
