G04 #@! TF.GenerationSoftware,KiCad,Pcbnew,(5.1.5)-3*
G04 #@! TF.CreationDate,2022-06-14T21:30:09+02:00*
G04 #@! TF.ProjectId,PC128S_ExtROM,50433132-3853-45f4-9578-74524f4d2e6b,rev?*
G04 #@! TF.SameCoordinates,Original*
G04 #@! TF.FileFunction,Legend,Top*
G04 #@! TF.FilePolarity,Positive*
%FSLAX46Y46*%
G04 Gerber Fmt 4.6, Leading zero omitted, Abs format (unit mm)*
G04 Created by KiCad (PCBNEW (5.1.5)-3) date 2022-06-14 21:30:09*
%MOMM*%
%LPD*%
G04 APERTURE LIST*
%ADD10C,0.150000*%
%ADD11C,0.120000*%
G04 APERTURE END LIST*
D10*
X158258238Y-76223880D02*
X158924904Y-76223880D01*
X158496333Y-77223880D01*
X159734428Y-76557214D02*
X159734428Y-77223880D01*
X159496333Y-76176261D02*
X159258238Y-76890547D01*
X159877285Y-76890547D01*
X160401095Y-77223880D02*
X160305857Y-77176261D01*
X160258238Y-77081023D01*
X160258238Y-76223880D01*
X160734428Y-77176261D02*
X160829666Y-77223880D01*
X161020142Y-77223880D01*
X161115380Y-77176261D01*
X161163000Y-77081023D01*
X161163000Y-77033404D01*
X161115380Y-76938166D01*
X161020142Y-76890547D01*
X160877285Y-76890547D01*
X160782047Y-76842928D01*
X160734428Y-76747690D01*
X160734428Y-76700071D01*
X160782047Y-76604833D01*
X160877285Y-76557214D01*
X161020142Y-76557214D01*
X161115380Y-76604833D01*
X162115380Y-77223880D02*
X161543952Y-77223880D01*
X161829666Y-77223880D02*
X161829666Y-76223880D01*
X161734428Y-76366738D01*
X161639190Y-76461976D01*
X161543952Y-76509595D01*
X162448714Y-76223880D02*
X163067761Y-76223880D01*
X162734428Y-76604833D01*
X162877285Y-76604833D01*
X162972523Y-76652452D01*
X163020142Y-76700071D01*
X163067761Y-76795309D01*
X163067761Y-77033404D01*
X163020142Y-77128642D01*
X162972523Y-77176261D01*
X162877285Y-77223880D01*
X162591571Y-77223880D01*
X162496333Y-77176261D01*
X162448714Y-77128642D01*
X163543952Y-77223880D02*
X163734428Y-77223880D01*
X163829666Y-77176261D01*
X163877285Y-77128642D01*
X163972523Y-76985785D01*
X164020142Y-76795309D01*
X164020142Y-76414357D01*
X163972523Y-76319119D01*
X163924904Y-76271500D01*
X163829666Y-76223880D01*
X163639190Y-76223880D01*
X163543952Y-76271500D01*
X163496333Y-76319119D01*
X163448714Y-76414357D01*
X163448714Y-76652452D01*
X163496333Y-76747690D01*
X163543952Y-76795309D01*
X163639190Y-76842928D01*
X163829666Y-76842928D01*
X163924904Y-76795309D01*
X163972523Y-76747690D01*
X164020142Y-76652452D01*
X180363833Y-90582952D02*
X180363833Y-91059142D01*
X180078119Y-90487714D02*
X181078119Y-90821047D01*
X180078119Y-91154380D01*
X180363833Y-91440095D02*
X180363833Y-91916285D01*
X180078119Y-91344857D02*
X181078119Y-91678190D01*
X180078119Y-92011523D01*
X180078119Y-92868666D02*
X180078119Y-92297238D01*
X180078119Y-92582952D02*
X181078119Y-92582952D01*
X180935261Y-92487714D01*
X180840023Y-92392476D01*
X180792404Y-92297238D01*
X181078119Y-93773428D02*
X181078119Y-93297238D01*
X180601928Y-93249619D01*
X180649547Y-93297238D01*
X180697166Y-93392476D01*
X180697166Y-93630571D01*
X180649547Y-93725809D01*
X180601928Y-93773428D01*
X180506690Y-93821047D01*
X180268595Y-93821047D01*
X180173357Y-93773428D01*
X180125738Y-93725809D01*
X180078119Y-93630571D01*
X180078119Y-93392476D01*
X180125738Y-93297238D01*
X180173357Y-93249619D01*
X186364500Y-91749642D02*
X186412119Y-91654404D01*
X186412119Y-91511547D01*
X186364500Y-91368690D01*
X186269261Y-91273452D01*
X186174023Y-91225833D01*
X185983547Y-91178214D01*
X185840690Y-91178214D01*
X185650214Y-91225833D01*
X185554976Y-91273452D01*
X185459738Y-91368690D01*
X185412119Y-91511547D01*
X185412119Y-91606785D01*
X185459738Y-91749642D01*
X185507357Y-91797261D01*
X185840690Y-91797261D01*
X185840690Y-91606785D01*
X186078785Y-92225833D02*
X185412119Y-92225833D01*
X185983547Y-92225833D02*
X186031166Y-92273452D01*
X186078785Y-92368690D01*
X186078785Y-92511547D01*
X186031166Y-92606785D01*
X185935928Y-92654404D01*
X185412119Y-92654404D01*
X185412119Y-93559166D02*
X186412119Y-93559166D01*
X185459738Y-93559166D02*
X185412119Y-93463928D01*
X185412119Y-93273452D01*
X185459738Y-93178214D01*
X185507357Y-93130595D01*
X185602595Y-93082976D01*
X185888309Y-93082976D01*
X185983547Y-93130595D01*
X186031166Y-93178214D01*
X186078785Y-93273452D01*
X186078785Y-93463928D01*
X186031166Y-93559166D01*
X185888333Y-104267285D02*
X185888333Y-104743476D01*
X185602619Y-104172047D02*
X186602619Y-104505380D01*
X185602619Y-104838714D01*
X185602619Y-105695857D02*
X185602619Y-105124428D01*
X185602619Y-105410142D02*
X186602619Y-105410142D01*
X186459761Y-105314904D01*
X186364523Y-105219666D01*
X186316904Y-105124428D01*
X186602619Y-106600619D02*
X186602619Y-106124428D01*
X186126428Y-106076809D01*
X186174047Y-106124428D01*
X186221666Y-106219666D01*
X186221666Y-106457761D01*
X186174047Y-106553000D01*
X186126428Y-106600619D01*
X186031190Y-106648238D01*
X185793095Y-106648238D01*
X185697857Y-106600619D01*
X185650238Y-106553000D01*
X185602619Y-106457761D01*
X185602619Y-106219666D01*
X185650238Y-106124428D01*
X185697857Y-106076809D01*
X185650238Y-107029190D02*
X185602619Y-107124428D01*
X185602619Y-107314904D01*
X185650238Y-107410142D01*
X185745476Y-107457761D01*
X185793095Y-107457761D01*
X185888333Y-107410142D01*
X185935952Y-107314904D01*
X185935952Y-107172047D01*
X185983571Y-107076809D01*
X186078809Y-107029190D01*
X186126428Y-107029190D01*
X186221666Y-107076809D01*
X186269285Y-107172047D01*
X186269285Y-107314904D01*
X186221666Y-107410142D01*
X185650238Y-108267285D02*
X185602619Y-108172047D01*
X185602619Y-107981571D01*
X185650238Y-107886333D01*
X185745476Y-107838714D01*
X186126428Y-107838714D01*
X186221666Y-107886333D01*
X186269285Y-107981571D01*
X186269285Y-108172047D01*
X186221666Y-108267285D01*
X186126428Y-108314904D01*
X186031190Y-108314904D01*
X185935952Y-107838714D01*
X185602619Y-108886333D02*
X185650238Y-108791095D01*
X185745476Y-108743476D01*
X186602619Y-108743476D01*
X181205119Y-105330642D02*
X181205119Y-104854452D01*
X180728928Y-104806833D01*
X180776547Y-104854452D01*
X180824166Y-104949690D01*
X180824166Y-105187785D01*
X180776547Y-105283023D01*
X180728928Y-105330642D01*
X180633690Y-105378261D01*
X180395595Y-105378261D01*
X180300357Y-105330642D01*
X180252738Y-105283023D01*
X180205119Y-105187785D01*
X180205119Y-104949690D01*
X180252738Y-104854452D01*
X180300357Y-104806833D01*
X180871785Y-105711595D02*
X180205119Y-105949690D01*
X180871785Y-106187785D01*
X160901119Y-110640476D02*
X160853500Y-110592857D01*
X160805880Y-110497619D01*
X160805880Y-110259523D01*
X160853500Y-110164285D01*
X160901119Y-110116666D01*
X160996357Y-110069047D01*
X161091595Y-110069047D01*
X161234452Y-110116666D01*
X161805880Y-110688095D01*
X161805880Y-110069047D01*
X160805880Y-109735714D02*
X160805880Y-109069047D01*
X161805880Y-109497619D01*
X161710642Y-108116666D02*
X161758261Y-108164285D01*
X161805880Y-108307142D01*
X161805880Y-108402380D01*
X161758261Y-108545238D01*
X161663023Y-108640476D01*
X161567785Y-108688095D01*
X161377309Y-108735714D01*
X161234452Y-108735714D01*
X161043976Y-108688095D01*
X160948738Y-108640476D01*
X160853500Y-108545238D01*
X160805880Y-108402380D01*
X160805880Y-108307142D01*
X160853500Y-108164285D01*
X160901119Y-108116666D01*
X160805880Y-107211904D02*
X160805880Y-107688095D01*
X161282071Y-107735714D01*
X161234452Y-107688095D01*
X161186833Y-107592857D01*
X161186833Y-107354761D01*
X161234452Y-107259523D01*
X161282071Y-107211904D01*
X161377309Y-107164285D01*
X161615404Y-107164285D01*
X161710642Y-107211904D01*
X161758261Y-107259523D01*
X161805880Y-107354761D01*
X161805880Y-107592857D01*
X161758261Y-107688095D01*
X161710642Y-107735714D01*
X161805880Y-106211904D02*
X161805880Y-106783333D01*
X161805880Y-106497619D02*
X160805880Y-106497619D01*
X160948738Y-106592857D01*
X161043976Y-106688095D01*
X161091595Y-106783333D01*
X160901119Y-105830952D02*
X160853500Y-105783333D01*
X160805880Y-105688095D01*
X160805880Y-105450000D01*
X160853500Y-105354761D01*
X160901119Y-105307142D01*
X160996357Y-105259523D01*
X161091595Y-105259523D01*
X161234452Y-105307142D01*
X161805880Y-105878571D01*
X161805880Y-105259523D01*
X151656119Y-67825880D02*
X151656119Y-66825880D01*
X152037071Y-66825880D01*
X152132309Y-66873500D01*
X152179928Y-66921119D01*
X152227547Y-67016357D01*
X152227547Y-67159214D01*
X152179928Y-67254452D01*
X152132309Y-67302071D01*
X152037071Y-67349690D01*
X151656119Y-67349690D01*
X153227547Y-67730642D02*
X153179928Y-67778261D01*
X153037071Y-67825880D01*
X152941833Y-67825880D01*
X152798976Y-67778261D01*
X152703738Y-67683023D01*
X152656119Y-67587785D01*
X152608500Y-67397309D01*
X152608500Y-67254452D01*
X152656119Y-67063976D01*
X152703738Y-66968738D01*
X152798976Y-66873500D01*
X152941833Y-66825880D01*
X153037071Y-66825880D01*
X153179928Y-66873500D01*
X153227547Y-66921119D01*
X154179928Y-67825880D02*
X153608500Y-67825880D01*
X153894214Y-67825880D02*
X153894214Y-66825880D01*
X153798976Y-66968738D01*
X153703738Y-67063976D01*
X153608500Y-67111595D01*
X154560880Y-66921119D02*
X154608500Y-66873500D01*
X154703738Y-66825880D01*
X154941833Y-66825880D01*
X155037071Y-66873500D01*
X155084690Y-66921119D01*
X155132309Y-67016357D01*
X155132309Y-67111595D01*
X155084690Y-67254452D01*
X154513261Y-67825880D01*
X155132309Y-67825880D01*
X155703738Y-67254452D02*
X155608500Y-67206833D01*
X155560880Y-67159214D01*
X155513261Y-67063976D01*
X155513261Y-67016357D01*
X155560880Y-66921119D01*
X155608500Y-66873500D01*
X155703738Y-66825880D01*
X155894214Y-66825880D01*
X155989452Y-66873500D01*
X156037071Y-66921119D01*
X156084690Y-67016357D01*
X156084690Y-67063976D01*
X156037071Y-67159214D01*
X155989452Y-67206833D01*
X155894214Y-67254452D01*
X155703738Y-67254452D01*
X155608500Y-67302071D01*
X155560880Y-67349690D01*
X155513261Y-67444928D01*
X155513261Y-67635404D01*
X155560880Y-67730642D01*
X155608500Y-67778261D01*
X155703738Y-67825880D01*
X155894214Y-67825880D01*
X155989452Y-67778261D01*
X156037071Y-67730642D01*
X156084690Y-67635404D01*
X156084690Y-67444928D01*
X156037071Y-67349690D01*
X155989452Y-67302071D01*
X155894214Y-67254452D01*
X156465642Y-67778261D02*
X156608500Y-67825880D01*
X156846595Y-67825880D01*
X156941833Y-67778261D01*
X156989452Y-67730642D01*
X157037071Y-67635404D01*
X157037071Y-67540166D01*
X156989452Y-67444928D01*
X156941833Y-67397309D01*
X156846595Y-67349690D01*
X156656119Y-67302071D01*
X156560880Y-67254452D01*
X156513261Y-67206833D01*
X156465642Y-67111595D01*
X156465642Y-67016357D01*
X156513261Y-66921119D01*
X156560880Y-66873500D01*
X156656119Y-66825880D01*
X156894214Y-66825880D01*
X157037071Y-66873500D01*
X158227547Y-67302071D02*
X158560880Y-67302071D01*
X158703738Y-67825880D02*
X158227547Y-67825880D01*
X158227547Y-66825880D01*
X158703738Y-66825880D01*
X159037071Y-66825880D02*
X159703738Y-67825880D01*
X159703738Y-66825880D02*
X159037071Y-67825880D01*
X159941833Y-66825880D02*
X160513261Y-66825880D01*
X160227547Y-67825880D02*
X160227547Y-66825880D01*
X162179928Y-67825880D02*
X161846595Y-67349690D01*
X161608500Y-67825880D02*
X161608500Y-66825880D01*
X161989452Y-66825880D01*
X162084690Y-66873500D01*
X162132309Y-66921119D01*
X162179928Y-67016357D01*
X162179928Y-67159214D01*
X162132309Y-67254452D01*
X162084690Y-67302071D01*
X161989452Y-67349690D01*
X161608500Y-67349690D01*
X162798976Y-66825880D02*
X162989452Y-66825880D01*
X163084690Y-66873500D01*
X163179928Y-66968738D01*
X163227547Y-67159214D01*
X163227547Y-67492547D01*
X163179928Y-67683023D01*
X163084690Y-67778261D01*
X162989452Y-67825880D01*
X162798976Y-67825880D01*
X162703738Y-67778261D01*
X162608500Y-67683023D01*
X162560880Y-67492547D01*
X162560880Y-67159214D01*
X162608500Y-66968738D01*
X162703738Y-66873500D01*
X162798976Y-66825880D01*
X163656119Y-67825880D02*
X163656119Y-66825880D01*
X163989452Y-67540166D01*
X164322785Y-66825880D01*
X164322785Y-67825880D01*
X165560880Y-67825880D02*
X165560880Y-66825880D01*
X165560880Y-67206833D02*
X165656119Y-67159214D01*
X165846595Y-67159214D01*
X165941833Y-67206833D01*
X165989452Y-67254452D01*
X166037071Y-67349690D01*
X166037071Y-67635404D01*
X165989452Y-67730642D01*
X165941833Y-67778261D01*
X165846595Y-67825880D01*
X165656119Y-67825880D01*
X165560880Y-67778261D01*
X166370404Y-67159214D02*
X166608500Y-67825880D01*
X166846595Y-67159214D02*
X166608500Y-67825880D01*
X166513261Y-68063976D01*
X166465642Y-68111595D01*
X166370404Y-68159214D01*
X167941833Y-67540166D02*
X168418023Y-67540166D01*
X167846595Y-67825880D02*
X168179928Y-66825880D01*
X168513261Y-67825880D01*
X168846595Y-67730642D02*
X168894214Y-67778261D01*
X168846595Y-67825880D01*
X168798976Y-67778261D01*
X168846595Y-67730642D01*
X168846595Y-67825880D01*
X170275166Y-66825880D02*
X170465642Y-66825880D01*
X170560880Y-66873500D01*
X170656119Y-66968738D01*
X170703738Y-67159214D01*
X170703738Y-67492547D01*
X170656119Y-67683023D01*
X170560880Y-67778261D01*
X170465642Y-67825880D01*
X170275166Y-67825880D01*
X170179928Y-67778261D01*
X170084690Y-67683023D01*
X170037071Y-67492547D01*
X170037071Y-67159214D01*
X170084690Y-66968738D01*
X170179928Y-66873500D01*
X170275166Y-66825880D01*
X170989452Y-66825880D02*
X171560880Y-66825880D01*
X171275166Y-67825880D02*
X171275166Y-66825880D01*
X171751357Y-66825880D02*
X172322785Y-66825880D01*
X172037071Y-67825880D02*
X172037071Y-66825880D01*
X172608500Y-67540166D02*
X173084690Y-67540166D01*
X172513261Y-67825880D02*
X172846595Y-66825880D01*
X173179928Y-67825880D01*
X173370404Y-66825880D02*
X173703738Y-67825880D01*
X174037071Y-66825880D01*
X174370404Y-67825880D02*
X174370404Y-66825880D01*
X174798976Y-67540166D02*
X175275166Y-67540166D01*
X174703738Y-67825880D02*
X175037071Y-66825880D01*
X175370404Y-67825880D01*
X175703738Y-67825880D02*
X175703738Y-66825880D01*
X176275166Y-67825880D01*
X176275166Y-66825880D01*
X176751357Y-67825880D02*
X176751357Y-66825880D01*
X178275166Y-68206833D02*
X178227547Y-68159214D01*
X178132309Y-68016357D01*
X178084690Y-67921119D01*
X178037071Y-67778261D01*
X177989452Y-67540166D01*
X177989452Y-67349690D01*
X178037071Y-67111595D01*
X178084690Y-66968738D01*
X178132309Y-66873500D01*
X178227547Y-66730642D01*
X178275166Y-66683023D01*
X179227547Y-67730642D02*
X179179928Y-67778261D01*
X179037071Y-67825880D01*
X178941833Y-67825880D01*
X178798976Y-67778261D01*
X178703738Y-67683023D01*
X178656119Y-67587785D01*
X178608500Y-67397309D01*
X178608500Y-67254452D01*
X178656119Y-67063976D01*
X178703738Y-66968738D01*
X178798976Y-66873500D01*
X178941833Y-66825880D01*
X179037071Y-66825880D01*
X179179928Y-66873500D01*
X179227547Y-66921119D01*
X179560880Y-68206833D02*
X179608500Y-68159214D01*
X179703738Y-68016357D01*
X179751357Y-67921119D01*
X179798976Y-67778261D01*
X179846595Y-67540166D01*
X179846595Y-67349690D01*
X179798976Y-67111595D01*
X179751357Y-66968738D01*
X179703738Y-66873500D01*
X179608500Y-66730642D01*
X179560880Y-66683023D01*
X181037071Y-66921119D02*
X181084690Y-66873500D01*
X181179928Y-66825880D01*
X181418023Y-66825880D01*
X181513261Y-66873500D01*
X181560880Y-66921119D01*
X181608500Y-67016357D01*
X181608500Y-67111595D01*
X181560880Y-67254452D01*
X180989452Y-67825880D01*
X181608500Y-67825880D01*
X182227547Y-66825880D02*
X182322785Y-66825880D01*
X182418023Y-66873500D01*
X182465642Y-66921119D01*
X182513261Y-67016357D01*
X182560880Y-67206833D01*
X182560880Y-67444928D01*
X182513261Y-67635404D01*
X182465642Y-67730642D01*
X182418023Y-67778261D01*
X182322785Y-67825880D01*
X182227547Y-67825880D01*
X182132309Y-67778261D01*
X182084690Y-67730642D01*
X182037071Y-67635404D01*
X181989452Y-67444928D01*
X181989452Y-67206833D01*
X182037071Y-67016357D01*
X182084690Y-66921119D01*
X182132309Y-66873500D01*
X182227547Y-66825880D01*
X182941833Y-66921119D02*
X182989452Y-66873500D01*
X183084690Y-66825880D01*
X183322785Y-66825880D01*
X183418023Y-66873500D01*
X183465642Y-66921119D01*
X183513261Y-67016357D01*
X183513261Y-67111595D01*
X183465642Y-67254452D01*
X182894214Y-67825880D01*
X183513261Y-67825880D01*
X183894214Y-66921119D02*
X183941833Y-66873500D01*
X184037071Y-66825880D01*
X184275166Y-66825880D01*
X184370404Y-66873500D01*
X184418023Y-66921119D01*
X184465642Y-67016357D01*
X184465642Y-67111595D01*
X184418023Y-67254452D01*
X183846595Y-67825880D01*
X184465642Y-67825880D01*
X184894214Y-67444928D02*
X185656119Y-67444928D01*
X186322785Y-66825880D02*
X186418023Y-66825880D01*
X186513261Y-66873500D01*
X186560880Y-66921119D01*
X186608500Y-67016357D01*
X186656119Y-67206833D01*
X186656119Y-67444928D01*
X186608500Y-67635404D01*
X186560880Y-67730642D01*
X186513261Y-67778261D01*
X186418023Y-67825880D01*
X186322785Y-67825880D01*
X186227547Y-67778261D01*
X186179928Y-67730642D01*
X186132309Y-67635404D01*
X186084690Y-67444928D01*
X186084690Y-67206833D01*
X186132309Y-67016357D01*
X186179928Y-66921119D01*
X186227547Y-66873500D01*
X186322785Y-66825880D01*
X187513261Y-66825880D02*
X187322785Y-66825880D01*
X187227547Y-66873500D01*
X187179928Y-66921119D01*
X187084690Y-67063976D01*
X187037071Y-67254452D01*
X187037071Y-67635404D01*
X187084690Y-67730642D01*
X187132309Y-67778261D01*
X187227547Y-67825880D01*
X187418023Y-67825880D01*
X187513261Y-67778261D01*
X187560880Y-67730642D01*
X187608500Y-67635404D01*
X187608500Y-67397309D01*
X187560880Y-67302071D01*
X187513261Y-67254452D01*
X187418023Y-67206833D01*
X187227547Y-67206833D01*
X187132309Y-67254452D01*
X187084690Y-67302071D01*
X187037071Y-67397309D01*
X156710119Y-129071928D02*
X156710119Y-128595738D01*
X157710119Y-128595738D01*
X156710119Y-129405261D02*
X157710119Y-129405261D01*
X157710119Y-129786214D01*
X157662500Y-129881452D01*
X157614880Y-129929071D01*
X157519642Y-129976690D01*
X157376785Y-129976690D01*
X157281547Y-129929071D01*
X157233928Y-129881452D01*
X157186309Y-129786214D01*
X157186309Y-129405261D01*
X157710119Y-130262404D02*
X157710119Y-130833833D01*
X156710119Y-130548119D02*
X157710119Y-130548119D01*
X156757738Y-131119547D02*
X156710119Y-131262404D01*
X156710119Y-131500500D01*
X156757738Y-131595738D01*
X156805357Y-131643357D01*
X156900595Y-131690976D01*
X156995833Y-131690976D01*
X157091071Y-131643357D01*
X157138690Y-131595738D01*
X157186309Y-131500500D01*
X157233928Y-131310023D01*
X157281547Y-131214785D01*
X157329166Y-131167166D01*
X157424404Y-131119547D01*
X157519642Y-131119547D01*
X157614880Y-131167166D01*
X157662500Y-131214785D01*
X157710119Y-131310023D01*
X157710119Y-131548119D01*
X157662500Y-131690976D01*
X156710119Y-132119547D02*
X157710119Y-132119547D01*
X157710119Y-132500500D01*
X157662500Y-132595738D01*
X157614880Y-132643357D01*
X157519642Y-132690976D01*
X157376785Y-132690976D01*
X157281547Y-132643357D01*
X157233928Y-132595738D01*
X157186309Y-132500500D01*
X157186309Y-132119547D01*
X157710119Y-132976690D02*
X157710119Y-133548119D01*
X156710119Y-133262404D02*
X157710119Y-133262404D01*
X191563809Y-124817214D02*
X191563809Y-125483880D01*
X191563809Y-124912452D02*
X191611428Y-124864833D01*
X191706666Y-124817214D01*
X191849523Y-124817214D01*
X191944761Y-124864833D01*
X191992380Y-124960071D01*
X191992380Y-125483880D01*
X192468571Y-125483880D02*
X192468571Y-124483880D01*
X193516190Y-125483880D02*
X193182857Y-125007690D01*
X192944761Y-125483880D02*
X192944761Y-124483880D01*
X193325714Y-124483880D01*
X193420952Y-124531500D01*
X193468571Y-124579119D01*
X193516190Y-124674357D01*
X193516190Y-124817214D01*
X193468571Y-124912452D01*
X193420952Y-124960071D01*
X193325714Y-125007690D01*
X192944761Y-125007690D01*
X194611428Y-125579119D02*
X194516190Y-125531500D01*
X194420952Y-125436261D01*
X194278095Y-125293404D01*
X194182857Y-125245785D01*
X194087619Y-125245785D01*
X194135238Y-125483880D02*
X194040000Y-125436261D01*
X193944761Y-125341023D01*
X193897142Y-125150547D01*
X193897142Y-124817214D01*
X193944761Y-124626738D01*
X194040000Y-124531500D01*
X194135238Y-124483880D01*
X194325714Y-124483880D01*
X194420952Y-124531500D01*
X194516190Y-124626738D01*
X194563809Y-124817214D01*
X194563809Y-125150547D01*
X194516190Y-125341023D01*
X194420952Y-125436261D01*
X194325714Y-125483880D01*
X194135238Y-125483880D01*
X191238380Y-122340714D02*
X191238380Y-123007380D01*
X191238380Y-122435952D02*
X191286000Y-122388333D01*
X191381238Y-122340714D01*
X191524095Y-122340714D01*
X191619333Y-122388333D01*
X191666952Y-122483571D01*
X191666952Y-123007380D01*
X192143142Y-123007380D02*
X192143142Y-122007380D01*
X192714571Y-123007380D01*
X192714571Y-122007380D01*
X193190761Y-123007380D02*
X193190761Y-122007380D01*
X193524095Y-122721666D01*
X193857428Y-122007380D01*
X193857428Y-123007380D01*
X194333619Y-123007380D02*
X194333619Y-122007380D01*
X190651095Y-119991214D02*
X190651095Y-120657880D01*
X190651095Y-120086452D02*
X190698714Y-120038833D01*
X190793952Y-119991214D01*
X190936809Y-119991214D01*
X191032047Y-120038833D01*
X191079666Y-120134071D01*
X191079666Y-120657880D01*
X191698714Y-120086452D02*
X191603476Y-120038833D01*
X191555857Y-119991214D01*
X191508238Y-119895976D01*
X191508238Y-119848357D01*
X191555857Y-119753119D01*
X191603476Y-119705500D01*
X191698714Y-119657880D01*
X191889190Y-119657880D01*
X191984428Y-119705500D01*
X192032047Y-119753119D01*
X192079666Y-119848357D01*
X192079666Y-119895976D01*
X192032047Y-119991214D01*
X191984428Y-120038833D01*
X191889190Y-120086452D01*
X191698714Y-120086452D01*
X191603476Y-120134071D01*
X191555857Y-120181690D01*
X191508238Y-120276928D01*
X191508238Y-120467404D01*
X191555857Y-120562642D01*
X191603476Y-120610261D01*
X191698714Y-120657880D01*
X191889190Y-120657880D01*
X191984428Y-120610261D01*
X192032047Y-120562642D01*
X192079666Y-120467404D01*
X192079666Y-120276928D01*
X192032047Y-120181690D01*
X191984428Y-120134071D01*
X191889190Y-120086452D01*
X192508238Y-120657880D02*
X192508238Y-119657880D01*
X192841571Y-120372166D01*
X193174904Y-119657880D01*
X193174904Y-120657880D01*
X193651095Y-120657880D02*
X193651095Y-119657880D01*
X193651095Y-120134071D02*
X194222523Y-120134071D01*
X194222523Y-120657880D02*
X194222523Y-119657880D01*
X194603476Y-119657880D02*
X195270142Y-119657880D01*
X194603476Y-120657880D01*
X195270142Y-120657880D01*
X190817738Y-117387714D02*
X190817738Y-118054380D01*
X190817738Y-117482952D02*
X190865357Y-117435333D01*
X190960595Y-117387714D01*
X191103452Y-117387714D01*
X191198690Y-117435333D01*
X191246309Y-117530571D01*
X191246309Y-118054380D01*
X191722500Y-118054380D02*
X191722500Y-117054380D01*
X192198690Y-118054380D02*
X192198690Y-117054380D01*
X192770119Y-118054380D01*
X192770119Y-117054380D01*
X193579642Y-117530571D02*
X193246309Y-117530571D01*
X193246309Y-118054380D02*
X193246309Y-117054380D01*
X193722500Y-117054380D01*
X194103452Y-118054380D02*
X194103452Y-117054380D01*
X194341547Y-117054380D01*
X194484404Y-117102000D01*
X194579642Y-117197238D01*
X194627261Y-117292476D01*
X194674880Y-117482952D01*
X194674880Y-117625809D01*
X194627261Y-117816285D01*
X194579642Y-117911523D01*
X194484404Y-118006761D01*
X194341547Y-118054380D01*
X194103452Y-118054380D01*
X190881238Y-114657214D02*
X190881238Y-115323880D01*
X190881238Y-114752452D02*
X190928857Y-114704833D01*
X191024095Y-114657214D01*
X191166952Y-114657214D01*
X191262190Y-114704833D01*
X191309809Y-114800071D01*
X191309809Y-115323880D01*
X191786000Y-115323880D02*
X191786000Y-114323880D01*
X192262190Y-115323880D02*
X192262190Y-114323880D01*
X192833619Y-115323880D01*
X192833619Y-114323880D01*
X193643142Y-114800071D02*
X193309809Y-114800071D01*
X193309809Y-115323880D02*
X193309809Y-114323880D01*
X193786000Y-114323880D01*
X194738380Y-115228642D02*
X194690761Y-115276261D01*
X194547904Y-115323880D01*
X194452666Y-115323880D01*
X194309809Y-115276261D01*
X194214571Y-115181023D01*
X194166952Y-115085785D01*
X194119333Y-114895309D01*
X194119333Y-114752452D01*
X194166952Y-114561976D01*
X194214571Y-114466738D01*
X194309809Y-114371500D01*
X194452666Y-114323880D01*
X194547904Y-114323880D01*
X194690761Y-114371500D01*
X194738380Y-114419119D01*
X180689404Y-128150880D02*
X180689404Y-127150880D01*
X181070357Y-127150880D01*
X181165595Y-127198500D01*
X181213214Y-127246119D01*
X181260833Y-127341357D01*
X181260833Y-127484214D01*
X181213214Y-127579452D01*
X181165595Y-127627071D01*
X181070357Y-127674690D01*
X180689404Y-127674690D01*
X182022738Y-127627071D02*
X182165595Y-127674690D01*
X182213214Y-127722309D01*
X182260833Y-127817547D01*
X182260833Y-127960404D01*
X182213214Y-128055642D01*
X182165595Y-128103261D01*
X182070357Y-128150880D01*
X181689404Y-128150880D01*
X181689404Y-127150880D01*
X182022738Y-127150880D01*
X182117976Y-127198500D01*
X182165595Y-127246119D01*
X182213214Y-127341357D01*
X182213214Y-127436595D01*
X182165595Y-127531833D01*
X182117976Y-127579452D01*
X182022738Y-127627071D01*
X181689404Y-127627071D01*
X183165595Y-127150880D02*
X182689404Y-127150880D01*
X182641785Y-127627071D01*
X182689404Y-127579452D01*
X182784642Y-127531833D01*
X183022738Y-127531833D01*
X183117976Y-127579452D01*
X183165595Y-127627071D01*
X183213214Y-127722309D01*
X183213214Y-127960404D01*
X183165595Y-128055642D01*
X183117976Y-128103261D01*
X183022738Y-128150880D01*
X182784642Y-128150880D01*
X182689404Y-128103261D01*
X182641785Y-128055642D01*
X180689404Y-125483880D02*
X180689404Y-124483880D01*
X181070357Y-124483880D01*
X181165595Y-124531500D01*
X181213214Y-124579119D01*
X181260833Y-124674357D01*
X181260833Y-124817214D01*
X181213214Y-124912452D01*
X181165595Y-124960071D01*
X181070357Y-125007690D01*
X180689404Y-125007690D01*
X182022738Y-124960071D02*
X182165595Y-125007690D01*
X182213214Y-125055309D01*
X182260833Y-125150547D01*
X182260833Y-125293404D01*
X182213214Y-125388642D01*
X182165595Y-125436261D01*
X182070357Y-125483880D01*
X181689404Y-125483880D01*
X181689404Y-124483880D01*
X182022738Y-124483880D01*
X182117976Y-124531500D01*
X182165595Y-124579119D01*
X182213214Y-124674357D01*
X182213214Y-124769595D01*
X182165595Y-124864833D01*
X182117976Y-124912452D01*
X182022738Y-124960071D01*
X181689404Y-124960071D01*
X183117976Y-124483880D02*
X182927500Y-124483880D01*
X182832261Y-124531500D01*
X182784642Y-124579119D01*
X182689404Y-124721976D01*
X182641785Y-124912452D01*
X182641785Y-125293404D01*
X182689404Y-125388642D01*
X182737023Y-125436261D01*
X182832261Y-125483880D01*
X183022738Y-125483880D01*
X183117976Y-125436261D01*
X183165595Y-125388642D01*
X183213214Y-125293404D01*
X183213214Y-125055309D01*
X183165595Y-124960071D01*
X183117976Y-124912452D01*
X183022738Y-124864833D01*
X182832261Y-124864833D01*
X182737023Y-124912452D01*
X182689404Y-124960071D01*
X182641785Y-125055309D01*
X180689404Y-122943880D02*
X180689404Y-121943880D01*
X181070357Y-121943880D01*
X181165595Y-121991500D01*
X181213214Y-122039119D01*
X181260833Y-122134357D01*
X181260833Y-122277214D01*
X181213214Y-122372452D01*
X181165595Y-122420071D01*
X181070357Y-122467690D01*
X180689404Y-122467690D01*
X182022738Y-122420071D02*
X182165595Y-122467690D01*
X182213214Y-122515309D01*
X182260833Y-122610547D01*
X182260833Y-122753404D01*
X182213214Y-122848642D01*
X182165595Y-122896261D01*
X182070357Y-122943880D01*
X181689404Y-122943880D01*
X181689404Y-121943880D01*
X182022738Y-121943880D01*
X182117976Y-121991500D01*
X182165595Y-122039119D01*
X182213214Y-122134357D01*
X182213214Y-122229595D01*
X182165595Y-122324833D01*
X182117976Y-122372452D01*
X182022738Y-122420071D01*
X181689404Y-122420071D01*
X182594166Y-121943880D02*
X183260833Y-121943880D01*
X182832261Y-122943880D01*
X181792595Y-120276880D02*
X181459261Y-119800690D01*
X181221166Y-120276880D02*
X181221166Y-119276880D01*
X181602119Y-119276880D01*
X181697357Y-119324500D01*
X181744976Y-119372119D01*
X181792595Y-119467357D01*
X181792595Y-119610214D01*
X181744976Y-119705452D01*
X181697357Y-119753071D01*
X181602119Y-119800690D01*
X181221166Y-119800690D01*
X182125928Y-119276880D02*
X182364023Y-120276880D01*
X182554500Y-119562595D01*
X182744976Y-120276880D01*
X182983071Y-119276880D01*
X180427500Y-117863880D02*
X180427500Y-116863880D01*
X180808452Y-116863880D01*
X180903690Y-116911500D01*
X180951309Y-116959119D01*
X180998928Y-117054357D01*
X180998928Y-117197214D01*
X180951309Y-117292452D01*
X180903690Y-117340071D01*
X180808452Y-117387690D01*
X180427500Y-117387690D01*
X181427500Y-117863880D02*
X181427500Y-116863880D01*
X181427500Y-117340071D02*
X181998928Y-117340071D01*
X181998928Y-117863880D02*
X181998928Y-116863880D01*
X182475119Y-117863880D02*
X182475119Y-116863880D01*
X182903690Y-116959119D02*
X182951309Y-116911500D01*
X183046547Y-116863880D01*
X183284642Y-116863880D01*
X183379880Y-116911500D01*
X183427500Y-116959119D01*
X183475119Y-117054357D01*
X183475119Y-117149595D01*
X183427500Y-117292452D01*
X182856071Y-117863880D01*
X183475119Y-117863880D01*
X180292571Y-114530214D02*
X180292571Y-115196880D01*
X180292571Y-114625452D02*
X180340190Y-114577833D01*
X180435428Y-114530214D01*
X180578285Y-114530214D01*
X180673523Y-114577833D01*
X180721142Y-114673071D01*
X180721142Y-115196880D01*
X181768761Y-115196880D02*
X181435428Y-114720690D01*
X181197333Y-115196880D02*
X181197333Y-114196880D01*
X181578285Y-114196880D01*
X181673523Y-114244500D01*
X181721142Y-114292119D01*
X181768761Y-114387357D01*
X181768761Y-114530214D01*
X181721142Y-114625452D01*
X181673523Y-114673071D01*
X181578285Y-114720690D01*
X181197333Y-114720690D01*
X182149714Y-115149261D02*
X182292571Y-115196880D01*
X182530666Y-115196880D01*
X182625904Y-115149261D01*
X182673523Y-115101642D01*
X182721142Y-115006404D01*
X182721142Y-114911166D01*
X182673523Y-114815928D01*
X182625904Y-114768309D01*
X182530666Y-114720690D01*
X182340190Y-114673071D01*
X182244952Y-114625452D01*
X182197333Y-114577833D01*
X182149714Y-114482595D01*
X182149714Y-114387357D01*
X182197333Y-114292119D01*
X182244952Y-114244500D01*
X182340190Y-114196880D01*
X182578285Y-114196880D01*
X182721142Y-114244500D01*
X183006857Y-114196880D02*
X183578285Y-114196880D01*
X183292571Y-115196880D02*
X183292571Y-114196880D01*
D11*
X147670000Y-66344500D02*
X149000000Y-66344500D01*
X147670000Y-67674500D02*
X147670000Y-66344500D01*
X147670000Y-68944500D02*
X150330000Y-68944500D01*
X150330000Y-68944500D02*
X150330000Y-129964500D01*
X147670000Y-68944500D02*
X147670000Y-129964500D01*
X147670000Y-129964500D02*
X150330000Y-129964500D01*
X142670000Y-66344500D02*
X144000000Y-66344500D01*
X142670000Y-67674500D02*
X142670000Y-66344500D01*
X142670000Y-68944500D02*
X145330000Y-68944500D01*
X145330000Y-68944500D02*
X145330000Y-129964500D01*
X142670000Y-68944500D02*
X142670000Y-129964500D01*
X142670000Y-129964500D02*
X145330000Y-129964500D01*
X178015000Y-79669000D02*
X177700000Y-79669000D01*
X180440000Y-79669000D02*
X180125000Y-79669000D01*
X178015000Y-74429000D02*
X177700000Y-74429000D01*
X180440000Y-74429000D02*
X180125000Y-74429000D01*
X177700000Y-74429000D02*
X177700000Y-79669000D01*
X180440000Y-74429000D02*
X180440000Y-79669000D01*
X179328000Y-96075500D02*
X179328000Y-94745500D01*
X179328000Y-94745500D02*
X180658000Y-94745500D01*
X181928000Y-94745500D02*
X187068000Y-94745500D01*
X187068000Y-97405500D02*
X187068000Y-94745500D01*
X181928000Y-97405500D02*
X187068000Y-97405500D01*
X181928000Y-97405500D02*
X181928000Y-94745500D01*
X179328000Y-102108000D02*
X179328000Y-100778000D01*
X179328000Y-100778000D02*
X180658000Y-100778000D01*
X181928000Y-100778000D02*
X187068000Y-100778000D01*
X187068000Y-103438000D02*
X187068000Y-100778000D01*
X181928000Y-103438000D02*
X187068000Y-103438000D01*
X181928000Y-103438000D02*
X181928000Y-100778000D01*
X176015000Y-81975000D02*
X176015000Y-71695000D01*
X155455000Y-81975000D02*
X176015000Y-81975000D01*
X155455000Y-71695000D02*
X155455000Y-81975000D01*
X176015000Y-71695000D02*
X155455000Y-71695000D01*
X175955000Y-79485000D02*
X175955000Y-77835000D01*
X155515000Y-79485000D02*
X175955000Y-79485000D01*
X155515000Y-74185000D02*
X155515000Y-79485000D01*
X175955000Y-74185000D02*
X155515000Y-74185000D01*
X175955000Y-75835000D02*
X175955000Y-74185000D01*
X175955000Y-77835000D02*
G75*
G02X175955000Y-75835000I0J1000000D01*
G01*
X184598000Y-113478000D02*
X185928000Y-113478000D01*
X184598000Y-114808000D02*
X184598000Y-113478000D01*
X187198000Y-113478000D02*
X189798000Y-113478000D01*
X187198000Y-116078000D02*
X187198000Y-113478000D01*
X184598000Y-116078000D02*
X187198000Y-116078000D01*
X189798000Y-113478000D02*
X189798000Y-128838000D01*
X184598000Y-116078000D02*
X184598000Y-128838000D01*
X184598000Y-128838000D02*
X189798000Y-128838000D01*
X171728000Y-85686000D02*
X171728000Y-85371000D01*
X171728000Y-88111000D02*
X171728000Y-87796000D01*
X176968000Y-85686000D02*
X176968000Y-85371000D01*
X176968000Y-88111000D02*
X176968000Y-87796000D01*
X176968000Y-85371000D02*
X171728000Y-85371000D01*
X176968000Y-88111000D02*
X171728000Y-88111000D01*
X169655000Y-95063000D02*
X164195000Y-95063000D01*
X169655000Y-130743000D02*
X169655000Y-95063000D01*
X156735000Y-130743000D02*
X169655000Y-130743000D01*
X156735000Y-95063000D02*
X156735000Y-130743000D01*
X162195000Y-95063000D02*
X156735000Y-95063000D01*
X164195000Y-95063000D02*
G75*
G02X162195000Y-95063000I-1000000J0D01*
G01*
D10*
X148666666Y-64796880D02*
X148666666Y-65511166D01*
X148619047Y-65654023D01*
X148523809Y-65749261D01*
X148380952Y-65796880D01*
X148285714Y-65796880D01*
X149095238Y-64892119D02*
X149142857Y-64844500D01*
X149238095Y-64796880D01*
X149476190Y-64796880D01*
X149571428Y-64844500D01*
X149619047Y-64892119D01*
X149666666Y-64987357D01*
X149666666Y-65082595D01*
X149619047Y-65225452D01*
X149047619Y-65796880D01*
X149666666Y-65796880D01*
X143666666Y-64796880D02*
X143666666Y-65511166D01*
X143619047Y-65654023D01*
X143523809Y-65749261D01*
X143380952Y-65796880D01*
X143285714Y-65796880D01*
X144666666Y-65796880D02*
X144095238Y-65796880D01*
X144380952Y-65796880D02*
X144380952Y-64796880D01*
X144285714Y-64939738D01*
X144190476Y-65034976D01*
X144095238Y-65082595D01*
X181927142Y-77215666D02*
X181974761Y-77263285D01*
X182022380Y-77406142D01*
X182022380Y-77501380D01*
X181974761Y-77644238D01*
X181879523Y-77739476D01*
X181784285Y-77787095D01*
X181593809Y-77834714D01*
X181450952Y-77834714D01*
X181260476Y-77787095D01*
X181165238Y-77739476D01*
X181070000Y-77644238D01*
X181022380Y-77501380D01*
X181022380Y-77406142D01*
X181070000Y-77263285D01*
X181117619Y-77215666D01*
X181117619Y-76834714D02*
X181070000Y-76787095D01*
X181022380Y-76691857D01*
X181022380Y-76453761D01*
X181070000Y-76358523D01*
X181117619Y-76310904D01*
X181212857Y-76263285D01*
X181308095Y-76263285D01*
X181450952Y-76310904D01*
X182022380Y-76882333D01*
X182022380Y-76263285D01*
X177340380Y-96408833D02*
X178054666Y-96408833D01*
X178197523Y-96456452D01*
X178292761Y-96551690D01*
X178340380Y-96694547D01*
X178340380Y-96789785D01*
X177340380Y-95456452D02*
X177340380Y-95932642D01*
X177816571Y-95980261D01*
X177768952Y-95932642D01*
X177721333Y-95837404D01*
X177721333Y-95599309D01*
X177768952Y-95504071D01*
X177816571Y-95456452D01*
X177911809Y-95408833D01*
X178149904Y-95408833D01*
X178245142Y-95456452D01*
X178292761Y-95504071D01*
X178340380Y-95599309D01*
X178340380Y-95837404D01*
X178292761Y-95932642D01*
X178245142Y-95980261D01*
X177340380Y-102441333D02*
X178054666Y-102441333D01*
X178197523Y-102488952D01*
X178292761Y-102584190D01*
X178340380Y-102727047D01*
X178340380Y-102822285D01*
X177673714Y-101536571D02*
X178340380Y-101536571D01*
X177292761Y-101774666D02*
X178007047Y-102012761D01*
X178007047Y-101393714D01*
X176407380Y-77596904D02*
X177216904Y-77596904D01*
X177312142Y-77549285D01*
X177359761Y-77501666D01*
X177407380Y-77406428D01*
X177407380Y-77215952D01*
X177359761Y-77120714D01*
X177312142Y-77073095D01*
X177216904Y-77025476D01*
X176407380Y-77025476D01*
X176502619Y-76596904D02*
X176455000Y-76549285D01*
X176407380Y-76454047D01*
X176407380Y-76215952D01*
X176455000Y-76120714D01*
X176502619Y-76073095D01*
X176597857Y-76025476D01*
X176693095Y-76025476D01*
X176835952Y-76073095D01*
X177407380Y-76644523D01*
X177407380Y-76025476D01*
X186864666Y-111930380D02*
X186864666Y-112644666D01*
X186817047Y-112787523D01*
X186721809Y-112882761D01*
X186578952Y-112930380D01*
X186483714Y-112930380D01*
X187245619Y-111930380D02*
X187864666Y-111930380D01*
X187531333Y-112311333D01*
X187674190Y-112311333D01*
X187769428Y-112358952D01*
X187817047Y-112406571D01*
X187864666Y-112501809D01*
X187864666Y-112739904D01*
X187817047Y-112835142D01*
X187769428Y-112882761D01*
X187674190Y-112930380D01*
X187388476Y-112930380D01*
X187293238Y-112882761D01*
X187245619Y-112835142D01*
X174712833Y-84558142D02*
X174665214Y-84605761D01*
X174522357Y-84653380D01*
X174427119Y-84653380D01*
X174284261Y-84605761D01*
X174189023Y-84510523D01*
X174141404Y-84415285D01*
X174093785Y-84224809D01*
X174093785Y-84081952D01*
X174141404Y-83891476D01*
X174189023Y-83796238D01*
X174284261Y-83701000D01*
X174427119Y-83653380D01*
X174522357Y-83653380D01*
X174665214Y-83701000D01*
X174712833Y-83748619D01*
X175665214Y-84653380D02*
X175093785Y-84653380D01*
X175379500Y-84653380D02*
X175379500Y-83653380D01*
X175284261Y-83796238D01*
X175189023Y-83891476D01*
X175093785Y-83939095D01*
X162433095Y-93515380D02*
X162433095Y-94324904D01*
X162480714Y-94420142D01*
X162528333Y-94467761D01*
X162623571Y-94515380D01*
X162814047Y-94515380D01*
X162909285Y-94467761D01*
X162956904Y-94420142D01*
X163004523Y-94324904D01*
X163004523Y-93515380D01*
X164004523Y-94515380D02*
X163433095Y-94515380D01*
X163718809Y-94515380D02*
X163718809Y-93515380D01*
X163623571Y-93658238D01*
X163528333Y-93753476D01*
X163433095Y-93801095D01*
M02*
