G04 #@! TF.GenerationSoftware,KiCad,Pcbnew,(5.1.5)-3*
G04 #@! TF.CreationDate,2022-06-14T21:30:09+02:00*
G04 #@! TF.ProjectId,PC128S_ExtROM,50433132-3853-45f4-9578-74524f4d2e6b,rev?*
G04 #@! TF.SameCoordinates,Original*
G04 #@! TF.FileFunction,Soldermask,Top*
G04 #@! TF.FilePolarity,Negative*
%FSLAX46Y46*%
G04 Gerber Fmt 4.6, Leading zero omitted, Abs format (unit mm)*
G04 Created by KiCad (PCBNEW (5.1.5)-3) date 2022-06-14 21:30:09*
%MOMM*%
%LPD*%
G04 APERTURE LIST*
%ADD10C,0.100000*%
G04 APERTURE END LIST*
D10*
G36*
X171063228Y-128594703D02*
G01*
X171218100Y-128658853D01*
X171357481Y-128751985D01*
X171476015Y-128870519D01*
X171569147Y-129009900D01*
X171633297Y-129164772D01*
X171666000Y-129329184D01*
X171666000Y-129496816D01*
X171633297Y-129661228D01*
X171569147Y-129816100D01*
X171476015Y-129955481D01*
X171357481Y-130074015D01*
X171218100Y-130167147D01*
X171063228Y-130231297D01*
X170898816Y-130264000D01*
X170731184Y-130264000D01*
X170566772Y-130231297D01*
X170411900Y-130167147D01*
X170272519Y-130074015D01*
X170153985Y-129955481D01*
X170060853Y-129816100D01*
X169996703Y-129661228D01*
X169964000Y-129496816D01*
X169964000Y-129329184D01*
X169996703Y-129164772D01*
X170060853Y-129009900D01*
X170153985Y-128870519D01*
X170272519Y-128751985D01*
X170411900Y-128658853D01*
X170566772Y-128594703D01*
X170731184Y-128562000D01*
X170898816Y-128562000D01*
X171063228Y-128594703D01*
G37*
G36*
X155823228Y-128594703D02*
G01*
X155978100Y-128658853D01*
X156117481Y-128751985D01*
X156236015Y-128870519D01*
X156329147Y-129009900D01*
X156393297Y-129164772D01*
X156426000Y-129329184D01*
X156426000Y-129496816D01*
X156393297Y-129661228D01*
X156329147Y-129816100D01*
X156236015Y-129955481D01*
X156117481Y-130074015D01*
X155978100Y-130167147D01*
X155823228Y-130231297D01*
X155658816Y-130264000D01*
X155491184Y-130264000D01*
X155326772Y-130231297D01*
X155171900Y-130167147D01*
X155032519Y-130074015D01*
X154913985Y-129955481D01*
X154820853Y-129816100D01*
X154756703Y-129661228D01*
X154724000Y-129496816D01*
X154724000Y-129329184D01*
X154756703Y-129164772D01*
X154820853Y-129009900D01*
X154913985Y-128870519D01*
X155032519Y-128751985D01*
X155171900Y-128658853D01*
X155326772Y-128594703D01*
X155491184Y-128562000D01*
X155658816Y-128562000D01*
X155823228Y-128594703D01*
G37*
G36*
X144113512Y-127738427D02*
G01*
X144262812Y-127768124D01*
X144426784Y-127836044D01*
X144574354Y-127934647D01*
X144699853Y-128060146D01*
X144798456Y-128207716D01*
X144866376Y-128371688D01*
X144901000Y-128545759D01*
X144901000Y-128723241D01*
X144866376Y-128897312D01*
X144798456Y-129061284D01*
X144699853Y-129208854D01*
X144574354Y-129334353D01*
X144426784Y-129432956D01*
X144262812Y-129500876D01*
X144113512Y-129530573D01*
X144088742Y-129535500D01*
X143911258Y-129535500D01*
X143886488Y-129530573D01*
X143737188Y-129500876D01*
X143573216Y-129432956D01*
X143425646Y-129334353D01*
X143300147Y-129208854D01*
X143201544Y-129061284D01*
X143133624Y-128897312D01*
X143099000Y-128723241D01*
X143099000Y-128545759D01*
X143133624Y-128371688D01*
X143201544Y-128207716D01*
X143300147Y-128060146D01*
X143425646Y-127934647D01*
X143573216Y-127836044D01*
X143737188Y-127768124D01*
X143886488Y-127738427D01*
X143911258Y-127733500D01*
X144088742Y-127733500D01*
X144113512Y-127738427D01*
G37*
G36*
X149113512Y-127738427D02*
G01*
X149262812Y-127768124D01*
X149426784Y-127836044D01*
X149574354Y-127934647D01*
X149699853Y-128060146D01*
X149798456Y-128207716D01*
X149866376Y-128371688D01*
X149901000Y-128545759D01*
X149901000Y-128723241D01*
X149866376Y-128897312D01*
X149798456Y-129061284D01*
X149699853Y-129208854D01*
X149574354Y-129334353D01*
X149426784Y-129432956D01*
X149262812Y-129500876D01*
X149113512Y-129530573D01*
X149088742Y-129535500D01*
X148911258Y-129535500D01*
X148886488Y-129530573D01*
X148737188Y-129500876D01*
X148573216Y-129432956D01*
X148425646Y-129334353D01*
X148300147Y-129208854D01*
X148201544Y-129061284D01*
X148133624Y-128897312D01*
X148099000Y-128723241D01*
X148099000Y-128545759D01*
X148133624Y-128371688D01*
X148201544Y-128207716D01*
X148300147Y-128060146D01*
X148425646Y-127934647D01*
X148573216Y-127836044D01*
X148737188Y-127768124D01*
X148886488Y-127738427D01*
X148911258Y-127733500D01*
X149088742Y-127733500D01*
X149113512Y-127738427D01*
G37*
G36*
X188581512Y-126611927D02*
G01*
X188730812Y-126641624D01*
X188894784Y-126709544D01*
X189042354Y-126808147D01*
X189167853Y-126933646D01*
X189266456Y-127081216D01*
X189334376Y-127245188D01*
X189369000Y-127419259D01*
X189369000Y-127596741D01*
X189334376Y-127770812D01*
X189266456Y-127934784D01*
X189167853Y-128082354D01*
X189042354Y-128207853D01*
X188894784Y-128306456D01*
X188730812Y-128374376D01*
X188581512Y-128404073D01*
X188556742Y-128409000D01*
X188379258Y-128409000D01*
X188354488Y-128404073D01*
X188205188Y-128374376D01*
X188041216Y-128306456D01*
X187893646Y-128207853D01*
X187768147Y-128082354D01*
X187669544Y-127934784D01*
X187601624Y-127770812D01*
X187567000Y-127596741D01*
X187567000Y-127419259D01*
X187601624Y-127245188D01*
X187669544Y-127081216D01*
X187768147Y-126933646D01*
X187893646Y-126808147D01*
X188041216Y-126709544D01*
X188205188Y-126641624D01*
X188354488Y-126611927D01*
X188379258Y-126607000D01*
X188556742Y-126607000D01*
X188581512Y-126611927D01*
G37*
G36*
X186041512Y-126611927D02*
G01*
X186190812Y-126641624D01*
X186354784Y-126709544D01*
X186502354Y-126808147D01*
X186627853Y-126933646D01*
X186726456Y-127081216D01*
X186794376Y-127245188D01*
X186829000Y-127419259D01*
X186829000Y-127596741D01*
X186794376Y-127770812D01*
X186726456Y-127934784D01*
X186627853Y-128082354D01*
X186502354Y-128207853D01*
X186354784Y-128306456D01*
X186190812Y-128374376D01*
X186041512Y-128404073D01*
X186016742Y-128409000D01*
X185839258Y-128409000D01*
X185814488Y-128404073D01*
X185665188Y-128374376D01*
X185501216Y-128306456D01*
X185353646Y-128207853D01*
X185228147Y-128082354D01*
X185129544Y-127934784D01*
X185061624Y-127770812D01*
X185027000Y-127596741D01*
X185027000Y-127419259D01*
X185061624Y-127245188D01*
X185129544Y-127081216D01*
X185228147Y-126933646D01*
X185353646Y-126808147D01*
X185501216Y-126709544D01*
X185665188Y-126641624D01*
X185814488Y-126611927D01*
X185839258Y-126607000D01*
X186016742Y-126607000D01*
X186041512Y-126611927D01*
G37*
G36*
X155823228Y-126054703D02*
G01*
X155978100Y-126118853D01*
X156117481Y-126211985D01*
X156236015Y-126330519D01*
X156329147Y-126469900D01*
X156393297Y-126624772D01*
X156426000Y-126789184D01*
X156426000Y-126956816D01*
X156393297Y-127121228D01*
X156329147Y-127276100D01*
X156236015Y-127415481D01*
X156117481Y-127534015D01*
X155978100Y-127627147D01*
X155823228Y-127691297D01*
X155658816Y-127724000D01*
X155491184Y-127724000D01*
X155326772Y-127691297D01*
X155171900Y-127627147D01*
X155032519Y-127534015D01*
X154913985Y-127415481D01*
X154820853Y-127276100D01*
X154756703Y-127121228D01*
X154724000Y-126956816D01*
X154724000Y-126789184D01*
X154756703Y-126624772D01*
X154820853Y-126469900D01*
X154913985Y-126330519D01*
X155032519Y-126211985D01*
X155171900Y-126118853D01*
X155326772Y-126054703D01*
X155491184Y-126022000D01*
X155658816Y-126022000D01*
X155823228Y-126054703D01*
G37*
G36*
X171063228Y-126054703D02*
G01*
X171218100Y-126118853D01*
X171357481Y-126211985D01*
X171476015Y-126330519D01*
X171569147Y-126469900D01*
X171633297Y-126624772D01*
X171666000Y-126789184D01*
X171666000Y-126956816D01*
X171633297Y-127121228D01*
X171569147Y-127276100D01*
X171476015Y-127415481D01*
X171357481Y-127534015D01*
X171218100Y-127627147D01*
X171063228Y-127691297D01*
X170898816Y-127724000D01*
X170731184Y-127724000D01*
X170566772Y-127691297D01*
X170411900Y-127627147D01*
X170272519Y-127534015D01*
X170153985Y-127415481D01*
X170060853Y-127276100D01*
X169996703Y-127121228D01*
X169964000Y-126956816D01*
X169964000Y-126789184D01*
X169996703Y-126624772D01*
X170060853Y-126469900D01*
X170153985Y-126330519D01*
X170272519Y-126211985D01*
X170411900Y-126118853D01*
X170566772Y-126054703D01*
X170731184Y-126022000D01*
X170898816Y-126022000D01*
X171063228Y-126054703D01*
G37*
G36*
X149113512Y-125198427D02*
G01*
X149262812Y-125228124D01*
X149426784Y-125296044D01*
X149574354Y-125394647D01*
X149699853Y-125520146D01*
X149798456Y-125667716D01*
X149866376Y-125831688D01*
X149901000Y-126005759D01*
X149901000Y-126183241D01*
X149866376Y-126357312D01*
X149798456Y-126521284D01*
X149699853Y-126668854D01*
X149574354Y-126794353D01*
X149426784Y-126892956D01*
X149262812Y-126960876D01*
X149113512Y-126990573D01*
X149088742Y-126995500D01*
X148911258Y-126995500D01*
X148886488Y-126990573D01*
X148737188Y-126960876D01*
X148573216Y-126892956D01*
X148425646Y-126794353D01*
X148300147Y-126668854D01*
X148201544Y-126521284D01*
X148133624Y-126357312D01*
X148099000Y-126183241D01*
X148099000Y-126005759D01*
X148133624Y-125831688D01*
X148201544Y-125667716D01*
X148300147Y-125520146D01*
X148425646Y-125394647D01*
X148573216Y-125296044D01*
X148737188Y-125228124D01*
X148886488Y-125198427D01*
X148911258Y-125193500D01*
X149088742Y-125193500D01*
X149113512Y-125198427D01*
G37*
G36*
X144113512Y-125198427D02*
G01*
X144262812Y-125228124D01*
X144426784Y-125296044D01*
X144574354Y-125394647D01*
X144699853Y-125520146D01*
X144798456Y-125667716D01*
X144866376Y-125831688D01*
X144901000Y-126005759D01*
X144901000Y-126183241D01*
X144866376Y-126357312D01*
X144798456Y-126521284D01*
X144699853Y-126668854D01*
X144574354Y-126794353D01*
X144426784Y-126892956D01*
X144262812Y-126960876D01*
X144113512Y-126990573D01*
X144088742Y-126995500D01*
X143911258Y-126995500D01*
X143886488Y-126990573D01*
X143737188Y-126960876D01*
X143573216Y-126892956D01*
X143425646Y-126794353D01*
X143300147Y-126668854D01*
X143201544Y-126521284D01*
X143133624Y-126357312D01*
X143099000Y-126183241D01*
X143099000Y-126005759D01*
X143133624Y-125831688D01*
X143201544Y-125667716D01*
X143300147Y-125520146D01*
X143425646Y-125394647D01*
X143573216Y-125296044D01*
X143737188Y-125228124D01*
X143886488Y-125198427D01*
X143911258Y-125193500D01*
X144088742Y-125193500D01*
X144113512Y-125198427D01*
G37*
G36*
X188581512Y-124071927D02*
G01*
X188730812Y-124101624D01*
X188894784Y-124169544D01*
X189042354Y-124268147D01*
X189167853Y-124393646D01*
X189266456Y-124541216D01*
X189334376Y-124705188D01*
X189369000Y-124879259D01*
X189369000Y-125056741D01*
X189334376Y-125230812D01*
X189266456Y-125394784D01*
X189167853Y-125542354D01*
X189042354Y-125667853D01*
X188894784Y-125766456D01*
X188730812Y-125834376D01*
X188581512Y-125864073D01*
X188556742Y-125869000D01*
X188379258Y-125869000D01*
X188354488Y-125864073D01*
X188205188Y-125834376D01*
X188041216Y-125766456D01*
X187893646Y-125667853D01*
X187768147Y-125542354D01*
X187669544Y-125394784D01*
X187601624Y-125230812D01*
X187567000Y-125056741D01*
X187567000Y-124879259D01*
X187601624Y-124705188D01*
X187669544Y-124541216D01*
X187768147Y-124393646D01*
X187893646Y-124268147D01*
X188041216Y-124169544D01*
X188205188Y-124101624D01*
X188354488Y-124071927D01*
X188379258Y-124067000D01*
X188556742Y-124067000D01*
X188581512Y-124071927D01*
G37*
G36*
X186041512Y-124071927D02*
G01*
X186190812Y-124101624D01*
X186354784Y-124169544D01*
X186502354Y-124268147D01*
X186627853Y-124393646D01*
X186726456Y-124541216D01*
X186794376Y-124705188D01*
X186829000Y-124879259D01*
X186829000Y-125056741D01*
X186794376Y-125230812D01*
X186726456Y-125394784D01*
X186627853Y-125542354D01*
X186502354Y-125667853D01*
X186354784Y-125766456D01*
X186190812Y-125834376D01*
X186041512Y-125864073D01*
X186016742Y-125869000D01*
X185839258Y-125869000D01*
X185814488Y-125864073D01*
X185665188Y-125834376D01*
X185501216Y-125766456D01*
X185353646Y-125667853D01*
X185228147Y-125542354D01*
X185129544Y-125394784D01*
X185061624Y-125230812D01*
X185027000Y-125056741D01*
X185027000Y-124879259D01*
X185061624Y-124705188D01*
X185129544Y-124541216D01*
X185228147Y-124393646D01*
X185353646Y-124268147D01*
X185501216Y-124169544D01*
X185665188Y-124101624D01*
X185814488Y-124071927D01*
X185839258Y-124067000D01*
X186016742Y-124067000D01*
X186041512Y-124071927D01*
G37*
G36*
X171063228Y-123514703D02*
G01*
X171218100Y-123578853D01*
X171357481Y-123671985D01*
X171476015Y-123790519D01*
X171569147Y-123929900D01*
X171633297Y-124084772D01*
X171666000Y-124249184D01*
X171666000Y-124416816D01*
X171633297Y-124581228D01*
X171569147Y-124736100D01*
X171476015Y-124875481D01*
X171357481Y-124994015D01*
X171218100Y-125087147D01*
X171063228Y-125151297D01*
X170898816Y-125184000D01*
X170731184Y-125184000D01*
X170566772Y-125151297D01*
X170411900Y-125087147D01*
X170272519Y-124994015D01*
X170153985Y-124875481D01*
X170060853Y-124736100D01*
X169996703Y-124581228D01*
X169964000Y-124416816D01*
X169964000Y-124249184D01*
X169996703Y-124084772D01*
X170060853Y-123929900D01*
X170153985Y-123790519D01*
X170272519Y-123671985D01*
X170411900Y-123578853D01*
X170566772Y-123514703D01*
X170731184Y-123482000D01*
X170898816Y-123482000D01*
X171063228Y-123514703D01*
G37*
G36*
X155823228Y-123514703D02*
G01*
X155978100Y-123578853D01*
X156117481Y-123671985D01*
X156236015Y-123790519D01*
X156329147Y-123929900D01*
X156393297Y-124084772D01*
X156426000Y-124249184D01*
X156426000Y-124416816D01*
X156393297Y-124581228D01*
X156329147Y-124736100D01*
X156236015Y-124875481D01*
X156117481Y-124994015D01*
X155978100Y-125087147D01*
X155823228Y-125151297D01*
X155658816Y-125184000D01*
X155491184Y-125184000D01*
X155326772Y-125151297D01*
X155171900Y-125087147D01*
X155032519Y-124994015D01*
X154913985Y-124875481D01*
X154820853Y-124736100D01*
X154756703Y-124581228D01*
X154724000Y-124416816D01*
X154724000Y-124249184D01*
X154756703Y-124084772D01*
X154820853Y-123929900D01*
X154913985Y-123790519D01*
X155032519Y-123671985D01*
X155171900Y-123578853D01*
X155326772Y-123514703D01*
X155491184Y-123482000D01*
X155658816Y-123482000D01*
X155823228Y-123514703D01*
G37*
G36*
X144113512Y-122658427D02*
G01*
X144262812Y-122688124D01*
X144426784Y-122756044D01*
X144574354Y-122854647D01*
X144699853Y-122980146D01*
X144798456Y-123127716D01*
X144866376Y-123291688D01*
X144901000Y-123465759D01*
X144901000Y-123643241D01*
X144866376Y-123817312D01*
X144798456Y-123981284D01*
X144699853Y-124128854D01*
X144574354Y-124254353D01*
X144426784Y-124352956D01*
X144262812Y-124420876D01*
X144113512Y-124450573D01*
X144088742Y-124455500D01*
X143911258Y-124455500D01*
X143886488Y-124450573D01*
X143737188Y-124420876D01*
X143573216Y-124352956D01*
X143425646Y-124254353D01*
X143300147Y-124128854D01*
X143201544Y-123981284D01*
X143133624Y-123817312D01*
X143099000Y-123643241D01*
X143099000Y-123465759D01*
X143133624Y-123291688D01*
X143201544Y-123127716D01*
X143300147Y-122980146D01*
X143425646Y-122854647D01*
X143573216Y-122756044D01*
X143737188Y-122688124D01*
X143886488Y-122658427D01*
X143911258Y-122653500D01*
X144088742Y-122653500D01*
X144113512Y-122658427D01*
G37*
G36*
X149113512Y-122658427D02*
G01*
X149262812Y-122688124D01*
X149426784Y-122756044D01*
X149574354Y-122854647D01*
X149699853Y-122980146D01*
X149798456Y-123127716D01*
X149866376Y-123291688D01*
X149901000Y-123465759D01*
X149901000Y-123643241D01*
X149866376Y-123817312D01*
X149798456Y-123981284D01*
X149699853Y-124128854D01*
X149574354Y-124254353D01*
X149426784Y-124352956D01*
X149262812Y-124420876D01*
X149113512Y-124450573D01*
X149088742Y-124455500D01*
X148911258Y-124455500D01*
X148886488Y-124450573D01*
X148737188Y-124420876D01*
X148573216Y-124352956D01*
X148425646Y-124254353D01*
X148300147Y-124128854D01*
X148201544Y-123981284D01*
X148133624Y-123817312D01*
X148099000Y-123643241D01*
X148099000Y-123465759D01*
X148133624Y-123291688D01*
X148201544Y-123127716D01*
X148300147Y-122980146D01*
X148425646Y-122854647D01*
X148573216Y-122756044D01*
X148737188Y-122688124D01*
X148886488Y-122658427D01*
X148911258Y-122653500D01*
X149088742Y-122653500D01*
X149113512Y-122658427D01*
G37*
G36*
X186041512Y-121531927D02*
G01*
X186190812Y-121561624D01*
X186354784Y-121629544D01*
X186502354Y-121728147D01*
X186627853Y-121853646D01*
X186726456Y-122001216D01*
X186794376Y-122165188D01*
X186829000Y-122339259D01*
X186829000Y-122516741D01*
X186794376Y-122690812D01*
X186726456Y-122854784D01*
X186627853Y-123002354D01*
X186502354Y-123127853D01*
X186354784Y-123226456D01*
X186190812Y-123294376D01*
X186041512Y-123324073D01*
X186016742Y-123329000D01*
X185839258Y-123329000D01*
X185814488Y-123324073D01*
X185665188Y-123294376D01*
X185501216Y-123226456D01*
X185353646Y-123127853D01*
X185228147Y-123002354D01*
X185129544Y-122854784D01*
X185061624Y-122690812D01*
X185027000Y-122516741D01*
X185027000Y-122339259D01*
X185061624Y-122165188D01*
X185129544Y-122001216D01*
X185228147Y-121853646D01*
X185353646Y-121728147D01*
X185501216Y-121629544D01*
X185665188Y-121561624D01*
X185814488Y-121531927D01*
X185839258Y-121527000D01*
X186016742Y-121527000D01*
X186041512Y-121531927D01*
G37*
G36*
X188581512Y-121531927D02*
G01*
X188730812Y-121561624D01*
X188894784Y-121629544D01*
X189042354Y-121728147D01*
X189167853Y-121853646D01*
X189266456Y-122001216D01*
X189334376Y-122165188D01*
X189369000Y-122339259D01*
X189369000Y-122516741D01*
X189334376Y-122690812D01*
X189266456Y-122854784D01*
X189167853Y-123002354D01*
X189042354Y-123127853D01*
X188894784Y-123226456D01*
X188730812Y-123294376D01*
X188581512Y-123324073D01*
X188556742Y-123329000D01*
X188379258Y-123329000D01*
X188354488Y-123324073D01*
X188205188Y-123294376D01*
X188041216Y-123226456D01*
X187893646Y-123127853D01*
X187768147Y-123002354D01*
X187669544Y-122854784D01*
X187601624Y-122690812D01*
X187567000Y-122516741D01*
X187567000Y-122339259D01*
X187601624Y-122165188D01*
X187669544Y-122001216D01*
X187768147Y-121853646D01*
X187893646Y-121728147D01*
X188041216Y-121629544D01*
X188205188Y-121561624D01*
X188354488Y-121531927D01*
X188379258Y-121527000D01*
X188556742Y-121527000D01*
X188581512Y-121531927D01*
G37*
G36*
X155823228Y-120974703D02*
G01*
X155978100Y-121038853D01*
X156117481Y-121131985D01*
X156236015Y-121250519D01*
X156329147Y-121389900D01*
X156393297Y-121544772D01*
X156426000Y-121709184D01*
X156426000Y-121876816D01*
X156393297Y-122041228D01*
X156329147Y-122196100D01*
X156236015Y-122335481D01*
X156117481Y-122454015D01*
X155978100Y-122547147D01*
X155823228Y-122611297D01*
X155658816Y-122644000D01*
X155491184Y-122644000D01*
X155326772Y-122611297D01*
X155171900Y-122547147D01*
X155032519Y-122454015D01*
X154913985Y-122335481D01*
X154820853Y-122196100D01*
X154756703Y-122041228D01*
X154724000Y-121876816D01*
X154724000Y-121709184D01*
X154756703Y-121544772D01*
X154820853Y-121389900D01*
X154913985Y-121250519D01*
X155032519Y-121131985D01*
X155171900Y-121038853D01*
X155326772Y-120974703D01*
X155491184Y-120942000D01*
X155658816Y-120942000D01*
X155823228Y-120974703D01*
G37*
G36*
X171063228Y-120974703D02*
G01*
X171218100Y-121038853D01*
X171357481Y-121131985D01*
X171476015Y-121250519D01*
X171569147Y-121389900D01*
X171633297Y-121544772D01*
X171666000Y-121709184D01*
X171666000Y-121876816D01*
X171633297Y-122041228D01*
X171569147Y-122196100D01*
X171476015Y-122335481D01*
X171357481Y-122454015D01*
X171218100Y-122547147D01*
X171063228Y-122611297D01*
X170898816Y-122644000D01*
X170731184Y-122644000D01*
X170566772Y-122611297D01*
X170411900Y-122547147D01*
X170272519Y-122454015D01*
X170153985Y-122335481D01*
X170060853Y-122196100D01*
X169996703Y-122041228D01*
X169964000Y-121876816D01*
X169964000Y-121709184D01*
X169996703Y-121544772D01*
X170060853Y-121389900D01*
X170153985Y-121250519D01*
X170272519Y-121131985D01*
X170411900Y-121038853D01*
X170566772Y-120974703D01*
X170731184Y-120942000D01*
X170898816Y-120942000D01*
X171063228Y-120974703D01*
G37*
G36*
X144113512Y-120118427D02*
G01*
X144262812Y-120148124D01*
X144426784Y-120216044D01*
X144574354Y-120314647D01*
X144699853Y-120440146D01*
X144798456Y-120587716D01*
X144866376Y-120751688D01*
X144901000Y-120925759D01*
X144901000Y-121103241D01*
X144866376Y-121277312D01*
X144798456Y-121441284D01*
X144699853Y-121588854D01*
X144574354Y-121714353D01*
X144426784Y-121812956D01*
X144262812Y-121880876D01*
X144113512Y-121910573D01*
X144088742Y-121915500D01*
X143911258Y-121915500D01*
X143886488Y-121910573D01*
X143737188Y-121880876D01*
X143573216Y-121812956D01*
X143425646Y-121714353D01*
X143300147Y-121588854D01*
X143201544Y-121441284D01*
X143133624Y-121277312D01*
X143099000Y-121103241D01*
X143099000Y-120925759D01*
X143133624Y-120751688D01*
X143201544Y-120587716D01*
X143300147Y-120440146D01*
X143425646Y-120314647D01*
X143573216Y-120216044D01*
X143737188Y-120148124D01*
X143886488Y-120118427D01*
X143911258Y-120113500D01*
X144088742Y-120113500D01*
X144113512Y-120118427D01*
G37*
G36*
X149113512Y-120118427D02*
G01*
X149262812Y-120148124D01*
X149426784Y-120216044D01*
X149574354Y-120314647D01*
X149699853Y-120440146D01*
X149798456Y-120587716D01*
X149866376Y-120751688D01*
X149901000Y-120925759D01*
X149901000Y-121103241D01*
X149866376Y-121277312D01*
X149798456Y-121441284D01*
X149699853Y-121588854D01*
X149574354Y-121714353D01*
X149426784Y-121812956D01*
X149262812Y-121880876D01*
X149113512Y-121910573D01*
X149088742Y-121915500D01*
X148911258Y-121915500D01*
X148886488Y-121910573D01*
X148737188Y-121880876D01*
X148573216Y-121812956D01*
X148425646Y-121714353D01*
X148300147Y-121588854D01*
X148201544Y-121441284D01*
X148133624Y-121277312D01*
X148099000Y-121103241D01*
X148099000Y-120925759D01*
X148133624Y-120751688D01*
X148201544Y-120587716D01*
X148300147Y-120440146D01*
X148425646Y-120314647D01*
X148573216Y-120216044D01*
X148737188Y-120148124D01*
X148886488Y-120118427D01*
X148911258Y-120113500D01*
X149088742Y-120113500D01*
X149113512Y-120118427D01*
G37*
G36*
X186041512Y-118991927D02*
G01*
X186190812Y-119021624D01*
X186354784Y-119089544D01*
X186502354Y-119188147D01*
X186627853Y-119313646D01*
X186726456Y-119461216D01*
X186794376Y-119625188D01*
X186829000Y-119799259D01*
X186829000Y-119976741D01*
X186794376Y-120150812D01*
X186726456Y-120314784D01*
X186627853Y-120462354D01*
X186502354Y-120587853D01*
X186354784Y-120686456D01*
X186190812Y-120754376D01*
X186041512Y-120784073D01*
X186016742Y-120789000D01*
X185839258Y-120789000D01*
X185814488Y-120784073D01*
X185665188Y-120754376D01*
X185501216Y-120686456D01*
X185353646Y-120587853D01*
X185228147Y-120462354D01*
X185129544Y-120314784D01*
X185061624Y-120150812D01*
X185027000Y-119976741D01*
X185027000Y-119799259D01*
X185061624Y-119625188D01*
X185129544Y-119461216D01*
X185228147Y-119313646D01*
X185353646Y-119188147D01*
X185501216Y-119089544D01*
X185665188Y-119021624D01*
X185814488Y-118991927D01*
X185839258Y-118987000D01*
X186016742Y-118987000D01*
X186041512Y-118991927D01*
G37*
G36*
X188581512Y-118991927D02*
G01*
X188730812Y-119021624D01*
X188894784Y-119089544D01*
X189042354Y-119188147D01*
X189167853Y-119313646D01*
X189266456Y-119461216D01*
X189334376Y-119625188D01*
X189369000Y-119799259D01*
X189369000Y-119976741D01*
X189334376Y-120150812D01*
X189266456Y-120314784D01*
X189167853Y-120462354D01*
X189042354Y-120587853D01*
X188894784Y-120686456D01*
X188730812Y-120754376D01*
X188581512Y-120784073D01*
X188556742Y-120789000D01*
X188379258Y-120789000D01*
X188354488Y-120784073D01*
X188205188Y-120754376D01*
X188041216Y-120686456D01*
X187893646Y-120587853D01*
X187768147Y-120462354D01*
X187669544Y-120314784D01*
X187601624Y-120150812D01*
X187567000Y-119976741D01*
X187567000Y-119799259D01*
X187601624Y-119625188D01*
X187669544Y-119461216D01*
X187768147Y-119313646D01*
X187893646Y-119188147D01*
X188041216Y-119089544D01*
X188205188Y-119021624D01*
X188354488Y-118991927D01*
X188379258Y-118987000D01*
X188556742Y-118987000D01*
X188581512Y-118991927D01*
G37*
G36*
X171063228Y-118434703D02*
G01*
X171218100Y-118498853D01*
X171357481Y-118591985D01*
X171476015Y-118710519D01*
X171569147Y-118849900D01*
X171633297Y-119004772D01*
X171666000Y-119169184D01*
X171666000Y-119336816D01*
X171633297Y-119501228D01*
X171569147Y-119656100D01*
X171476015Y-119795481D01*
X171357481Y-119914015D01*
X171218100Y-120007147D01*
X171063228Y-120071297D01*
X170898816Y-120104000D01*
X170731184Y-120104000D01*
X170566772Y-120071297D01*
X170411900Y-120007147D01*
X170272519Y-119914015D01*
X170153985Y-119795481D01*
X170060853Y-119656100D01*
X169996703Y-119501228D01*
X169964000Y-119336816D01*
X169964000Y-119169184D01*
X169996703Y-119004772D01*
X170060853Y-118849900D01*
X170153985Y-118710519D01*
X170272519Y-118591985D01*
X170411900Y-118498853D01*
X170566772Y-118434703D01*
X170731184Y-118402000D01*
X170898816Y-118402000D01*
X171063228Y-118434703D01*
G37*
G36*
X155823228Y-118434703D02*
G01*
X155978100Y-118498853D01*
X156117481Y-118591985D01*
X156236015Y-118710519D01*
X156329147Y-118849900D01*
X156393297Y-119004772D01*
X156426000Y-119169184D01*
X156426000Y-119336816D01*
X156393297Y-119501228D01*
X156329147Y-119656100D01*
X156236015Y-119795481D01*
X156117481Y-119914015D01*
X155978100Y-120007147D01*
X155823228Y-120071297D01*
X155658816Y-120104000D01*
X155491184Y-120104000D01*
X155326772Y-120071297D01*
X155171900Y-120007147D01*
X155032519Y-119914015D01*
X154913985Y-119795481D01*
X154820853Y-119656100D01*
X154756703Y-119501228D01*
X154724000Y-119336816D01*
X154724000Y-119169184D01*
X154756703Y-119004772D01*
X154820853Y-118849900D01*
X154913985Y-118710519D01*
X155032519Y-118591985D01*
X155171900Y-118498853D01*
X155326772Y-118434703D01*
X155491184Y-118402000D01*
X155658816Y-118402000D01*
X155823228Y-118434703D01*
G37*
G36*
X144113512Y-117578427D02*
G01*
X144262812Y-117608124D01*
X144426784Y-117676044D01*
X144574354Y-117774647D01*
X144699853Y-117900146D01*
X144798456Y-118047716D01*
X144866376Y-118211688D01*
X144901000Y-118385759D01*
X144901000Y-118563241D01*
X144866376Y-118737312D01*
X144798456Y-118901284D01*
X144699853Y-119048854D01*
X144574354Y-119174353D01*
X144426784Y-119272956D01*
X144262812Y-119340876D01*
X144113512Y-119370573D01*
X144088742Y-119375500D01*
X143911258Y-119375500D01*
X143886488Y-119370573D01*
X143737188Y-119340876D01*
X143573216Y-119272956D01*
X143425646Y-119174353D01*
X143300147Y-119048854D01*
X143201544Y-118901284D01*
X143133624Y-118737312D01*
X143099000Y-118563241D01*
X143099000Y-118385759D01*
X143133624Y-118211688D01*
X143201544Y-118047716D01*
X143300147Y-117900146D01*
X143425646Y-117774647D01*
X143573216Y-117676044D01*
X143737188Y-117608124D01*
X143886488Y-117578427D01*
X143911258Y-117573500D01*
X144088742Y-117573500D01*
X144113512Y-117578427D01*
G37*
G36*
X149113512Y-117578427D02*
G01*
X149262812Y-117608124D01*
X149426784Y-117676044D01*
X149574354Y-117774647D01*
X149699853Y-117900146D01*
X149798456Y-118047716D01*
X149866376Y-118211688D01*
X149901000Y-118385759D01*
X149901000Y-118563241D01*
X149866376Y-118737312D01*
X149798456Y-118901284D01*
X149699853Y-119048854D01*
X149574354Y-119174353D01*
X149426784Y-119272956D01*
X149262812Y-119340876D01*
X149113512Y-119370573D01*
X149088742Y-119375500D01*
X148911258Y-119375500D01*
X148886488Y-119370573D01*
X148737188Y-119340876D01*
X148573216Y-119272956D01*
X148425646Y-119174353D01*
X148300147Y-119048854D01*
X148201544Y-118901284D01*
X148133624Y-118737312D01*
X148099000Y-118563241D01*
X148099000Y-118385759D01*
X148133624Y-118211688D01*
X148201544Y-118047716D01*
X148300147Y-117900146D01*
X148425646Y-117774647D01*
X148573216Y-117676044D01*
X148737188Y-117608124D01*
X148886488Y-117578427D01*
X148911258Y-117573500D01*
X149088742Y-117573500D01*
X149113512Y-117578427D01*
G37*
G36*
X188581512Y-116451927D02*
G01*
X188730812Y-116481624D01*
X188894784Y-116549544D01*
X189042354Y-116648147D01*
X189167853Y-116773646D01*
X189266456Y-116921216D01*
X189334376Y-117085188D01*
X189369000Y-117259259D01*
X189369000Y-117436741D01*
X189334376Y-117610812D01*
X189266456Y-117774784D01*
X189167853Y-117922354D01*
X189042354Y-118047853D01*
X188894784Y-118146456D01*
X188730812Y-118214376D01*
X188581512Y-118244073D01*
X188556742Y-118249000D01*
X188379258Y-118249000D01*
X188354488Y-118244073D01*
X188205188Y-118214376D01*
X188041216Y-118146456D01*
X187893646Y-118047853D01*
X187768147Y-117922354D01*
X187669544Y-117774784D01*
X187601624Y-117610812D01*
X187567000Y-117436741D01*
X187567000Y-117259259D01*
X187601624Y-117085188D01*
X187669544Y-116921216D01*
X187768147Y-116773646D01*
X187893646Y-116648147D01*
X188041216Y-116549544D01*
X188205188Y-116481624D01*
X188354488Y-116451927D01*
X188379258Y-116447000D01*
X188556742Y-116447000D01*
X188581512Y-116451927D01*
G37*
G36*
X186041512Y-116451927D02*
G01*
X186190812Y-116481624D01*
X186354784Y-116549544D01*
X186502354Y-116648147D01*
X186627853Y-116773646D01*
X186726456Y-116921216D01*
X186794376Y-117085188D01*
X186829000Y-117259259D01*
X186829000Y-117436741D01*
X186794376Y-117610812D01*
X186726456Y-117774784D01*
X186627853Y-117922354D01*
X186502354Y-118047853D01*
X186354784Y-118146456D01*
X186190812Y-118214376D01*
X186041512Y-118244073D01*
X186016742Y-118249000D01*
X185839258Y-118249000D01*
X185814488Y-118244073D01*
X185665188Y-118214376D01*
X185501216Y-118146456D01*
X185353646Y-118047853D01*
X185228147Y-117922354D01*
X185129544Y-117774784D01*
X185061624Y-117610812D01*
X185027000Y-117436741D01*
X185027000Y-117259259D01*
X185061624Y-117085188D01*
X185129544Y-116921216D01*
X185228147Y-116773646D01*
X185353646Y-116648147D01*
X185501216Y-116549544D01*
X185665188Y-116481624D01*
X185814488Y-116451927D01*
X185839258Y-116447000D01*
X186016742Y-116447000D01*
X186041512Y-116451927D01*
G37*
G36*
X171063228Y-115894703D02*
G01*
X171218100Y-115958853D01*
X171357481Y-116051985D01*
X171476015Y-116170519D01*
X171569147Y-116309900D01*
X171633297Y-116464772D01*
X171666000Y-116629184D01*
X171666000Y-116796816D01*
X171633297Y-116961228D01*
X171569147Y-117116100D01*
X171476015Y-117255481D01*
X171357481Y-117374015D01*
X171218100Y-117467147D01*
X171063228Y-117531297D01*
X170898816Y-117564000D01*
X170731184Y-117564000D01*
X170566772Y-117531297D01*
X170411900Y-117467147D01*
X170272519Y-117374015D01*
X170153985Y-117255481D01*
X170060853Y-117116100D01*
X169996703Y-116961228D01*
X169964000Y-116796816D01*
X169964000Y-116629184D01*
X169996703Y-116464772D01*
X170060853Y-116309900D01*
X170153985Y-116170519D01*
X170272519Y-116051985D01*
X170411900Y-115958853D01*
X170566772Y-115894703D01*
X170731184Y-115862000D01*
X170898816Y-115862000D01*
X171063228Y-115894703D01*
G37*
G36*
X155823228Y-115894703D02*
G01*
X155978100Y-115958853D01*
X156117481Y-116051985D01*
X156236015Y-116170519D01*
X156329147Y-116309900D01*
X156393297Y-116464772D01*
X156426000Y-116629184D01*
X156426000Y-116796816D01*
X156393297Y-116961228D01*
X156329147Y-117116100D01*
X156236015Y-117255481D01*
X156117481Y-117374015D01*
X155978100Y-117467147D01*
X155823228Y-117531297D01*
X155658816Y-117564000D01*
X155491184Y-117564000D01*
X155326772Y-117531297D01*
X155171900Y-117467147D01*
X155032519Y-117374015D01*
X154913985Y-117255481D01*
X154820853Y-117116100D01*
X154756703Y-116961228D01*
X154724000Y-116796816D01*
X154724000Y-116629184D01*
X154756703Y-116464772D01*
X154820853Y-116309900D01*
X154913985Y-116170519D01*
X155032519Y-116051985D01*
X155171900Y-115958853D01*
X155326772Y-115894703D01*
X155491184Y-115862000D01*
X155658816Y-115862000D01*
X155823228Y-115894703D01*
G37*
G36*
X149113512Y-115038427D02*
G01*
X149262812Y-115068124D01*
X149426784Y-115136044D01*
X149574354Y-115234647D01*
X149699853Y-115360146D01*
X149798456Y-115507716D01*
X149866376Y-115671688D01*
X149901000Y-115845759D01*
X149901000Y-116023241D01*
X149866376Y-116197312D01*
X149798456Y-116361284D01*
X149699853Y-116508854D01*
X149574354Y-116634353D01*
X149426784Y-116732956D01*
X149262812Y-116800876D01*
X149113512Y-116830573D01*
X149088742Y-116835500D01*
X148911258Y-116835500D01*
X148886488Y-116830573D01*
X148737188Y-116800876D01*
X148573216Y-116732956D01*
X148425646Y-116634353D01*
X148300147Y-116508854D01*
X148201544Y-116361284D01*
X148133624Y-116197312D01*
X148099000Y-116023241D01*
X148099000Y-115845759D01*
X148133624Y-115671688D01*
X148201544Y-115507716D01*
X148300147Y-115360146D01*
X148425646Y-115234647D01*
X148573216Y-115136044D01*
X148737188Y-115068124D01*
X148886488Y-115038427D01*
X148911258Y-115033500D01*
X149088742Y-115033500D01*
X149113512Y-115038427D01*
G37*
G36*
X144113512Y-115038427D02*
G01*
X144262812Y-115068124D01*
X144426784Y-115136044D01*
X144574354Y-115234647D01*
X144699853Y-115360146D01*
X144798456Y-115507716D01*
X144866376Y-115671688D01*
X144901000Y-115845759D01*
X144901000Y-116023241D01*
X144866376Y-116197312D01*
X144798456Y-116361284D01*
X144699853Y-116508854D01*
X144574354Y-116634353D01*
X144426784Y-116732956D01*
X144262812Y-116800876D01*
X144113512Y-116830573D01*
X144088742Y-116835500D01*
X143911258Y-116835500D01*
X143886488Y-116830573D01*
X143737188Y-116800876D01*
X143573216Y-116732956D01*
X143425646Y-116634353D01*
X143300147Y-116508854D01*
X143201544Y-116361284D01*
X143133624Y-116197312D01*
X143099000Y-116023241D01*
X143099000Y-115845759D01*
X143133624Y-115671688D01*
X143201544Y-115507716D01*
X143300147Y-115360146D01*
X143425646Y-115234647D01*
X143573216Y-115136044D01*
X143737188Y-115068124D01*
X143886488Y-115038427D01*
X143911258Y-115033500D01*
X144088742Y-115033500D01*
X144113512Y-115038427D01*
G37*
G36*
X188581512Y-113911927D02*
G01*
X188730812Y-113941624D01*
X188894784Y-114009544D01*
X189042354Y-114108147D01*
X189167853Y-114233646D01*
X189266456Y-114381216D01*
X189334376Y-114545188D01*
X189369000Y-114719259D01*
X189369000Y-114896741D01*
X189334376Y-115070812D01*
X189266456Y-115234784D01*
X189167853Y-115382354D01*
X189042354Y-115507853D01*
X188894784Y-115606456D01*
X188730812Y-115674376D01*
X188581512Y-115704073D01*
X188556742Y-115709000D01*
X188379258Y-115709000D01*
X188354488Y-115704073D01*
X188205188Y-115674376D01*
X188041216Y-115606456D01*
X187893646Y-115507853D01*
X187768147Y-115382354D01*
X187669544Y-115234784D01*
X187601624Y-115070812D01*
X187567000Y-114896741D01*
X187567000Y-114719259D01*
X187601624Y-114545188D01*
X187669544Y-114381216D01*
X187768147Y-114233646D01*
X187893646Y-114108147D01*
X188041216Y-114009544D01*
X188205188Y-113941624D01*
X188354488Y-113911927D01*
X188379258Y-113907000D01*
X188556742Y-113907000D01*
X188581512Y-113911927D01*
G37*
G36*
X186829000Y-115709000D02*
G01*
X185027000Y-115709000D01*
X185027000Y-113907000D01*
X186829000Y-113907000D01*
X186829000Y-115709000D01*
G37*
G36*
X171063228Y-113354703D02*
G01*
X171218100Y-113418853D01*
X171357481Y-113511985D01*
X171476015Y-113630519D01*
X171569147Y-113769900D01*
X171633297Y-113924772D01*
X171666000Y-114089184D01*
X171666000Y-114256816D01*
X171633297Y-114421228D01*
X171569147Y-114576100D01*
X171476015Y-114715481D01*
X171357481Y-114834015D01*
X171218100Y-114927147D01*
X171063228Y-114991297D01*
X170898816Y-115024000D01*
X170731184Y-115024000D01*
X170566772Y-114991297D01*
X170411900Y-114927147D01*
X170272519Y-114834015D01*
X170153985Y-114715481D01*
X170060853Y-114576100D01*
X169996703Y-114421228D01*
X169964000Y-114256816D01*
X169964000Y-114089184D01*
X169996703Y-113924772D01*
X170060853Y-113769900D01*
X170153985Y-113630519D01*
X170272519Y-113511985D01*
X170411900Y-113418853D01*
X170566772Y-113354703D01*
X170731184Y-113322000D01*
X170898816Y-113322000D01*
X171063228Y-113354703D01*
G37*
G36*
X155823228Y-113354703D02*
G01*
X155978100Y-113418853D01*
X156117481Y-113511985D01*
X156236015Y-113630519D01*
X156329147Y-113769900D01*
X156393297Y-113924772D01*
X156426000Y-114089184D01*
X156426000Y-114256816D01*
X156393297Y-114421228D01*
X156329147Y-114576100D01*
X156236015Y-114715481D01*
X156117481Y-114834015D01*
X155978100Y-114927147D01*
X155823228Y-114991297D01*
X155658816Y-115024000D01*
X155491184Y-115024000D01*
X155326772Y-114991297D01*
X155171900Y-114927147D01*
X155032519Y-114834015D01*
X154913985Y-114715481D01*
X154820853Y-114576100D01*
X154756703Y-114421228D01*
X154724000Y-114256816D01*
X154724000Y-114089184D01*
X154756703Y-113924772D01*
X154820853Y-113769900D01*
X154913985Y-113630519D01*
X155032519Y-113511985D01*
X155171900Y-113418853D01*
X155326772Y-113354703D01*
X155491184Y-113322000D01*
X155658816Y-113322000D01*
X155823228Y-113354703D01*
G37*
G36*
X149113512Y-112498427D02*
G01*
X149262812Y-112528124D01*
X149426784Y-112596044D01*
X149574354Y-112694647D01*
X149699853Y-112820146D01*
X149798456Y-112967716D01*
X149866376Y-113131688D01*
X149901000Y-113305759D01*
X149901000Y-113483241D01*
X149866376Y-113657312D01*
X149798456Y-113821284D01*
X149699853Y-113968854D01*
X149574354Y-114094353D01*
X149426784Y-114192956D01*
X149262812Y-114260876D01*
X149113512Y-114290573D01*
X149088742Y-114295500D01*
X148911258Y-114295500D01*
X148886488Y-114290573D01*
X148737188Y-114260876D01*
X148573216Y-114192956D01*
X148425646Y-114094353D01*
X148300147Y-113968854D01*
X148201544Y-113821284D01*
X148133624Y-113657312D01*
X148099000Y-113483241D01*
X148099000Y-113305759D01*
X148133624Y-113131688D01*
X148201544Y-112967716D01*
X148300147Y-112820146D01*
X148425646Y-112694647D01*
X148573216Y-112596044D01*
X148737188Y-112528124D01*
X148886488Y-112498427D01*
X148911258Y-112493500D01*
X149088742Y-112493500D01*
X149113512Y-112498427D01*
G37*
G36*
X144113512Y-112498427D02*
G01*
X144262812Y-112528124D01*
X144426784Y-112596044D01*
X144574354Y-112694647D01*
X144699853Y-112820146D01*
X144798456Y-112967716D01*
X144866376Y-113131688D01*
X144901000Y-113305759D01*
X144901000Y-113483241D01*
X144866376Y-113657312D01*
X144798456Y-113821284D01*
X144699853Y-113968854D01*
X144574354Y-114094353D01*
X144426784Y-114192956D01*
X144262812Y-114260876D01*
X144113512Y-114290573D01*
X144088742Y-114295500D01*
X143911258Y-114295500D01*
X143886488Y-114290573D01*
X143737188Y-114260876D01*
X143573216Y-114192956D01*
X143425646Y-114094353D01*
X143300147Y-113968854D01*
X143201544Y-113821284D01*
X143133624Y-113657312D01*
X143099000Y-113483241D01*
X143099000Y-113305759D01*
X143133624Y-113131688D01*
X143201544Y-112967716D01*
X143300147Y-112820146D01*
X143425646Y-112694647D01*
X143573216Y-112596044D01*
X143737188Y-112528124D01*
X143886488Y-112498427D01*
X143911258Y-112493500D01*
X144088742Y-112493500D01*
X144113512Y-112498427D01*
G37*
G36*
X155823228Y-110814703D02*
G01*
X155978100Y-110878853D01*
X156117481Y-110971985D01*
X156236015Y-111090519D01*
X156329147Y-111229900D01*
X156393297Y-111384772D01*
X156426000Y-111549184D01*
X156426000Y-111716816D01*
X156393297Y-111881228D01*
X156329147Y-112036100D01*
X156236015Y-112175481D01*
X156117481Y-112294015D01*
X155978100Y-112387147D01*
X155823228Y-112451297D01*
X155658816Y-112484000D01*
X155491184Y-112484000D01*
X155326772Y-112451297D01*
X155171900Y-112387147D01*
X155032519Y-112294015D01*
X154913985Y-112175481D01*
X154820853Y-112036100D01*
X154756703Y-111881228D01*
X154724000Y-111716816D01*
X154724000Y-111549184D01*
X154756703Y-111384772D01*
X154820853Y-111229900D01*
X154913985Y-111090519D01*
X155032519Y-110971985D01*
X155171900Y-110878853D01*
X155326772Y-110814703D01*
X155491184Y-110782000D01*
X155658816Y-110782000D01*
X155823228Y-110814703D01*
G37*
G36*
X171063228Y-110814703D02*
G01*
X171218100Y-110878853D01*
X171357481Y-110971985D01*
X171476015Y-111090519D01*
X171569147Y-111229900D01*
X171633297Y-111384772D01*
X171666000Y-111549184D01*
X171666000Y-111716816D01*
X171633297Y-111881228D01*
X171569147Y-112036100D01*
X171476015Y-112175481D01*
X171357481Y-112294015D01*
X171218100Y-112387147D01*
X171063228Y-112451297D01*
X170898816Y-112484000D01*
X170731184Y-112484000D01*
X170566772Y-112451297D01*
X170411900Y-112387147D01*
X170272519Y-112294015D01*
X170153985Y-112175481D01*
X170060853Y-112036100D01*
X169996703Y-111881228D01*
X169964000Y-111716816D01*
X169964000Y-111549184D01*
X169996703Y-111384772D01*
X170060853Y-111229900D01*
X170153985Y-111090519D01*
X170272519Y-110971985D01*
X170411900Y-110878853D01*
X170566772Y-110814703D01*
X170731184Y-110782000D01*
X170898816Y-110782000D01*
X171063228Y-110814703D01*
G37*
G36*
X149113512Y-109958427D02*
G01*
X149262812Y-109988124D01*
X149426784Y-110056044D01*
X149574354Y-110154647D01*
X149699853Y-110280146D01*
X149798456Y-110427716D01*
X149866376Y-110591688D01*
X149901000Y-110765759D01*
X149901000Y-110943241D01*
X149866376Y-111117312D01*
X149798456Y-111281284D01*
X149699853Y-111428854D01*
X149574354Y-111554353D01*
X149426784Y-111652956D01*
X149262812Y-111720876D01*
X149113512Y-111750573D01*
X149088742Y-111755500D01*
X148911258Y-111755500D01*
X148886488Y-111750573D01*
X148737188Y-111720876D01*
X148573216Y-111652956D01*
X148425646Y-111554353D01*
X148300147Y-111428854D01*
X148201544Y-111281284D01*
X148133624Y-111117312D01*
X148099000Y-110943241D01*
X148099000Y-110765759D01*
X148133624Y-110591688D01*
X148201544Y-110427716D01*
X148300147Y-110280146D01*
X148425646Y-110154647D01*
X148573216Y-110056044D01*
X148737188Y-109988124D01*
X148886488Y-109958427D01*
X148911258Y-109953500D01*
X149088742Y-109953500D01*
X149113512Y-109958427D01*
G37*
G36*
X144113512Y-109958427D02*
G01*
X144262812Y-109988124D01*
X144426784Y-110056044D01*
X144574354Y-110154647D01*
X144699853Y-110280146D01*
X144798456Y-110427716D01*
X144866376Y-110591688D01*
X144901000Y-110765759D01*
X144901000Y-110943241D01*
X144866376Y-111117312D01*
X144798456Y-111281284D01*
X144699853Y-111428854D01*
X144574354Y-111554353D01*
X144426784Y-111652956D01*
X144262812Y-111720876D01*
X144113512Y-111750573D01*
X144088742Y-111755500D01*
X143911258Y-111755500D01*
X143886488Y-111750573D01*
X143737188Y-111720876D01*
X143573216Y-111652956D01*
X143425646Y-111554353D01*
X143300147Y-111428854D01*
X143201544Y-111281284D01*
X143133624Y-111117312D01*
X143099000Y-110943241D01*
X143099000Y-110765759D01*
X143133624Y-110591688D01*
X143201544Y-110427716D01*
X143300147Y-110280146D01*
X143425646Y-110154647D01*
X143573216Y-110056044D01*
X143737188Y-109988124D01*
X143886488Y-109958427D01*
X143911258Y-109953500D01*
X144088742Y-109953500D01*
X144113512Y-109958427D01*
G37*
G36*
X155823228Y-108274703D02*
G01*
X155978100Y-108338853D01*
X156117481Y-108431985D01*
X156236015Y-108550519D01*
X156329147Y-108689900D01*
X156393297Y-108844772D01*
X156426000Y-109009184D01*
X156426000Y-109176816D01*
X156393297Y-109341228D01*
X156329147Y-109496100D01*
X156236015Y-109635481D01*
X156117481Y-109754015D01*
X155978100Y-109847147D01*
X155823228Y-109911297D01*
X155658816Y-109944000D01*
X155491184Y-109944000D01*
X155326772Y-109911297D01*
X155171900Y-109847147D01*
X155032519Y-109754015D01*
X154913985Y-109635481D01*
X154820853Y-109496100D01*
X154756703Y-109341228D01*
X154724000Y-109176816D01*
X154724000Y-109009184D01*
X154756703Y-108844772D01*
X154820853Y-108689900D01*
X154913985Y-108550519D01*
X155032519Y-108431985D01*
X155171900Y-108338853D01*
X155326772Y-108274703D01*
X155491184Y-108242000D01*
X155658816Y-108242000D01*
X155823228Y-108274703D01*
G37*
G36*
X171063228Y-108274703D02*
G01*
X171218100Y-108338853D01*
X171357481Y-108431985D01*
X171476015Y-108550519D01*
X171569147Y-108689900D01*
X171633297Y-108844772D01*
X171666000Y-109009184D01*
X171666000Y-109176816D01*
X171633297Y-109341228D01*
X171569147Y-109496100D01*
X171476015Y-109635481D01*
X171357481Y-109754015D01*
X171218100Y-109847147D01*
X171063228Y-109911297D01*
X170898816Y-109944000D01*
X170731184Y-109944000D01*
X170566772Y-109911297D01*
X170411900Y-109847147D01*
X170272519Y-109754015D01*
X170153985Y-109635481D01*
X170060853Y-109496100D01*
X169996703Y-109341228D01*
X169964000Y-109176816D01*
X169964000Y-109009184D01*
X169996703Y-108844772D01*
X170060853Y-108689900D01*
X170153985Y-108550519D01*
X170272519Y-108431985D01*
X170411900Y-108338853D01*
X170566772Y-108274703D01*
X170731184Y-108242000D01*
X170898816Y-108242000D01*
X171063228Y-108274703D01*
G37*
G36*
X144113512Y-107418427D02*
G01*
X144262812Y-107448124D01*
X144426784Y-107516044D01*
X144574354Y-107614647D01*
X144699853Y-107740146D01*
X144798456Y-107887716D01*
X144866376Y-108051688D01*
X144901000Y-108225759D01*
X144901000Y-108403241D01*
X144866376Y-108577312D01*
X144798456Y-108741284D01*
X144699853Y-108888854D01*
X144574354Y-109014353D01*
X144426784Y-109112956D01*
X144262812Y-109180876D01*
X144113512Y-109210573D01*
X144088742Y-109215500D01*
X143911258Y-109215500D01*
X143886488Y-109210573D01*
X143737188Y-109180876D01*
X143573216Y-109112956D01*
X143425646Y-109014353D01*
X143300147Y-108888854D01*
X143201544Y-108741284D01*
X143133624Y-108577312D01*
X143099000Y-108403241D01*
X143099000Y-108225759D01*
X143133624Y-108051688D01*
X143201544Y-107887716D01*
X143300147Y-107740146D01*
X143425646Y-107614647D01*
X143573216Y-107516044D01*
X143737188Y-107448124D01*
X143886488Y-107418427D01*
X143911258Y-107413500D01*
X144088742Y-107413500D01*
X144113512Y-107418427D01*
G37*
G36*
X149113512Y-107418427D02*
G01*
X149262812Y-107448124D01*
X149426784Y-107516044D01*
X149574354Y-107614647D01*
X149699853Y-107740146D01*
X149798456Y-107887716D01*
X149866376Y-108051688D01*
X149901000Y-108225759D01*
X149901000Y-108403241D01*
X149866376Y-108577312D01*
X149798456Y-108741284D01*
X149699853Y-108888854D01*
X149574354Y-109014353D01*
X149426784Y-109112956D01*
X149262812Y-109180876D01*
X149113512Y-109210573D01*
X149088742Y-109215500D01*
X148911258Y-109215500D01*
X148886488Y-109210573D01*
X148737188Y-109180876D01*
X148573216Y-109112956D01*
X148425646Y-109014353D01*
X148300147Y-108888854D01*
X148201544Y-108741284D01*
X148133624Y-108577312D01*
X148099000Y-108403241D01*
X148099000Y-108225759D01*
X148133624Y-108051688D01*
X148201544Y-107887716D01*
X148300147Y-107740146D01*
X148425646Y-107614647D01*
X148573216Y-107516044D01*
X148737188Y-107448124D01*
X148886488Y-107418427D01*
X148911258Y-107413500D01*
X149088742Y-107413500D01*
X149113512Y-107418427D01*
G37*
G36*
X155823228Y-105734703D02*
G01*
X155978100Y-105798853D01*
X156117481Y-105891985D01*
X156236015Y-106010519D01*
X156329147Y-106149900D01*
X156393297Y-106304772D01*
X156426000Y-106469184D01*
X156426000Y-106636816D01*
X156393297Y-106801228D01*
X156329147Y-106956100D01*
X156236015Y-107095481D01*
X156117481Y-107214015D01*
X155978100Y-107307147D01*
X155823228Y-107371297D01*
X155658816Y-107404000D01*
X155491184Y-107404000D01*
X155326772Y-107371297D01*
X155171900Y-107307147D01*
X155032519Y-107214015D01*
X154913985Y-107095481D01*
X154820853Y-106956100D01*
X154756703Y-106801228D01*
X154724000Y-106636816D01*
X154724000Y-106469184D01*
X154756703Y-106304772D01*
X154820853Y-106149900D01*
X154913985Y-106010519D01*
X155032519Y-105891985D01*
X155171900Y-105798853D01*
X155326772Y-105734703D01*
X155491184Y-105702000D01*
X155658816Y-105702000D01*
X155823228Y-105734703D01*
G37*
G36*
X171063228Y-105734703D02*
G01*
X171218100Y-105798853D01*
X171357481Y-105891985D01*
X171476015Y-106010519D01*
X171569147Y-106149900D01*
X171633297Y-106304772D01*
X171666000Y-106469184D01*
X171666000Y-106636816D01*
X171633297Y-106801228D01*
X171569147Y-106956100D01*
X171476015Y-107095481D01*
X171357481Y-107214015D01*
X171218100Y-107307147D01*
X171063228Y-107371297D01*
X170898816Y-107404000D01*
X170731184Y-107404000D01*
X170566772Y-107371297D01*
X170411900Y-107307147D01*
X170272519Y-107214015D01*
X170153985Y-107095481D01*
X170060853Y-106956100D01*
X169996703Y-106801228D01*
X169964000Y-106636816D01*
X169964000Y-106469184D01*
X169996703Y-106304772D01*
X170060853Y-106149900D01*
X170153985Y-106010519D01*
X170272519Y-105891985D01*
X170411900Y-105798853D01*
X170566772Y-105734703D01*
X170731184Y-105702000D01*
X170898816Y-105702000D01*
X171063228Y-105734703D01*
G37*
G36*
X149113512Y-104878427D02*
G01*
X149262812Y-104908124D01*
X149426784Y-104976044D01*
X149574354Y-105074647D01*
X149699853Y-105200146D01*
X149798456Y-105347716D01*
X149866376Y-105511688D01*
X149901000Y-105685759D01*
X149901000Y-105863241D01*
X149866376Y-106037312D01*
X149798456Y-106201284D01*
X149699853Y-106348854D01*
X149574354Y-106474353D01*
X149426784Y-106572956D01*
X149262812Y-106640876D01*
X149113512Y-106670573D01*
X149088742Y-106675500D01*
X148911258Y-106675500D01*
X148886488Y-106670573D01*
X148737188Y-106640876D01*
X148573216Y-106572956D01*
X148425646Y-106474353D01*
X148300147Y-106348854D01*
X148201544Y-106201284D01*
X148133624Y-106037312D01*
X148099000Y-105863241D01*
X148099000Y-105685759D01*
X148133624Y-105511688D01*
X148201544Y-105347716D01*
X148300147Y-105200146D01*
X148425646Y-105074647D01*
X148573216Y-104976044D01*
X148737188Y-104908124D01*
X148886488Y-104878427D01*
X148911258Y-104873500D01*
X149088742Y-104873500D01*
X149113512Y-104878427D01*
G37*
G36*
X144113512Y-104878427D02*
G01*
X144262812Y-104908124D01*
X144426784Y-104976044D01*
X144574354Y-105074647D01*
X144699853Y-105200146D01*
X144798456Y-105347716D01*
X144866376Y-105511688D01*
X144901000Y-105685759D01*
X144901000Y-105863241D01*
X144866376Y-106037312D01*
X144798456Y-106201284D01*
X144699853Y-106348854D01*
X144574354Y-106474353D01*
X144426784Y-106572956D01*
X144262812Y-106640876D01*
X144113512Y-106670573D01*
X144088742Y-106675500D01*
X143911258Y-106675500D01*
X143886488Y-106670573D01*
X143737188Y-106640876D01*
X143573216Y-106572956D01*
X143425646Y-106474353D01*
X143300147Y-106348854D01*
X143201544Y-106201284D01*
X143133624Y-106037312D01*
X143099000Y-105863241D01*
X143099000Y-105685759D01*
X143133624Y-105511688D01*
X143201544Y-105347716D01*
X143300147Y-105200146D01*
X143425646Y-105074647D01*
X143573216Y-104976044D01*
X143737188Y-104908124D01*
X143886488Y-104878427D01*
X143911258Y-104873500D01*
X144088742Y-104873500D01*
X144113512Y-104878427D01*
G37*
G36*
X155823228Y-103194703D02*
G01*
X155978100Y-103258853D01*
X156117481Y-103351985D01*
X156236015Y-103470519D01*
X156329147Y-103609900D01*
X156393297Y-103764772D01*
X156426000Y-103929184D01*
X156426000Y-104096816D01*
X156393297Y-104261228D01*
X156329147Y-104416100D01*
X156236015Y-104555481D01*
X156117481Y-104674015D01*
X155978100Y-104767147D01*
X155823228Y-104831297D01*
X155658816Y-104864000D01*
X155491184Y-104864000D01*
X155326772Y-104831297D01*
X155171900Y-104767147D01*
X155032519Y-104674015D01*
X154913985Y-104555481D01*
X154820853Y-104416100D01*
X154756703Y-104261228D01*
X154724000Y-104096816D01*
X154724000Y-103929184D01*
X154756703Y-103764772D01*
X154820853Y-103609900D01*
X154913985Y-103470519D01*
X155032519Y-103351985D01*
X155171900Y-103258853D01*
X155326772Y-103194703D01*
X155491184Y-103162000D01*
X155658816Y-103162000D01*
X155823228Y-103194703D01*
G37*
G36*
X171063228Y-103194703D02*
G01*
X171218100Y-103258853D01*
X171357481Y-103351985D01*
X171476015Y-103470519D01*
X171569147Y-103609900D01*
X171633297Y-103764772D01*
X171666000Y-103929184D01*
X171666000Y-104096816D01*
X171633297Y-104261228D01*
X171569147Y-104416100D01*
X171476015Y-104555481D01*
X171357481Y-104674015D01*
X171218100Y-104767147D01*
X171063228Y-104831297D01*
X170898816Y-104864000D01*
X170731184Y-104864000D01*
X170566772Y-104831297D01*
X170411900Y-104767147D01*
X170272519Y-104674015D01*
X170153985Y-104555481D01*
X170060853Y-104416100D01*
X169996703Y-104261228D01*
X169964000Y-104096816D01*
X169964000Y-103929184D01*
X169996703Y-103764772D01*
X170060853Y-103609900D01*
X170153985Y-103470519D01*
X170272519Y-103351985D01*
X170411900Y-103258853D01*
X170566772Y-103194703D01*
X170731184Y-103162000D01*
X170898816Y-103162000D01*
X171063228Y-103194703D01*
G37*
G36*
X149113512Y-102338427D02*
G01*
X149262812Y-102368124D01*
X149426784Y-102436044D01*
X149574354Y-102534647D01*
X149699853Y-102660146D01*
X149798456Y-102807716D01*
X149866376Y-102971688D01*
X149901000Y-103145759D01*
X149901000Y-103323241D01*
X149866376Y-103497312D01*
X149798456Y-103661284D01*
X149699853Y-103808854D01*
X149574354Y-103934353D01*
X149426784Y-104032956D01*
X149262812Y-104100876D01*
X149113512Y-104130573D01*
X149088742Y-104135500D01*
X148911258Y-104135500D01*
X148886488Y-104130573D01*
X148737188Y-104100876D01*
X148573216Y-104032956D01*
X148425646Y-103934353D01*
X148300147Y-103808854D01*
X148201544Y-103661284D01*
X148133624Y-103497312D01*
X148099000Y-103323241D01*
X148099000Y-103145759D01*
X148133624Y-102971688D01*
X148201544Y-102807716D01*
X148300147Y-102660146D01*
X148425646Y-102534647D01*
X148573216Y-102436044D01*
X148737188Y-102368124D01*
X148886488Y-102338427D01*
X148911258Y-102333500D01*
X149088742Y-102333500D01*
X149113512Y-102338427D01*
G37*
G36*
X144113512Y-102338427D02*
G01*
X144262812Y-102368124D01*
X144426784Y-102436044D01*
X144574354Y-102534647D01*
X144699853Y-102660146D01*
X144798456Y-102807716D01*
X144866376Y-102971688D01*
X144901000Y-103145759D01*
X144901000Y-103323241D01*
X144866376Y-103497312D01*
X144798456Y-103661284D01*
X144699853Y-103808854D01*
X144574354Y-103934353D01*
X144426784Y-104032956D01*
X144262812Y-104100876D01*
X144113512Y-104130573D01*
X144088742Y-104135500D01*
X143911258Y-104135500D01*
X143886488Y-104130573D01*
X143737188Y-104100876D01*
X143573216Y-104032956D01*
X143425646Y-103934353D01*
X143300147Y-103808854D01*
X143201544Y-103661284D01*
X143133624Y-103497312D01*
X143099000Y-103323241D01*
X143099000Y-103145759D01*
X143133624Y-102971688D01*
X143201544Y-102807716D01*
X143300147Y-102660146D01*
X143425646Y-102534647D01*
X143573216Y-102436044D01*
X143737188Y-102368124D01*
X143886488Y-102338427D01*
X143911258Y-102333500D01*
X144088742Y-102333500D01*
X144113512Y-102338427D01*
G37*
G36*
X181559000Y-103009000D02*
G01*
X179757000Y-103009000D01*
X179757000Y-101207000D01*
X181559000Y-101207000D01*
X181559000Y-103009000D01*
G37*
G36*
X185851512Y-101211927D02*
G01*
X186000812Y-101241624D01*
X186164784Y-101309544D01*
X186312354Y-101408147D01*
X186437853Y-101533646D01*
X186536456Y-101681216D01*
X186604376Y-101845188D01*
X186639000Y-102019259D01*
X186639000Y-102196741D01*
X186604376Y-102370812D01*
X186536456Y-102534784D01*
X186437853Y-102682354D01*
X186312354Y-102807853D01*
X186164784Y-102906456D01*
X186000812Y-102974376D01*
X185851512Y-103004073D01*
X185826742Y-103009000D01*
X185649258Y-103009000D01*
X185624488Y-103004073D01*
X185475188Y-102974376D01*
X185311216Y-102906456D01*
X185163646Y-102807853D01*
X185038147Y-102682354D01*
X184939544Y-102534784D01*
X184871624Y-102370812D01*
X184837000Y-102196741D01*
X184837000Y-102019259D01*
X184871624Y-101845188D01*
X184939544Y-101681216D01*
X185038147Y-101533646D01*
X185163646Y-101408147D01*
X185311216Y-101309544D01*
X185475188Y-101241624D01*
X185624488Y-101211927D01*
X185649258Y-101207000D01*
X185826742Y-101207000D01*
X185851512Y-101211927D01*
G37*
G36*
X183311512Y-101211927D02*
G01*
X183460812Y-101241624D01*
X183624784Y-101309544D01*
X183772354Y-101408147D01*
X183897853Y-101533646D01*
X183996456Y-101681216D01*
X184064376Y-101845188D01*
X184099000Y-102019259D01*
X184099000Y-102196741D01*
X184064376Y-102370812D01*
X183996456Y-102534784D01*
X183897853Y-102682354D01*
X183772354Y-102807853D01*
X183624784Y-102906456D01*
X183460812Y-102974376D01*
X183311512Y-103004073D01*
X183286742Y-103009000D01*
X183109258Y-103009000D01*
X183084488Y-103004073D01*
X182935188Y-102974376D01*
X182771216Y-102906456D01*
X182623646Y-102807853D01*
X182498147Y-102682354D01*
X182399544Y-102534784D01*
X182331624Y-102370812D01*
X182297000Y-102196741D01*
X182297000Y-102019259D01*
X182331624Y-101845188D01*
X182399544Y-101681216D01*
X182498147Y-101533646D01*
X182623646Y-101408147D01*
X182771216Y-101309544D01*
X182935188Y-101241624D01*
X183084488Y-101211927D01*
X183109258Y-101207000D01*
X183286742Y-101207000D01*
X183311512Y-101211927D01*
G37*
G36*
X155823228Y-100654703D02*
G01*
X155978100Y-100718853D01*
X156117481Y-100811985D01*
X156236015Y-100930519D01*
X156329147Y-101069900D01*
X156393297Y-101224772D01*
X156426000Y-101389184D01*
X156426000Y-101556816D01*
X156393297Y-101721228D01*
X156329147Y-101876100D01*
X156236015Y-102015481D01*
X156117481Y-102134015D01*
X155978100Y-102227147D01*
X155823228Y-102291297D01*
X155658816Y-102324000D01*
X155491184Y-102324000D01*
X155326772Y-102291297D01*
X155171900Y-102227147D01*
X155032519Y-102134015D01*
X154913985Y-102015481D01*
X154820853Y-101876100D01*
X154756703Y-101721228D01*
X154724000Y-101556816D01*
X154724000Y-101389184D01*
X154756703Y-101224772D01*
X154820853Y-101069900D01*
X154913985Y-100930519D01*
X155032519Y-100811985D01*
X155171900Y-100718853D01*
X155326772Y-100654703D01*
X155491184Y-100622000D01*
X155658816Y-100622000D01*
X155823228Y-100654703D01*
G37*
G36*
X171063228Y-100654703D02*
G01*
X171218100Y-100718853D01*
X171357481Y-100811985D01*
X171476015Y-100930519D01*
X171569147Y-101069900D01*
X171633297Y-101224772D01*
X171666000Y-101389184D01*
X171666000Y-101556816D01*
X171633297Y-101721228D01*
X171569147Y-101876100D01*
X171476015Y-102015481D01*
X171357481Y-102134015D01*
X171218100Y-102227147D01*
X171063228Y-102291297D01*
X170898816Y-102324000D01*
X170731184Y-102324000D01*
X170566772Y-102291297D01*
X170411900Y-102227147D01*
X170272519Y-102134015D01*
X170153985Y-102015481D01*
X170060853Y-101876100D01*
X169996703Y-101721228D01*
X169964000Y-101556816D01*
X169964000Y-101389184D01*
X169996703Y-101224772D01*
X170060853Y-101069900D01*
X170153985Y-100930519D01*
X170272519Y-100811985D01*
X170411900Y-100718853D01*
X170566772Y-100654703D01*
X170731184Y-100622000D01*
X170898816Y-100622000D01*
X171063228Y-100654703D01*
G37*
G36*
X144113512Y-99798427D02*
G01*
X144262812Y-99828124D01*
X144426784Y-99896044D01*
X144574354Y-99994647D01*
X144699853Y-100120146D01*
X144798456Y-100267716D01*
X144866376Y-100431688D01*
X144901000Y-100605759D01*
X144901000Y-100783241D01*
X144866376Y-100957312D01*
X144798456Y-101121284D01*
X144699853Y-101268854D01*
X144574354Y-101394353D01*
X144426784Y-101492956D01*
X144262812Y-101560876D01*
X144113512Y-101590573D01*
X144088742Y-101595500D01*
X143911258Y-101595500D01*
X143886488Y-101590573D01*
X143737188Y-101560876D01*
X143573216Y-101492956D01*
X143425646Y-101394353D01*
X143300147Y-101268854D01*
X143201544Y-101121284D01*
X143133624Y-100957312D01*
X143099000Y-100783241D01*
X143099000Y-100605759D01*
X143133624Y-100431688D01*
X143201544Y-100267716D01*
X143300147Y-100120146D01*
X143425646Y-99994647D01*
X143573216Y-99896044D01*
X143737188Y-99828124D01*
X143886488Y-99798427D01*
X143911258Y-99793500D01*
X144088742Y-99793500D01*
X144113512Y-99798427D01*
G37*
G36*
X149113512Y-99798427D02*
G01*
X149262812Y-99828124D01*
X149426784Y-99896044D01*
X149574354Y-99994647D01*
X149699853Y-100120146D01*
X149798456Y-100267716D01*
X149866376Y-100431688D01*
X149901000Y-100605759D01*
X149901000Y-100783241D01*
X149866376Y-100957312D01*
X149798456Y-101121284D01*
X149699853Y-101268854D01*
X149574354Y-101394353D01*
X149426784Y-101492956D01*
X149262812Y-101560876D01*
X149113512Y-101590573D01*
X149088742Y-101595500D01*
X148911258Y-101595500D01*
X148886488Y-101590573D01*
X148737188Y-101560876D01*
X148573216Y-101492956D01*
X148425646Y-101394353D01*
X148300147Y-101268854D01*
X148201544Y-101121284D01*
X148133624Y-100957312D01*
X148099000Y-100783241D01*
X148099000Y-100605759D01*
X148133624Y-100431688D01*
X148201544Y-100267716D01*
X148300147Y-100120146D01*
X148425646Y-99994647D01*
X148573216Y-99896044D01*
X148737188Y-99828124D01*
X148886488Y-99798427D01*
X148911258Y-99793500D01*
X149088742Y-99793500D01*
X149113512Y-99798427D01*
G37*
G36*
X171063228Y-98114703D02*
G01*
X171218100Y-98178853D01*
X171357481Y-98271985D01*
X171476015Y-98390519D01*
X171569147Y-98529900D01*
X171633297Y-98684772D01*
X171666000Y-98849184D01*
X171666000Y-99016816D01*
X171633297Y-99181228D01*
X171569147Y-99336100D01*
X171476015Y-99475481D01*
X171357481Y-99594015D01*
X171218100Y-99687147D01*
X171063228Y-99751297D01*
X170898816Y-99784000D01*
X170731184Y-99784000D01*
X170566772Y-99751297D01*
X170411900Y-99687147D01*
X170272519Y-99594015D01*
X170153985Y-99475481D01*
X170060853Y-99336100D01*
X169996703Y-99181228D01*
X169964000Y-99016816D01*
X169964000Y-98849184D01*
X169996703Y-98684772D01*
X170060853Y-98529900D01*
X170153985Y-98390519D01*
X170272519Y-98271985D01*
X170411900Y-98178853D01*
X170566772Y-98114703D01*
X170731184Y-98082000D01*
X170898816Y-98082000D01*
X171063228Y-98114703D01*
G37*
G36*
X155823228Y-98114703D02*
G01*
X155978100Y-98178853D01*
X156117481Y-98271985D01*
X156236015Y-98390519D01*
X156329147Y-98529900D01*
X156393297Y-98684772D01*
X156426000Y-98849184D01*
X156426000Y-99016816D01*
X156393297Y-99181228D01*
X156329147Y-99336100D01*
X156236015Y-99475481D01*
X156117481Y-99594015D01*
X155978100Y-99687147D01*
X155823228Y-99751297D01*
X155658816Y-99784000D01*
X155491184Y-99784000D01*
X155326772Y-99751297D01*
X155171900Y-99687147D01*
X155032519Y-99594015D01*
X154913985Y-99475481D01*
X154820853Y-99336100D01*
X154756703Y-99181228D01*
X154724000Y-99016816D01*
X154724000Y-98849184D01*
X154756703Y-98684772D01*
X154820853Y-98529900D01*
X154913985Y-98390519D01*
X155032519Y-98271985D01*
X155171900Y-98178853D01*
X155326772Y-98114703D01*
X155491184Y-98082000D01*
X155658816Y-98082000D01*
X155823228Y-98114703D01*
G37*
G36*
X149113512Y-97258427D02*
G01*
X149262812Y-97288124D01*
X149426784Y-97356044D01*
X149574354Y-97454647D01*
X149699853Y-97580146D01*
X149798456Y-97727716D01*
X149866376Y-97891688D01*
X149901000Y-98065759D01*
X149901000Y-98243241D01*
X149866376Y-98417312D01*
X149798456Y-98581284D01*
X149699853Y-98728854D01*
X149574354Y-98854353D01*
X149426784Y-98952956D01*
X149262812Y-99020876D01*
X149113512Y-99050573D01*
X149088742Y-99055500D01*
X148911258Y-99055500D01*
X148886488Y-99050573D01*
X148737188Y-99020876D01*
X148573216Y-98952956D01*
X148425646Y-98854353D01*
X148300147Y-98728854D01*
X148201544Y-98581284D01*
X148133624Y-98417312D01*
X148099000Y-98243241D01*
X148099000Y-98065759D01*
X148133624Y-97891688D01*
X148201544Y-97727716D01*
X148300147Y-97580146D01*
X148425646Y-97454647D01*
X148573216Y-97356044D01*
X148737188Y-97288124D01*
X148886488Y-97258427D01*
X148911258Y-97253500D01*
X149088742Y-97253500D01*
X149113512Y-97258427D01*
G37*
G36*
X144113512Y-97258427D02*
G01*
X144262812Y-97288124D01*
X144426784Y-97356044D01*
X144574354Y-97454647D01*
X144699853Y-97580146D01*
X144798456Y-97727716D01*
X144866376Y-97891688D01*
X144901000Y-98065759D01*
X144901000Y-98243241D01*
X144866376Y-98417312D01*
X144798456Y-98581284D01*
X144699853Y-98728854D01*
X144574354Y-98854353D01*
X144426784Y-98952956D01*
X144262812Y-99020876D01*
X144113512Y-99050573D01*
X144088742Y-99055500D01*
X143911258Y-99055500D01*
X143886488Y-99050573D01*
X143737188Y-99020876D01*
X143573216Y-98952956D01*
X143425646Y-98854353D01*
X143300147Y-98728854D01*
X143201544Y-98581284D01*
X143133624Y-98417312D01*
X143099000Y-98243241D01*
X143099000Y-98065759D01*
X143133624Y-97891688D01*
X143201544Y-97727716D01*
X143300147Y-97580146D01*
X143425646Y-97454647D01*
X143573216Y-97356044D01*
X143737188Y-97288124D01*
X143886488Y-97258427D01*
X143911258Y-97253500D01*
X144088742Y-97253500D01*
X144113512Y-97258427D01*
G37*
G36*
X156426000Y-97244000D02*
G01*
X154724000Y-97244000D01*
X154724000Y-95542000D01*
X156426000Y-95542000D01*
X156426000Y-97244000D01*
G37*
G36*
X171063228Y-95574703D02*
G01*
X171218100Y-95638853D01*
X171357481Y-95731985D01*
X171476015Y-95850519D01*
X171569147Y-95989900D01*
X171633297Y-96144772D01*
X171666000Y-96309184D01*
X171666000Y-96476816D01*
X171633297Y-96641228D01*
X171569147Y-96796100D01*
X171476015Y-96935481D01*
X171357481Y-97054015D01*
X171218100Y-97147147D01*
X171063228Y-97211297D01*
X170898816Y-97244000D01*
X170731184Y-97244000D01*
X170566772Y-97211297D01*
X170411900Y-97147147D01*
X170272519Y-97054015D01*
X170153985Y-96935481D01*
X170060853Y-96796100D01*
X169996703Y-96641228D01*
X169964000Y-96476816D01*
X169964000Y-96309184D01*
X169996703Y-96144772D01*
X170060853Y-95989900D01*
X170153985Y-95850519D01*
X170272519Y-95731985D01*
X170411900Y-95638853D01*
X170566772Y-95574703D01*
X170731184Y-95542000D01*
X170898816Y-95542000D01*
X171063228Y-95574703D01*
G37*
G36*
X185851512Y-95179427D02*
G01*
X186000812Y-95209124D01*
X186164784Y-95277044D01*
X186312354Y-95375647D01*
X186437853Y-95501146D01*
X186536456Y-95648716D01*
X186604376Y-95812688D01*
X186639000Y-95986759D01*
X186639000Y-96164241D01*
X186604376Y-96338312D01*
X186536456Y-96502284D01*
X186437853Y-96649854D01*
X186312354Y-96775353D01*
X186164784Y-96873956D01*
X186000812Y-96941876D01*
X185851512Y-96971573D01*
X185826742Y-96976500D01*
X185649258Y-96976500D01*
X185624488Y-96971573D01*
X185475188Y-96941876D01*
X185311216Y-96873956D01*
X185163646Y-96775353D01*
X185038147Y-96649854D01*
X184939544Y-96502284D01*
X184871624Y-96338312D01*
X184837000Y-96164241D01*
X184837000Y-95986759D01*
X184871624Y-95812688D01*
X184939544Y-95648716D01*
X185038147Y-95501146D01*
X185163646Y-95375647D01*
X185311216Y-95277044D01*
X185475188Y-95209124D01*
X185624488Y-95179427D01*
X185649258Y-95174500D01*
X185826742Y-95174500D01*
X185851512Y-95179427D01*
G37*
G36*
X183311512Y-95179427D02*
G01*
X183460812Y-95209124D01*
X183624784Y-95277044D01*
X183772354Y-95375647D01*
X183897853Y-95501146D01*
X183996456Y-95648716D01*
X184064376Y-95812688D01*
X184099000Y-95986759D01*
X184099000Y-96164241D01*
X184064376Y-96338312D01*
X183996456Y-96502284D01*
X183897853Y-96649854D01*
X183772354Y-96775353D01*
X183624784Y-96873956D01*
X183460812Y-96941876D01*
X183311512Y-96971573D01*
X183286742Y-96976500D01*
X183109258Y-96976500D01*
X183084488Y-96971573D01*
X182935188Y-96941876D01*
X182771216Y-96873956D01*
X182623646Y-96775353D01*
X182498147Y-96649854D01*
X182399544Y-96502284D01*
X182331624Y-96338312D01*
X182297000Y-96164241D01*
X182297000Y-95986759D01*
X182331624Y-95812688D01*
X182399544Y-95648716D01*
X182498147Y-95501146D01*
X182623646Y-95375647D01*
X182771216Y-95277044D01*
X182935188Y-95209124D01*
X183084488Y-95179427D01*
X183109258Y-95174500D01*
X183286742Y-95174500D01*
X183311512Y-95179427D01*
G37*
G36*
X181559000Y-96976500D02*
G01*
X179757000Y-96976500D01*
X179757000Y-95174500D01*
X181559000Y-95174500D01*
X181559000Y-96976500D01*
G37*
G36*
X149113512Y-94718427D02*
G01*
X149262812Y-94748124D01*
X149426784Y-94816044D01*
X149574354Y-94914647D01*
X149699853Y-95040146D01*
X149798456Y-95187716D01*
X149866376Y-95351688D01*
X149901000Y-95525759D01*
X149901000Y-95703241D01*
X149866376Y-95877312D01*
X149798456Y-96041284D01*
X149699853Y-96188854D01*
X149574354Y-96314353D01*
X149426784Y-96412956D01*
X149262812Y-96480876D01*
X149113512Y-96510573D01*
X149088742Y-96515500D01*
X148911258Y-96515500D01*
X148886488Y-96510573D01*
X148737188Y-96480876D01*
X148573216Y-96412956D01*
X148425646Y-96314353D01*
X148300147Y-96188854D01*
X148201544Y-96041284D01*
X148133624Y-95877312D01*
X148099000Y-95703241D01*
X148099000Y-95525759D01*
X148133624Y-95351688D01*
X148201544Y-95187716D01*
X148300147Y-95040146D01*
X148425646Y-94914647D01*
X148573216Y-94816044D01*
X148737188Y-94748124D01*
X148886488Y-94718427D01*
X148911258Y-94713500D01*
X149088742Y-94713500D01*
X149113512Y-94718427D01*
G37*
G36*
X144113512Y-94718427D02*
G01*
X144262812Y-94748124D01*
X144426784Y-94816044D01*
X144574354Y-94914647D01*
X144699853Y-95040146D01*
X144798456Y-95187716D01*
X144866376Y-95351688D01*
X144901000Y-95525759D01*
X144901000Y-95703241D01*
X144866376Y-95877312D01*
X144798456Y-96041284D01*
X144699853Y-96188854D01*
X144574354Y-96314353D01*
X144426784Y-96412956D01*
X144262812Y-96480876D01*
X144113512Y-96510573D01*
X144088742Y-96515500D01*
X143911258Y-96515500D01*
X143886488Y-96510573D01*
X143737188Y-96480876D01*
X143573216Y-96412956D01*
X143425646Y-96314353D01*
X143300147Y-96188854D01*
X143201544Y-96041284D01*
X143133624Y-95877312D01*
X143099000Y-95703241D01*
X143099000Y-95525759D01*
X143133624Y-95351688D01*
X143201544Y-95187716D01*
X143300147Y-95040146D01*
X143425646Y-94914647D01*
X143573216Y-94816044D01*
X143737188Y-94748124D01*
X143886488Y-94718427D01*
X143911258Y-94713500D01*
X144088742Y-94713500D01*
X144113512Y-94718427D01*
G37*
G36*
X144113512Y-92178427D02*
G01*
X144262812Y-92208124D01*
X144426784Y-92276044D01*
X144574354Y-92374647D01*
X144699853Y-92500146D01*
X144798456Y-92647716D01*
X144866376Y-92811688D01*
X144901000Y-92985759D01*
X144901000Y-93163241D01*
X144866376Y-93337312D01*
X144798456Y-93501284D01*
X144699853Y-93648854D01*
X144574354Y-93774353D01*
X144426784Y-93872956D01*
X144262812Y-93940876D01*
X144113512Y-93970573D01*
X144088742Y-93975500D01*
X143911258Y-93975500D01*
X143886488Y-93970573D01*
X143737188Y-93940876D01*
X143573216Y-93872956D01*
X143425646Y-93774353D01*
X143300147Y-93648854D01*
X143201544Y-93501284D01*
X143133624Y-93337312D01*
X143099000Y-93163241D01*
X143099000Y-92985759D01*
X143133624Y-92811688D01*
X143201544Y-92647716D01*
X143300147Y-92500146D01*
X143425646Y-92374647D01*
X143573216Y-92276044D01*
X143737188Y-92208124D01*
X143886488Y-92178427D01*
X143911258Y-92173500D01*
X144088742Y-92173500D01*
X144113512Y-92178427D01*
G37*
G36*
X149113512Y-92178427D02*
G01*
X149262812Y-92208124D01*
X149426784Y-92276044D01*
X149574354Y-92374647D01*
X149699853Y-92500146D01*
X149798456Y-92647716D01*
X149866376Y-92811688D01*
X149901000Y-92985759D01*
X149901000Y-93163241D01*
X149866376Y-93337312D01*
X149798456Y-93501284D01*
X149699853Y-93648854D01*
X149574354Y-93774353D01*
X149426784Y-93872956D01*
X149262812Y-93940876D01*
X149113512Y-93970573D01*
X149088742Y-93975500D01*
X148911258Y-93975500D01*
X148886488Y-93970573D01*
X148737188Y-93940876D01*
X148573216Y-93872956D01*
X148425646Y-93774353D01*
X148300147Y-93648854D01*
X148201544Y-93501284D01*
X148133624Y-93337312D01*
X148099000Y-93163241D01*
X148099000Y-92985759D01*
X148133624Y-92811688D01*
X148201544Y-92647716D01*
X148300147Y-92500146D01*
X148425646Y-92374647D01*
X148573216Y-92276044D01*
X148737188Y-92208124D01*
X148886488Y-92178427D01*
X148911258Y-92173500D01*
X149088742Y-92173500D01*
X149113512Y-92178427D01*
G37*
G36*
X149113512Y-89638427D02*
G01*
X149262812Y-89668124D01*
X149426784Y-89736044D01*
X149574354Y-89834647D01*
X149699853Y-89960146D01*
X149798456Y-90107716D01*
X149866376Y-90271688D01*
X149901000Y-90445759D01*
X149901000Y-90623241D01*
X149866376Y-90797312D01*
X149798456Y-90961284D01*
X149699853Y-91108854D01*
X149574354Y-91234353D01*
X149426784Y-91332956D01*
X149262812Y-91400876D01*
X149113512Y-91430573D01*
X149088742Y-91435500D01*
X148911258Y-91435500D01*
X148886488Y-91430573D01*
X148737188Y-91400876D01*
X148573216Y-91332956D01*
X148425646Y-91234353D01*
X148300147Y-91108854D01*
X148201544Y-90961284D01*
X148133624Y-90797312D01*
X148099000Y-90623241D01*
X148099000Y-90445759D01*
X148133624Y-90271688D01*
X148201544Y-90107716D01*
X148300147Y-89960146D01*
X148425646Y-89834647D01*
X148573216Y-89736044D01*
X148737188Y-89668124D01*
X148886488Y-89638427D01*
X148911258Y-89633500D01*
X149088742Y-89633500D01*
X149113512Y-89638427D01*
G37*
G36*
X144113512Y-89638427D02*
G01*
X144262812Y-89668124D01*
X144426784Y-89736044D01*
X144574354Y-89834647D01*
X144699853Y-89960146D01*
X144798456Y-90107716D01*
X144866376Y-90271688D01*
X144901000Y-90445759D01*
X144901000Y-90623241D01*
X144866376Y-90797312D01*
X144798456Y-90961284D01*
X144699853Y-91108854D01*
X144574354Y-91234353D01*
X144426784Y-91332956D01*
X144262812Y-91400876D01*
X144113512Y-91430573D01*
X144088742Y-91435500D01*
X143911258Y-91435500D01*
X143886488Y-91430573D01*
X143737188Y-91400876D01*
X143573216Y-91332956D01*
X143425646Y-91234353D01*
X143300147Y-91108854D01*
X143201544Y-90961284D01*
X143133624Y-90797312D01*
X143099000Y-90623241D01*
X143099000Y-90445759D01*
X143133624Y-90271688D01*
X143201544Y-90107716D01*
X143300147Y-89960146D01*
X143425646Y-89834647D01*
X143573216Y-89736044D01*
X143737188Y-89668124D01*
X143886488Y-89638427D01*
X143911258Y-89633500D01*
X144088742Y-89633500D01*
X144113512Y-89638427D01*
G37*
G36*
X144113512Y-87098427D02*
G01*
X144262812Y-87128124D01*
X144426784Y-87196044D01*
X144574354Y-87294647D01*
X144699853Y-87420146D01*
X144798456Y-87567716D01*
X144866376Y-87731688D01*
X144901000Y-87905759D01*
X144901000Y-88083241D01*
X144866376Y-88257312D01*
X144798456Y-88421284D01*
X144699853Y-88568854D01*
X144574354Y-88694353D01*
X144426784Y-88792956D01*
X144262812Y-88860876D01*
X144113512Y-88890573D01*
X144088742Y-88895500D01*
X143911258Y-88895500D01*
X143886488Y-88890573D01*
X143737188Y-88860876D01*
X143573216Y-88792956D01*
X143425646Y-88694353D01*
X143300147Y-88568854D01*
X143201544Y-88421284D01*
X143133624Y-88257312D01*
X143099000Y-88083241D01*
X143099000Y-87905759D01*
X143133624Y-87731688D01*
X143201544Y-87567716D01*
X143300147Y-87420146D01*
X143425646Y-87294647D01*
X143573216Y-87196044D01*
X143737188Y-87128124D01*
X143886488Y-87098427D01*
X143911258Y-87093500D01*
X144088742Y-87093500D01*
X144113512Y-87098427D01*
G37*
G36*
X149113512Y-87098427D02*
G01*
X149262812Y-87128124D01*
X149426784Y-87196044D01*
X149574354Y-87294647D01*
X149699853Y-87420146D01*
X149798456Y-87567716D01*
X149866376Y-87731688D01*
X149901000Y-87905759D01*
X149901000Y-88083241D01*
X149866376Y-88257312D01*
X149798456Y-88421284D01*
X149699853Y-88568854D01*
X149574354Y-88694353D01*
X149426784Y-88792956D01*
X149262812Y-88860876D01*
X149113512Y-88890573D01*
X149088742Y-88895500D01*
X148911258Y-88895500D01*
X148886488Y-88890573D01*
X148737188Y-88860876D01*
X148573216Y-88792956D01*
X148425646Y-88694353D01*
X148300147Y-88568854D01*
X148201544Y-88421284D01*
X148133624Y-88257312D01*
X148099000Y-88083241D01*
X148099000Y-87905759D01*
X148133624Y-87731688D01*
X148201544Y-87567716D01*
X148300147Y-87420146D01*
X148425646Y-87294647D01*
X148573216Y-87196044D01*
X148737188Y-87128124D01*
X148886488Y-87098427D01*
X148911258Y-87093500D01*
X149088742Y-87093500D01*
X149113512Y-87098427D01*
G37*
G36*
X177096228Y-85922703D02*
G01*
X177251100Y-85986853D01*
X177390481Y-86079985D01*
X177509015Y-86198519D01*
X177602147Y-86337900D01*
X177666297Y-86492772D01*
X177699000Y-86657184D01*
X177699000Y-86824816D01*
X177666297Y-86989228D01*
X177602147Y-87144100D01*
X177509015Y-87283481D01*
X177390481Y-87402015D01*
X177251100Y-87495147D01*
X177096228Y-87559297D01*
X176931816Y-87592000D01*
X176764184Y-87592000D01*
X176599772Y-87559297D01*
X176444900Y-87495147D01*
X176305519Y-87402015D01*
X176186985Y-87283481D01*
X176093853Y-87144100D01*
X176029703Y-86989228D01*
X175997000Y-86824816D01*
X175997000Y-86657184D01*
X176029703Y-86492772D01*
X176093853Y-86337900D01*
X176186985Y-86198519D01*
X176305519Y-86079985D01*
X176444900Y-85986853D01*
X176599772Y-85922703D01*
X176764184Y-85890000D01*
X176931816Y-85890000D01*
X177096228Y-85922703D01*
G37*
G36*
X172096228Y-85922703D02*
G01*
X172251100Y-85986853D01*
X172390481Y-86079985D01*
X172509015Y-86198519D01*
X172602147Y-86337900D01*
X172666297Y-86492772D01*
X172699000Y-86657184D01*
X172699000Y-86824816D01*
X172666297Y-86989228D01*
X172602147Y-87144100D01*
X172509015Y-87283481D01*
X172390481Y-87402015D01*
X172251100Y-87495147D01*
X172096228Y-87559297D01*
X171931816Y-87592000D01*
X171764184Y-87592000D01*
X171599772Y-87559297D01*
X171444900Y-87495147D01*
X171305519Y-87402015D01*
X171186985Y-87283481D01*
X171093853Y-87144100D01*
X171029703Y-86989228D01*
X170997000Y-86824816D01*
X170997000Y-86657184D01*
X171029703Y-86492772D01*
X171093853Y-86337900D01*
X171186985Y-86198519D01*
X171305519Y-86079985D01*
X171444900Y-85986853D01*
X171599772Y-85922703D01*
X171764184Y-85890000D01*
X171931816Y-85890000D01*
X172096228Y-85922703D01*
G37*
G36*
X149113512Y-84558427D02*
G01*
X149262812Y-84588124D01*
X149426784Y-84656044D01*
X149574354Y-84754647D01*
X149699853Y-84880146D01*
X149798456Y-85027716D01*
X149866376Y-85191688D01*
X149901000Y-85365759D01*
X149901000Y-85543241D01*
X149866376Y-85717312D01*
X149798456Y-85881284D01*
X149699853Y-86028854D01*
X149574354Y-86154353D01*
X149426784Y-86252956D01*
X149262812Y-86320876D01*
X149113512Y-86350573D01*
X149088742Y-86355500D01*
X148911258Y-86355500D01*
X148886488Y-86350573D01*
X148737188Y-86320876D01*
X148573216Y-86252956D01*
X148425646Y-86154353D01*
X148300147Y-86028854D01*
X148201544Y-85881284D01*
X148133624Y-85717312D01*
X148099000Y-85543241D01*
X148099000Y-85365759D01*
X148133624Y-85191688D01*
X148201544Y-85027716D01*
X148300147Y-84880146D01*
X148425646Y-84754647D01*
X148573216Y-84656044D01*
X148737188Y-84588124D01*
X148886488Y-84558427D01*
X148911258Y-84553500D01*
X149088742Y-84553500D01*
X149113512Y-84558427D01*
G37*
G36*
X144113512Y-84558427D02*
G01*
X144262812Y-84588124D01*
X144426784Y-84656044D01*
X144574354Y-84754647D01*
X144699853Y-84880146D01*
X144798456Y-85027716D01*
X144866376Y-85191688D01*
X144901000Y-85365759D01*
X144901000Y-85543241D01*
X144866376Y-85717312D01*
X144798456Y-85881284D01*
X144699853Y-86028854D01*
X144574354Y-86154353D01*
X144426784Y-86252956D01*
X144262812Y-86320876D01*
X144113512Y-86350573D01*
X144088742Y-86355500D01*
X143911258Y-86355500D01*
X143886488Y-86350573D01*
X143737188Y-86320876D01*
X143573216Y-86252956D01*
X143425646Y-86154353D01*
X143300147Y-86028854D01*
X143201544Y-85881284D01*
X143133624Y-85717312D01*
X143099000Y-85543241D01*
X143099000Y-85365759D01*
X143133624Y-85191688D01*
X143201544Y-85027716D01*
X143300147Y-84880146D01*
X143425646Y-84754647D01*
X143573216Y-84656044D01*
X143737188Y-84588124D01*
X143886488Y-84558427D01*
X143911258Y-84553500D01*
X144088742Y-84553500D01*
X144113512Y-84558427D01*
G37*
G36*
X144113512Y-82018427D02*
G01*
X144262812Y-82048124D01*
X144426784Y-82116044D01*
X144574354Y-82214647D01*
X144699853Y-82340146D01*
X144798456Y-82487716D01*
X144866376Y-82651688D01*
X144901000Y-82825759D01*
X144901000Y-83003241D01*
X144866376Y-83177312D01*
X144798456Y-83341284D01*
X144699853Y-83488854D01*
X144574354Y-83614353D01*
X144426784Y-83712956D01*
X144262812Y-83780876D01*
X144113512Y-83810573D01*
X144088742Y-83815500D01*
X143911258Y-83815500D01*
X143886488Y-83810573D01*
X143737188Y-83780876D01*
X143573216Y-83712956D01*
X143425646Y-83614353D01*
X143300147Y-83488854D01*
X143201544Y-83341284D01*
X143133624Y-83177312D01*
X143099000Y-83003241D01*
X143099000Y-82825759D01*
X143133624Y-82651688D01*
X143201544Y-82487716D01*
X143300147Y-82340146D01*
X143425646Y-82214647D01*
X143573216Y-82116044D01*
X143737188Y-82048124D01*
X143886488Y-82018427D01*
X143911258Y-82013500D01*
X144088742Y-82013500D01*
X144113512Y-82018427D01*
G37*
G36*
X149113512Y-82018427D02*
G01*
X149262812Y-82048124D01*
X149426784Y-82116044D01*
X149574354Y-82214647D01*
X149699853Y-82340146D01*
X149798456Y-82487716D01*
X149866376Y-82651688D01*
X149901000Y-82825759D01*
X149901000Y-83003241D01*
X149866376Y-83177312D01*
X149798456Y-83341284D01*
X149699853Y-83488854D01*
X149574354Y-83614353D01*
X149426784Y-83712956D01*
X149262812Y-83780876D01*
X149113512Y-83810573D01*
X149088742Y-83815500D01*
X148911258Y-83815500D01*
X148886488Y-83810573D01*
X148737188Y-83780876D01*
X148573216Y-83712956D01*
X148425646Y-83614353D01*
X148300147Y-83488854D01*
X148201544Y-83341284D01*
X148133624Y-83177312D01*
X148099000Y-83003241D01*
X148099000Y-82825759D01*
X148133624Y-82651688D01*
X148201544Y-82487716D01*
X148300147Y-82340146D01*
X148425646Y-82214647D01*
X148573216Y-82116044D01*
X148737188Y-82048124D01*
X148886488Y-82018427D01*
X148911258Y-82013500D01*
X149088742Y-82013500D01*
X149113512Y-82018427D01*
G37*
G36*
X174873228Y-79826703D02*
G01*
X175028100Y-79890853D01*
X175167481Y-79983985D01*
X175286015Y-80102519D01*
X175379147Y-80241900D01*
X175443297Y-80396772D01*
X175476000Y-80561184D01*
X175476000Y-80728816D01*
X175443297Y-80893228D01*
X175379147Y-81048100D01*
X175286015Y-81187481D01*
X175167481Y-81306015D01*
X175028100Y-81399147D01*
X174873228Y-81463297D01*
X174708816Y-81496000D01*
X174541184Y-81496000D01*
X174376772Y-81463297D01*
X174221900Y-81399147D01*
X174082519Y-81306015D01*
X173963985Y-81187481D01*
X173870853Y-81048100D01*
X173806703Y-80893228D01*
X173774000Y-80728816D01*
X173774000Y-80561184D01*
X173806703Y-80396772D01*
X173870853Y-80241900D01*
X173963985Y-80102519D01*
X174082519Y-79983985D01*
X174221900Y-79890853D01*
X174376772Y-79826703D01*
X174541184Y-79794000D01*
X174708816Y-79794000D01*
X174873228Y-79826703D01*
G37*
G36*
X157093228Y-79826703D02*
G01*
X157248100Y-79890853D01*
X157387481Y-79983985D01*
X157506015Y-80102519D01*
X157599147Y-80241900D01*
X157663297Y-80396772D01*
X157696000Y-80561184D01*
X157696000Y-80728816D01*
X157663297Y-80893228D01*
X157599147Y-81048100D01*
X157506015Y-81187481D01*
X157387481Y-81306015D01*
X157248100Y-81399147D01*
X157093228Y-81463297D01*
X156928816Y-81496000D01*
X156761184Y-81496000D01*
X156596772Y-81463297D01*
X156441900Y-81399147D01*
X156302519Y-81306015D01*
X156183985Y-81187481D01*
X156090853Y-81048100D01*
X156026703Y-80893228D01*
X155994000Y-80728816D01*
X155994000Y-80561184D01*
X156026703Y-80396772D01*
X156090853Y-80241900D01*
X156183985Y-80102519D01*
X156302519Y-79983985D01*
X156441900Y-79890853D01*
X156596772Y-79826703D01*
X156761184Y-79794000D01*
X156928816Y-79794000D01*
X157093228Y-79826703D01*
G37*
G36*
X159633228Y-79826703D02*
G01*
X159788100Y-79890853D01*
X159927481Y-79983985D01*
X160046015Y-80102519D01*
X160139147Y-80241900D01*
X160203297Y-80396772D01*
X160236000Y-80561184D01*
X160236000Y-80728816D01*
X160203297Y-80893228D01*
X160139147Y-81048100D01*
X160046015Y-81187481D01*
X159927481Y-81306015D01*
X159788100Y-81399147D01*
X159633228Y-81463297D01*
X159468816Y-81496000D01*
X159301184Y-81496000D01*
X159136772Y-81463297D01*
X158981900Y-81399147D01*
X158842519Y-81306015D01*
X158723985Y-81187481D01*
X158630853Y-81048100D01*
X158566703Y-80893228D01*
X158534000Y-80728816D01*
X158534000Y-80561184D01*
X158566703Y-80396772D01*
X158630853Y-80241900D01*
X158723985Y-80102519D01*
X158842519Y-79983985D01*
X158981900Y-79890853D01*
X159136772Y-79826703D01*
X159301184Y-79794000D01*
X159468816Y-79794000D01*
X159633228Y-79826703D01*
G37*
G36*
X162173228Y-79826703D02*
G01*
X162328100Y-79890853D01*
X162467481Y-79983985D01*
X162586015Y-80102519D01*
X162679147Y-80241900D01*
X162743297Y-80396772D01*
X162776000Y-80561184D01*
X162776000Y-80728816D01*
X162743297Y-80893228D01*
X162679147Y-81048100D01*
X162586015Y-81187481D01*
X162467481Y-81306015D01*
X162328100Y-81399147D01*
X162173228Y-81463297D01*
X162008816Y-81496000D01*
X161841184Y-81496000D01*
X161676772Y-81463297D01*
X161521900Y-81399147D01*
X161382519Y-81306015D01*
X161263985Y-81187481D01*
X161170853Y-81048100D01*
X161106703Y-80893228D01*
X161074000Y-80728816D01*
X161074000Y-80561184D01*
X161106703Y-80396772D01*
X161170853Y-80241900D01*
X161263985Y-80102519D01*
X161382519Y-79983985D01*
X161521900Y-79890853D01*
X161676772Y-79826703D01*
X161841184Y-79794000D01*
X162008816Y-79794000D01*
X162173228Y-79826703D01*
G37*
G36*
X167253228Y-79826703D02*
G01*
X167408100Y-79890853D01*
X167547481Y-79983985D01*
X167666015Y-80102519D01*
X167759147Y-80241900D01*
X167823297Y-80396772D01*
X167856000Y-80561184D01*
X167856000Y-80728816D01*
X167823297Y-80893228D01*
X167759147Y-81048100D01*
X167666015Y-81187481D01*
X167547481Y-81306015D01*
X167408100Y-81399147D01*
X167253228Y-81463297D01*
X167088816Y-81496000D01*
X166921184Y-81496000D01*
X166756772Y-81463297D01*
X166601900Y-81399147D01*
X166462519Y-81306015D01*
X166343985Y-81187481D01*
X166250853Y-81048100D01*
X166186703Y-80893228D01*
X166154000Y-80728816D01*
X166154000Y-80561184D01*
X166186703Y-80396772D01*
X166250853Y-80241900D01*
X166343985Y-80102519D01*
X166462519Y-79983985D01*
X166601900Y-79890853D01*
X166756772Y-79826703D01*
X166921184Y-79794000D01*
X167088816Y-79794000D01*
X167253228Y-79826703D01*
G37*
G36*
X169793228Y-79826703D02*
G01*
X169948100Y-79890853D01*
X170087481Y-79983985D01*
X170206015Y-80102519D01*
X170299147Y-80241900D01*
X170363297Y-80396772D01*
X170396000Y-80561184D01*
X170396000Y-80728816D01*
X170363297Y-80893228D01*
X170299147Y-81048100D01*
X170206015Y-81187481D01*
X170087481Y-81306015D01*
X169948100Y-81399147D01*
X169793228Y-81463297D01*
X169628816Y-81496000D01*
X169461184Y-81496000D01*
X169296772Y-81463297D01*
X169141900Y-81399147D01*
X169002519Y-81306015D01*
X168883985Y-81187481D01*
X168790853Y-81048100D01*
X168726703Y-80893228D01*
X168694000Y-80728816D01*
X168694000Y-80561184D01*
X168726703Y-80396772D01*
X168790853Y-80241900D01*
X168883985Y-80102519D01*
X169002519Y-79983985D01*
X169141900Y-79890853D01*
X169296772Y-79826703D01*
X169461184Y-79794000D01*
X169628816Y-79794000D01*
X169793228Y-79826703D01*
G37*
G36*
X172333228Y-79826703D02*
G01*
X172488100Y-79890853D01*
X172627481Y-79983985D01*
X172746015Y-80102519D01*
X172839147Y-80241900D01*
X172903297Y-80396772D01*
X172936000Y-80561184D01*
X172936000Y-80728816D01*
X172903297Y-80893228D01*
X172839147Y-81048100D01*
X172746015Y-81187481D01*
X172627481Y-81306015D01*
X172488100Y-81399147D01*
X172333228Y-81463297D01*
X172168816Y-81496000D01*
X172001184Y-81496000D01*
X171836772Y-81463297D01*
X171681900Y-81399147D01*
X171542519Y-81306015D01*
X171423985Y-81187481D01*
X171330853Y-81048100D01*
X171266703Y-80893228D01*
X171234000Y-80728816D01*
X171234000Y-80561184D01*
X171266703Y-80396772D01*
X171330853Y-80241900D01*
X171423985Y-80102519D01*
X171542519Y-79983985D01*
X171681900Y-79890853D01*
X171836772Y-79826703D01*
X172001184Y-79794000D01*
X172168816Y-79794000D01*
X172333228Y-79826703D01*
G37*
G36*
X164713228Y-79826703D02*
G01*
X164868100Y-79890853D01*
X165007481Y-79983985D01*
X165126015Y-80102519D01*
X165219147Y-80241900D01*
X165283297Y-80396772D01*
X165316000Y-80561184D01*
X165316000Y-80728816D01*
X165283297Y-80893228D01*
X165219147Y-81048100D01*
X165126015Y-81187481D01*
X165007481Y-81306015D01*
X164868100Y-81399147D01*
X164713228Y-81463297D01*
X164548816Y-81496000D01*
X164381184Y-81496000D01*
X164216772Y-81463297D01*
X164061900Y-81399147D01*
X163922519Y-81306015D01*
X163803985Y-81187481D01*
X163710853Y-81048100D01*
X163646703Y-80893228D01*
X163614000Y-80728816D01*
X163614000Y-80561184D01*
X163646703Y-80396772D01*
X163710853Y-80241900D01*
X163803985Y-80102519D01*
X163922519Y-79983985D01*
X164061900Y-79890853D01*
X164216772Y-79826703D01*
X164381184Y-79794000D01*
X164548816Y-79794000D01*
X164713228Y-79826703D01*
G37*
G36*
X149113512Y-79478427D02*
G01*
X149262812Y-79508124D01*
X149426784Y-79576044D01*
X149574354Y-79674647D01*
X149699853Y-79800146D01*
X149798456Y-79947716D01*
X149866376Y-80111688D01*
X149901000Y-80285759D01*
X149901000Y-80463241D01*
X149866376Y-80637312D01*
X149798456Y-80801284D01*
X149699853Y-80948854D01*
X149574354Y-81074353D01*
X149426784Y-81172956D01*
X149262812Y-81240876D01*
X149113512Y-81270573D01*
X149088742Y-81275500D01*
X148911258Y-81275500D01*
X148886488Y-81270573D01*
X148737188Y-81240876D01*
X148573216Y-81172956D01*
X148425646Y-81074353D01*
X148300147Y-80948854D01*
X148201544Y-80801284D01*
X148133624Y-80637312D01*
X148099000Y-80463241D01*
X148099000Y-80285759D01*
X148133624Y-80111688D01*
X148201544Y-79947716D01*
X148300147Y-79800146D01*
X148425646Y-79674647D01*
X148573216Y-79576044D01*
X148737188Y-79508124D01*
X148886488Y-79478427D01*
X148911258Y-79473500D01*
X149088742Y-79473500D01*
X149113512Y-79478427D01*
G37*
G36*
X144113512Y-79478427D02*
G01*
X144262812Y-79508124D01*
X144426784Y-79576044D01*
X144574354Y-79674647D01*
X144699853Y-79800146D01*
X144798456Y-79947716D01*
X144866376Y-80111688D01*
X144901000Y-80285759D01*
X144901000Y-80463241D01*
X144866376Y-80637312D01*
X144798456Y-80801284D01*
X144699853Y-80948854D01*
X144574354Y-81074353D01*
X144426784Y-81172956D01*
X144262812Y-81240876D01*
X144113512Y-81270573D01*
X144088742Y-81275500D01*
X143911258Y-81275500D01*
X143886488Y-81270573D01*
X143737188Y-81240876D01*
X143573216Y-81172956D01*
X143425646Y-81074353D01*
X143300147Y-80948854D01*
X143201544Y-80801284D01*
X143133624Y-80637312D01*
X143099000Y-80463241D01*
X143099000Y-80285759D01*
X143133624Y-80111688D01*
X143201544Y-79947716D01*
X143300147Y-79800146D01*
X143425646Y-79674647D01*
X143573216Y-79576044D01*
X143737188Y-79508124D01*
X143886488Y-79478427D01*
X143911258Y-79473500D01*
X144088742Y-79473500D01*
X144113512Y-79478427D01*
G37*
G36*
X179318228Y-78730703D02*
G01*
X179473100Y-78794853D01*
X179612481Y-78887985D01*
X179731015Y-79006519D01*
X179824147Y-79145900D01*
X179888297Y-79300772D01*
X179921000Y-79465184D01*
X179921000Y-79632816D01*
X179888297Y-79797228D01*
X179824147Y-79952100D01*
X179731015Y-80091481D01*
X179612481Y-80210015D01*
X179473100Y-80303147D01*
X179318228Y-80367297D01*
X179153816Y-80400000D01*
X178986184Y-80400000D01*
X178821772Y-80367297D01*
X178666900Y-80303147D01*
X178527519Y-80210015D01*
X178408985Y-80091481D01*
X178315853Y-79952100D01*
X178251703Y-79797228D01*
X178219000Y-79632816D01*
X178219000Y-79465184D01*
X178251703Y-79300772D01*
X178315853Y-79145900D01*
X178408985Y-79006519D01*
X178527519Y-78887985D01*
X178666900Y-78794853D01*
X178821772Y-78730703D01*
X178986184Y-78698000D01*
X179153816Y-78698000D01*
X179318228Y-78730703D01*
G37*
G36*
X149113512Y-76938427D02*
G01*
X149262812Y-76968124D01*
X149426784Y-77036044D01*
X149574354Y-77134647D01*
X149699853Y-77260146D01*
X149798456Y-77407716D01*
X149866376Y-77571688D01*
X149901000Y-77745759D01*
X149901000Y-77923241D01*
X149866376Y-78097312D01*
X149798456Y-78261284D01*
X149699853Y-78408854D01*
X149574354Y-78534353D01*
X149426784Y-78632956D01*
X149262812Y-78700876D01*
X149113512Y-78730573D01*
X149088742Y-78735500D01*
X148911258Y-78735500D01*
X148886488Y-78730573D01*
X148737188Y-78700876D01*
X148573216Y-78632956D01*
X148425646Y-78534353D01*
X148300147Y-78408854D01*
X148201544Y-78261284D01*
X148133624Y-78097312D01*
X148099000Y-77923241D01*
X148099000Y-77745759D01*
X148133624Y-77571688D01*
X148201544Y-77407716D01*
X148300147Y-77260146D01*
X148425646Y-77134647D01*
X148573216Y-77036044D01*
X148737188Y-76968124D01*
X148886488Y-76938427D01*
X148911258Y-76933500D01*
X149088742Y-76933500D01*
X149113512Y-76938427D01*
G37*
G36*
X144113512Y-76938427D02*
G01*
X144262812Y-76968124D01*
X144426784Y-77036044D01*
X144574354Y-77134647D01*
X144699853Y-77260146D01*
X144798456Y-77407716D01*
X144866376Y-77571688D01*
X144901000Y-77745759D01*
X144901000Y-77923241D01*
X144866376Y-78097312D01*
X144798456Y-78261284D01*
X144699853Y-78408854D01*
X144574354Y-78534353D01*
X144426784Y-78632956D01*
X144262812Y-78700876D01*
X144113512Y-78730573D01*
X144088742Y-78735500D01*
X143911258Y-78735500D01*
X143886488Y-78730573D01*
X143737188Y-78700876D01*
X143573216Y-78632956D01*
X143425646Y-78534353D01*
X143300147Y-78408854D01*
X143201544Y-78261284D01*
X143133624Y-78097312D01*
X143099000Y-77923241D01*
X143099000Y-77745759D01*
X143133624Y-77571688D01*
X143201544Y-77407716D01*
X143300147Y-77260146D01*
X143425646Y-77134647D01*
X143573216Y-77036044D01*
X143737188Y-76968124D01*
X143886488Y-76938427D01*
X143911258Y-76933500D01*
X144088742Y-76933500D01*
X144113512Y-76938427D01*
G37*
G36*
X144113512Y-74398427D02*
G01*
X144262812Y-74428124D01*
X144426784Y-74496044D01*
X144574354Y-74594647D01*
X144699853Y-74720146D01*
X144798456Y-74867716D01*
X144866376Y-75031688D01*
X144901000Y-75205759D01*
X144901000Y-75383241D01*
X144866376Y-75557312D01*
X144798456Y-75721284D01*
X144699853Y-75868854D01*
X144574354Y-75994353D01*
X144426784Y-76092956D01*
X144262812Y-76160876D01*
X144113512Y-76190573D01*
X144088742Y-76195500D01*
X143911258Y-76195500D01*
X143886488Y-76190573D01*
X143737188Y-76160876D01*
X143573216Y-76092956D01*
X143425646Y-75994353D01*
X143300147Y-75868854D01*
X143201544Y-75721284D01*
X143133624Y-75557312D01*
X143099000Y-75383241D01*
X143099000Y-75205759D01*
X143133624Y-75031688D01*
X143201544Y-74867716D01*
X143300147Y-74720146D01*
X143425646Y-74594647D01*
X143573216Y-74496044D01*
X143737188Y-74428124D01*
X143886488Y-74398427D01*
X143911258Y-74393500D01*
X144088742Y-74393500D01*
X144113512Y-74398427D01*
G37*
G36*
X149113512Y-74398427D02*
G01*
X149262812Y-74428124D01*
X149426784Y-74496044D01*
X149574354Y-74594647D01*
X149699853Y-74720146D01*
X149798456Y-74867716D01*
X149866376Y-75031688D01*
X149901000Y-75205759D01*
X149901000Y-75383241D01*
X149866376Y-75557312D01*
X149798456Y-75721284D01*
X149699853Y-75868854D01*
X149574354Y-75994353D01*
X149426784Y-76092956D01*
X149262812Y-76160876D01*
X149113512Y-76190573D01*
X149088742Y-76195500D01*
X148911258Y-76195500D01*
X148886488Y-76190573D01*
X148737188Y-76160876D01*
X148573216Y-76092956D01*
X148425646Y-75994353D01*
X148300147Y-75868854D01*
X148201544Y-75721284D01*
X148133624Y-75557312D01*
X148099000Y-75383241D01*
X148099000Y-75205759D01*
X148133624Y-75031688D01*
X148201544Y-74867716D01*
X148300147Y-74720146D01*
X148425646Y-74594647D01*
X148573216Y-74496044D01*
X148737188Y-74428124D01*
X148886488Y-74398427D01*
X148911258Y-74393500D01*
X149088742Y-74393500D01*
X149113512Y-74398427D01*
G37*
G36*
X179318228Y-73730703D02*
G01*
X179473100Y-73794853D01*
X179612481Y-73887985D01*
X179731015Y-74006519D01*
X179824147Y-74145900D01*
X179888297Y-74300772D01*
X179921000Y-74465184D01*
X179921000Y-74632816D01*
X179888297Y-74797228D01*
X179824147Y-74952100D01*
X179731015Y-75091481D01*
X179612481Y-75210015D01*
X179473100Y-75303147D01*
X179318228Y-75367297D01*
X179153816Y-75400000D01*
X178986184Y-75400000D01*
X178821772Y-75367297D01*
X178666900Y-75303147D01*
X178527519Y-75210015D01*
X178408985Y-75091481D01*
X178315853Y-74952100D01*
X178251703Y-74797228D01*
X178219000Y-74632816D01*
X178219000Y-74465184D01*
X178251703Y-74300772D01*
X178315853Y-74145900D01*
X178408985Y-74006519D01*
X178527519Y-73887985D01*
X178666900Y-73794853D01*
X178821772Y-73730703D01*
X178986184Y-73698000D01*
X179153816Y-73698000D01*
X179318228Y-73730703D01*
G37*
G36*
X167253228Y-72206703D02*
G01*
X167408100Y-72270853D01*
X167547481Y-72363985D01*
X167666015Y-72482519D01*
X167759147Y-72621900D01*
X167823297Y-72776772D01*
X167856000Y-72941184D01*
X167856000Y-73108816D01*
X167823297Y-73273228D01*
X167759147Y-73428100D01*
X167666015Y-73567481D01*
X167547481Y-73686015D01*
X167408100Y-73779147D01*
X167253228Y-73843297D01*
X167088816Y-73876000D01*
X166921184Y-73876000D01*
X166756772Y-73843297D01*
X166601900Y-73779147D01*
X166462519Y-73686015D01*
X166343985Y-73567481D01*
X166250853Y-73428100D01*
X166186703Y-73273228D01*
X166154000Y-73108816D01*
X166154000Y-72941184D01*
X166186703Y-72776772D01*
X166250853Y-72621900D01*
X166343985Y-72482519D01*
X166462519Y-72363985D01*
X166601900Y-72270853D01*
X166756772Y-72206703D01*
X166921184Y-72174000D01*
X167088816Y-72174000D01*
X167253228Y-72206703D01*
G37*
G36*
X162173228Y-72206703D02*
G01*
X162328100Y-72270853D01*
X162467481Y-72363985D01*
X162586015Y-72482519D01*
X162679147Y-72621900D01*
X162743297Y-72776772D01*
X162776000Y-72941184D01*
X162776000Y-73108816D01*
X162743297Y-73273228D01*
X162679147Y-73428100D01*
X162586015Y-73567481D01*
X162467481Y-73686015D01*
X162328100Y-73779147D01*
X162173228Y-73843297D01*
X162008816Y-73876000D01*
X161841184Y-73876000D01*
X161676772Y-73843297D01*
X161521900Y-73779147D01*
X161382519Y-73686015D01*
X161263985Y-73567481D01*
X161170853Y-73428100D01*
X161106703Y-73273228D01*
X161074000Y-73108816D01*
X161074000Y-72941184D01*
X161106703Y-72776772D01*
X161170853Y-72621900D01*
X161263985Y-72482519D01*
X161382519Y-72363985D01*
X161521900Y-72270853D01*
X161676772Y-72206703D01*
X161841184Y-72174000D01*
X162008816Y-72174000D01*
X162173228Y-72206703D01*
G37*
G36*
X175476000Y-73876000D02*
G01*
X173774000Y-73876000D01*
X173774000Y-72174000D01*
X175476000Y-72174000D01*
X175476000Y-73876000D01*
G37*
G36*
X159633228Y-72206703D02*
G01*
X159788100Y-72270853D01*
X159927481Y-72363985D01*
X160046015Y-72482519D01*
X160139147Y-72621900D01*
X160203297Y-72776772D01*
X160236000Y-72941184D01*
X160236000Y-73108816D01*
X160203297Y-73273228D01*
X160139147Y-73428100D01*
X160046015Y-73567481D01*
X159927481Y-73686015D01*
X159788100Y-73779147D01*
X159633228Y-73843297D01*
X159468816Y-73876000D01*
X159301184Y-73876000D01*
X159136772Y-73843297D01*
X158981900Y-73779147D01*
X158842519Y-73686015D01*
X158723985Y-73567481D01*
X158630853Y-73428100D01*
X158566703Y-73273228D01*
X158534000Y-73108816D01*
X158534000Y-72941184D01*
X158566703Y-72776772D01*
X158630853Y-72621900D01*
X158723985Y-72482519D01*
X158842519Y-72363985D01*
X158981900Y-72270853D01*
X159136772Y-72206703D01*
X159301184Y-72174000D01*
X159468816Y-72174000D01*
X159633228Y-72206703D01*
G37*
G36*
X157093228Y-72206703D02*
G01*
X157248100Y-72270853D01*
X157387481Y-72363985D01*
X157506015Y-72482519D01*
X157599147Y-72621900D01*
X157663297Y-72776772D01*
X157696000Y-72941184D01*
X157696000Y-73108816D01*
X157663297Y-73273228D01*
X157599147Y-73428100D01*
X157506015Y-73567481D01*
X157387481Y-73686015D01*
X157248100Y-73779147D01*
X157093228Y-73843297D01*
X156928816Y-73876000D01*
X156761184Y-73876000D01*
X156596772Y-73843297D01*
X156441900Y-73779147D01*
X156302519Y-73686015D01*
X156183985Y-73567481D01*
X156090853Y-73428100D01*
X156026703Y-73273228D01*
X155994000Y-73108816D01*
X155994000Y-72941184D01*
X156026703Y-72776772D01*
X156090853Y-72621900D01*
X156183985Y-72482519D01*
X156302519Y-72363985D01*
X156441900Y-72270853D01*
X156596772Y-72206703D01*
X156761184Y-72174000D01*
X156928816Y-72174000D01*
X157093228Y-72206703D01*
G37*
G36*
X164713228Y-72206703D02*
G01*
X164868100Y-72270853D01*
X165007481Y-72363985D01*
X165126015Y-72482519D01*
X165219147Y-72621900D01*
X165283297Y-72776772D01*
X165316000Y-72941184D01*
X165316000Y-73108816D01*
X165283297Y-73273228D01*
X165219147Y-73428100D01*
X165126015Y-73567481D01*
X165007481Y-73686015D01*
X164868100Y-73779147D01*
X164713228Y-73843297D01*
X164548816Y-73876000D01*
X164381184Y-73876000D01*
X164216772Y-73843297D01*
X164061900Y-73779147D01*
X163922519Y-73686015D01*
X163803985Y-73567481D01*
X163710853Y-73428100D01*
X163646703Y-73273228D01*
X163614000Y-73108816D01*
X163614000Y-72941184D01*
X163646703Y-72776772D01*
X163710853Y-72621900D01*
X163803985Y-72482519D01*
X163922519Y-72363985D01*
X164061900Y-72270853D01*
X164216772Y-72206703D01*
X164381184Y-72174000D01*
X164548816Y-72174000D01*
X164713228Y-72206703D01*
G37*
G36*
X169793228Y-72206703D02*
G01*
X169948100Y-72270853D01*
X170087481Y-72363985D01*
X170206015Y-72482519D01*
X170299147Y-72621900D01*
X170363297Y-72776772D01*
X170396000Y-72941184D01*
X170396000Y-73108816D01*
X170363297Y-73273228D01*
X170299147Y-73428100D01*
X170206015Y-73567481D01*
X170087481Y-73686015D01*
X169948100Y-73779147D01*
X169793228Y-73843297D01*
X169628816Y-73876000D01*
X169461184Y-73876000D01*
X169296772Y-73843297D01*
X169141900Y-73779147D01*
X169002519Y-73686015D01*
X168883985Y-73567481D01*
X168790853Y-73428100D01*
X168726703Y-73273228D01*
X168694000Y-73108816D01*
X168694000Y-72941184D01*
X168726703Y-72776772D01*
X168790853Y-72621900D01*
X168883985Y-72482519D01*
X169002519Y-72363985D01*
X169141900Y-72270853D01*
X169296772Y-72206703D01*
X169461184Y-72174000D01*
X169628816Y-72174000D01*
X169793228Y-72206703D01*
G37*
G36*
X172333228Y-72206703D02*
G01*
X172488100Y-72270853D01*
X172627481Y-72363985D01*
X172746015Y-72482519D01*
X172839147Y-72621900D01*
X172903297Y-72776772D01*
X172936000Y-72941184D01*
X172936000Y-73108816D01*
X172903297Y-73273228D01*
X172839147Y-73428100D01*
X172746015Y-73567481D01*
X172627481Y-73686015D01*
X172488100Y-73779147D01*
X172333228Y-73843297D01*
X172168816Y-73876000D01*
X172001184Y-73876000D01*
X171836772Y-73843297D01*
X171681900Y-73779147D01*
X171542519Y-73686015D01*
X171423985Y-73567481D01*
X171330853Y-73428100D01*
X171266703Y-73273228D01*
X171234000Y-73108816D01*
X171234000Y-72941184D01*
X171266703Y-72776772D01*
X171330853Y-72621900D01*
X171423985Y-72482519D01*
X171542519Y-72363985D01*
X171681900Y-72270853D01*
X171836772Y-72206703D01*
X172001184Y-72174000D01*
X172168816Y-72174000D01*
X172333228Y-72206703D01*
G37*
G36*
X144113512Y-71858427D02*
G01*
X144262812Y-71888124D01*
X144426784Y-71956044D01*
X144574354Y-72054647D01*
X144699853Y-72180146D01*
X144798456Y-72327716D01*
X144866376Y-72491688D01*
X144901000Y-72665759D01*
X144901000Y-72843241D01*
X144866376Y-73017312D01*
X144798456Y-73181284D01*
X144699853Y-73328854D01*
X144574354Y-73454353D01*
X144426784Y-73552956D01*
X144262812Y-73620876D01*
X144113512Y-73650573D01*
X144088742Y-73655500D01*
X143911258Y-73655500D01*
X143886488Y-73650573D01*
X143737188Y-73620876D01*
X143573216Y-73552956D01*
X143425646Y-73454353D01*
X143300147Y-73328854D01*
X143201544Y-73181284D01*
X143133624Y-73017312D01*
X143099000Y-72843241D01*
X143099000Y-72665759D01*
X143133624Y-72491688D01*
X143201544Y-72327716D01*
X143300147Y-72180146D01*
X143425646Y-72054647D01*
X143573216Y-71956044D01*
X143737188Y-71888124D01*
X143886488Y-71858427D01*
X143911258Y-71853500D01*
X144088742Y-71853500D01*
X144113512Y-71858427D01*
G37*
G36*
X149113512Y-71858427D02*
G01*
X149262812Y-71888124D01*
X149426784Y-71956044D01*
X149574354Y-72054647D01*
X149699853Y-72180146D01*
X149798456Y-72327716D01*
X149866376Y-72491688D01*
X149901000Y-72665759D01*
X149901000Y-72843241D01*
X149866376Y-73017312D01*
X149798456Y-73181284D01*
X149699853Y-73328854D01*
X149574354Y-73454353D01*
X149426784Y-73552956D01*
X149262812Y-73620876D01*
X149113512Y-73650573D01*
X149088742Y-73655500D01*
X148911258Y-73655500D01*
X148886488Y-73650573D01*
X148737188Y-73620876D01*
X148573216Y-73552956D01*
X148425646Y-73454353D01*
X148300147Y-73328854D01*
X148201544Y-73181284D01*
X148133624Y-73017312D01*
X148099000Y-72843241D01*
X148099000Y-72665759D01*
X148133624Y-72491688D01*
X148201544Y-72327716D01*
X148300147Y-72180146D01*
X148425646Y-72054647D01*
X148573216Y-71956044D01*
X148737188Y-71888124D01*
X148886488Y-71858427D01*
X148911258Y-71853500D01*
X149088742Y-71853500D01*
X149113512Y-71858427D01*
G37*
G36*
X144113512Y-69318427D02*
G01*
X144262812Y-69348124D01*
X144426784Y-69416044D01*
X144574354Y-69514647D01*
X144699853Y-69640146D01*
X144798456Y-69787716D01*
X144866376Y-69951688D01*
X144901000Y-70125759D01*
X144901000Y-70303241D01*
X144866376Y-70477312D01*
X144798456Y-70641284D01*
X144699853Y-70788854D01*
X144574354Y-70914353D01*
X144426784Y-71012956D01*
X144262812Y-71080876D01*
X144113512Y-71110573D01*
X144088742Y-71115500D01*
X143911258Y-71115500D01*
X143886488Y-71110573D01*
X143737188Y-71080876D01*
X143573216Y-71012956D01*
X143425646Y-70914353D01*
X143300147Y-70788854D01*
X143201544Y-70641284D01*
X143133624Y-70477312D01*
X143099000Y-70303241D01*
X143099000Y-70125759D01*
X143133624Y-69951688D01*
X143201544Y-69787716D01*
X143300147Y-69640146D01*
X143425646Y-69514647D01*
X143573216Y-69416044D01*
X143737188Y-69348124D01*
X143886488Y-69318427D01*
X143911258Y-69313500D01*
X144088742Y-69313500D01*
X144113512Y-69318427D01*
G37*
G36*
X149113512Y-69318427D02*
G01*
X149262812Y-69348124D01*
X149426784Y-69416044D01*
X149574354Y-69514647D01*
X149699853Y-69640146D01*
X149798456Y-69787716D01*
X149866376Y-69951688D01*
X149901000Y-70125759D01*
X149901000Y-70303241D01*
X149866376Y-70477312D01*
X149798456Y-70641284D01*
X149699853Y-70788854D01*
X149574354Y-70914353D01*
X149426784Y-71012956D01*
X149262812Y-71080876D01*
X149113512Y-71110573D01*
X149088742Y-71115500D01*
X148911258Y-71115500D01*
X148886488Y-71110573D01*
X148737188Y-71080876D01*
X148573216Y-71012956D01*
X148425646Y-70914353D01*
X148300147Y-70788854D01*
X148201544Y-70641284D01*
X148133624Y-70477312D01*
X148099000Y-70303241D01*
X148099000Y-70125759D01*
X148133624Y-69951688D01*
X148201544Y-69787716D01*
X148300147Y-69640146D01*
X148425646Y-69514647D01*
X148573216Y-69416044D01*
X148737188Y-69348124D01*
X148886488Y-69318427D01*
X148911258Y-69313500D01*
X149088742Y-69313500D01*
X149113512Y-69318427D01*
G37*
G36*
X144901000Y-68575500D02*
G01*
X143099000Y-68575500D01*
X143099000Y-66773500D01*
X144901000Y-66773500D01*
X144901000Y-68575500D01*
G37*
G36*
X149901000Y-68575500D02*
G01*
X148099000Y-68575500D01*
X148099000Y-66773500D01*
X149901000Y-66773500D01*
X149901000Y-68575500D01*
G37*
M02*
