%FSLAX45Y45*%
G04 Gerber Fmt 4.5, Leading zero omitted, Abs format (unit mm)*
G04 Created by KiCad (PCBNEW (5.1.5)-3) date 2022-06-14 21:30:14*
%MOMM*%
%LPD*%
G04 APERTURE LIST*
%TA.AperFunction,Profile*%
%ADD10C,0.050000*%
%TD*%
%ADD11C,0.200000*%
%ADD12C,0.300000*%
G04 APERTURE END LIST*
D10*
X19723100Y-13426200D02*
X19050000Y-6432550D01*
X14058900Y-13426200D02*
X14058900Y-6426200D01*
X19723100Y-13426200D02*
X14058900Y-13426200D01*
X14058900Y-6426200D02*
X19050000Y-6432550D01*
D11*
X15644500Y-7262500D02*
X15724500Y-7342500D01*
X15724500Y-7262500D02*
X15644500Y-7342500D01*
X15644500Y-8024500D02*
X15724500Y-8104500D01*
X15724500Y-8024500D02*
X15644500Y-8104500D01*
X15898500Y-7262500D02*
X15978500Y-7342500D01*
X15978500Y-7262500D02*
X15898500Y-7342500D01*
X15898500Y-8024500D02*
X15978500Y-8104500D01*
X15978500Y-8024500D02*
X15898500Y-8104500D01*
X16152500Y-7262500D02*
X16232500Y-7342500D01*
X16232500Y-7262500D02*
X16152500Y-7342500D01*
X16152500Y-8024500D02*
X16232500Y-8104500D01*
X16232500Y-8024500D02*
X16152500Y-8104500D01*
X16406500Y-7262500D02*
X16486500Y-7342500D01*
X16486500Y-7262500D02*
X16406500Y-7342500D01*
X16406500Y-8024500D02*
X16486500Y-8104500D01*
X16486500Y-8024500D02*
X16406500Y-8104500D01*
X16660500Y-7262500D02*
X16740500Y-7342500D01*
X16740500Y-7262500D02*
X16660500Y-7342500D01*
X16660500Y-8024500D02*
X16740500Y-8104500D01*
X16740500Y-8024500D02*
X16660500Y-8104500D01*
X16914500Y-7262500D02*
X16994500Y-7342500D01*
X16994500Y-7262500D02*
X16914500Y-7342500D01*
X16914500Y-8024500D02*
X16994500Y-8104500D01*
X16994500Y-8024500D02*
X16914500Y-8104500D01*
X17168500Y-7262500D02*
X17248500Y-7342500D01*
X17248500Y-7262500D02*
X17168500Y-7342500D01*
X17168500Y-8024500D02*
X17248500Y-8104500D01*
X17248500Y-8024500D02*
X17168500Y-8104500D01*
X17422500Y-7262500D02*
X17502500Y-7342500D01*
X17502500Y-7262500D02*
X17422500Y-7342500D01*
X17422500Y-8024500D02*
X17502500Y-8104500D01*
X17502500Y-8024500D02*
X17422500Y-8104500D01*
X15517500Y-9599300D02*
X15597500Y-9679300D01*
X15597500Y-9599300D02*
X15517500Y-9679300D01*
X15517500Y-9853300D02*
X15597500Y-9933300D01*
X15597500Y-9853300D02*
X15517500Y-9933300D01*
X15517500Y-10107300D02*
X15597500Y-10187300D01*
X15597500Y-10107300D02*
X15517500Y-10187300D01*
X15517500Y-10361300D02*
X15597500Y-10441300D01*
X15597500Y-10361300D02*
X15517500Y-10441300D01*
X15517500Y-10615300D02*
X15597500Y-10695300D01*
X15597500Y-10615300D02*
X15517500Y-10695300D01*
X15517500Y-10869300D02*
X15597500Y-10949300D01*
X15597500Y-10869300D02*
X15517500Y-10949300D01*
X15517500Y-11123300D02*
X15597500Y-11203300D01*
X15597500Y-11123300D02*
X15517500Y-11203300D01*
X15517500Y-11377300D02*
X15597500Y-11457300D01*
X15597500Y-11377300D02*
X15517500Y-11457300D01*
X15517500Y-11631300D02*
X15597500Y-11711300D01*
X15597500Y-11631300D02*
X15517500Y-11711300D01*
X15517500Y-11885300D02*
X15597500Y-11965300D01*
X15597500Y-11885300D02*
X15517500Y-11965300D01*
X15517500Y-12139300D02*
X15597500Y-12219300D01*
X15597500Y-12139300D02*
X15517500Y-12219300D01*
X15517500Y-12393300D02*
X15597500Y-12473300D01*
X15597500Y-12393300D02*
X15517500Y-12473300D01*
X15517500Y-12647300D02*
X15597500Y-12727300D01*
X15597500Y-12647300D02*
X15517500Y-12727300D01*
X15517500Y-12901300D02*
X15597500Y-12981300D01*
X15597500Y-12901300D02*
X15517500Y-12981300D01*
X17041500Y-9599300D02*
X17121500Y-9679300D01*
X17121500Y-9599300D02*
X17041500Y-9679300D01*
X17041500Y-9853300D02*
X17121500Y-9933300D01*
X17121500Y-9853300D02*
X17041500Y-9933300D01*
X17041500Y-10107300D02*
X17121500Y-10187300D01*
X17121500Y-10107300D02*
X17041500Y-10187300D01*
X17041500Y-10361300D02*
X17121500Y-10441300D01*
X17121500Y-10361300D02*
X17041500Y-10441300D01*
X17041500Y-10615300D02*
X17121500Y-10695300D01*
X17121500Y-10615300D02*
X17041500Y-10695300D01*
X17041500Y-10869300D02*
X17121500Y-10949300D01*
X17121500Y-10869300D02*
X17041500Y-10949300D01*
X17041500Y-11123300D02*
X17121500Y-11203300D01*
X17121500Y-11123300D02*
X17041500Y-11203300D01*
X17041500Y-11377300D02*
X17121500Y-11457300D01*
X17121500Y-11377300D02*
X17041500Y-11457300D01*
X17041500Y-11631300D02*
X17121500Y-11711300D01*
X17121500Y-11631300D02*
X17041500Y-11711300D01*
X17041500Y-11885300D02*
X17121500Y-11965300D01*
X17121500Y-11885300D02*
X17041500Y-11965300D01*
X17041500Y-12139300D02*
X17121500Y-12219300D01*
X17121500Y-12139300D02*
X17041500Y-12219300D01*
X17041500Y-12393300D02*
X17121500Y-12473300D01*
X17121500Y-12393300D02*
X17041500Y-12473300D01*
X17041500Y-12647300D02*
X17121500Y-12727300D01*
X17121500Y-12647300D02*
X17041500Y-12727300D01*
X17041500Y-12901300D02*
X17121500Y-12981300D01*
X17121500Y-12901300D02*
X17041500Y-12981300D01*
X17867000Y-7414900D02*
X17947000Y-7494900D01*
X17947000Y-7414900D02*
X17867000Y-7494900D01*
X17867000Y-7914900D02*
X17947000Y-7994900D01*
X17947000Y-7914900D02*
X17867000Y-7994900D01*
X17144800Y-8634100D02*
X17224800Y-8714100D01*
X17224800Y-8634100D02*
X17144800Y-8714100D01*
X17644800Y-8634100D02*
X17724800Y-8714100D01*
X17724800Y-8634100D02*
X17644800Y-8714100D01*
X18115800Y-9607550D02*
G75*
G03X18115800Y-9607550I-50000J0D01*
G01*
X18369800Y-9607550D02*
G75*
G03X18369800Y-9607550I-50000J0D01*
G01*
X18623800Y-9607550D02*
G75*
G03X18623800Y-9607550I-50000J0D01*
G01*
X14450000Y-6767450D02*
G75*
G03X14450000Y-6767450I-50000J0D01*
G01*
X14450000Y-7021450D02*
G75*
G03X14450000Y-7021450I-50000J0D01*
G01*
X14450000Y-7275450D02*
G75*
G03X14450000Y-7275450I-50000J0D01*
G01*
X14450000Y-7529450D02*
G75*
G03X14450000Y-7529450I-50000J0D01*
G01*
X14450000Y-7783450D02*
G75*
G03X14450000Y-7783450I-50000J0D01*
G01*
X14450000Y-8037450D02*
G75*
G03X14450000Y-8037450I-50000J0D01*
G01*
X14450000Y-8291450D02*
G75*
G03X14450000Y-8291450I-50000J0D01*
G01*
X14450000Y-8545450D02*
G75*
G03X14450000Y-8545450I-50000J0D01*
G01*
X14450000Y-8799450D02*
G75*
G03X14450000Y-8799450I-50000J0D01*
G01*
X14450000Y-9053450D02*
G75*
G03X14450000Y-9053450I-50000J0D01*
G01*
X14450000Y-9307450D02*
G75*
G03X14450000Y-9307450I-50000J0D01*
G01*
X14450000Y-9561450D02*
G75*
G03X14450000Y-9561450I-50000J0D01*
G01*
X14450000Y-9815450D02*
G75*
G03X14450000Y-9815450I-50000J0D01*
G01*
X14450000Y-10069450D02*
G75*
G03X14450000Y-10069450I-50000J0D01*
G01*
X14450000Y-10323450D02*
G75*
G03X14450000Y-10323450I-50000J0D01*
G01*
X14450000Y-10577450D02*
G75*
G03X14450000Y-10577450I-50000J0D01*
G01*
X14450000Y-10831450D02*
G75*
G03X14450000Y-10831450I-50000J0D01*
G01*
X14450000Y-11085450D02*
G75*
G03X14450000Y-11085450I-50000J0D01*
G01*
X14450000Y-11339450D02*
G75*
G03X14450000Y-11339450I-50000J0D01*
G01*
X14450000Y-11593450D02*
G75*
G03X14450000Y-11593450I-50000J0D01*
G01*
X14450000Y-11847450D02*
G75*
G03X14450000Y-11847450I-50000J0D01*
G01*
X14450000Y-12101450D02*
G75*
G03X14450000Y-12101450I-50000J0D01*
G01*
X14450000Y-12355450D02*
G75*
G03X14450000Y-12355450I-50000J0D01*
G01*
X14450000Y-12609450D02*
G75*
G03X14450000Y-12609450I-50000J0D01*
G01*
X14450000Y-12863450D02*
G75*
G03X14450000Y-12863450I-50000J0D01*
G01*
X18115800Y-10210800D02*
G75*
G03X18115800Y-10210800I-50000J0D01*
G01*
X18369800Y-10210800D02*
G75*
G03X18369800Y-10210800I-50000J0D01*
G01*
X18623800Y-10210800D02*
G75*
G03X18623800Y-10210800I-50000J0D01*
G01*
X14950000Y-6767450D02*
G75*
G03X14950000Y-6767450I-50000J0D01*
G01*
X14950000Y-7021450D02*
G75*
G03X14950000Y-7021450I-50000J0D01*
G01*
X14950000Y-7275450D02*
G75*
G03X14950000Y-7275450I-50000J0D01*
G01*
X14950000Y-7529450D02*
G75*
G03X14950000Y-7529450I-50000J0D01*
G01*
X14950000Y-7783450D02*
G75*
G03X14950000Y-7783450I-50000J0D01*
G01*
X14950000Y-8037450D02*
G75*
G03X14950000Y-8037450I-50000J0D01*
G01*
X14950000Y-8291450D02*
G75*
G03X14950000Y-8291450I-50000J0D01*
G01*
X14950000Y-8545450D02*
G75*
G03X14950000Y-8545450I-50000J0D01*
G01*
X14950000Y-8799450D02*
G75*
G03X14950000Y-8799450I-50000J0D01*
G01*
X14950000Y-9053450D02*
G75*
G03X14950000Y-9053450I-50000J0D01*
G01*
X14950000Y-9307450D02*
G75*
G03X14950000Y-9307450I-50000J0D01*
G01*
X14950000Y-9561450D02*
G75*
G03X14950000Y-9561450I-50000J0D01*
G01*
X14950000Y-9815450D02*
G75*
G03X14950000Y-9815450I-50000J0D01*
G01*
X14950000Y-10069450D02*
G75*
G03X14950000Y-10069450I-50000J0D01*
G01*
X14950000Y-10323450D02*
G75*
G03X14950000Y-10323450I-50000J0D01*
G01*
X14950000Y-10577450D02*
G75*
G03X14950000Y-10577450I-50000J0D01*
G01*
X14950000Y-10831450D02*
G75*
G03X14950000Y-10831450I-50000J0D01*
G01*
X14950000Y-11085450D02*
G75*
G03X14950000Y-11085450I-50000J0D01*
G01*
X14950000Y-11339450D02*
G75*
G03X14950000Y-11339450I-50000J0D01*
G01*
X14950000Y-11593450D02*
G75*
G03X14950000Y-11593450I-50000J0D01*
G01*
X14950000Y-11847450D02*
G75*
G03X14950000Y-11847450I-50000J0D01*
G01*
X14950000Y-12101450D02*
G75*
G03X14950000Y-12101450I-50000J0D01*
G01*
X14950000Y-12355450D02*
G75*
G03X14950000Y-12355450I-50000J0D01*
G01*
X14950000Y-12609450D02*
G75*
G03X14950000Y-12609450I-50000J0D01*
G01*
X14950000Y-12863450D02*
G75*
G03X14950000Y-12863450I-50000J0D01*
G01*
X18642800Y-11480800D02*
G75*
G03X18642800Y-11480800I-50000J0D01*
G01*
X18642800Y-11734800D02*
G75*
G03X18642800Y-11734800I-50000J0D01*
G01*
X18642800Y-11988800D02*
G75*
G03X18642800Y-11988800I-50000J0D01*
G01*
X18642800Y-12242800D02*
G75*
G03X18642800Y-12242800I-50000J0D01*
G01*
X18642800Y-12496800D02*
G75*
G03X18642800Y-12496800I-50000J0D01*
G01*
X18642800Y-12750800D02*
G75*
G03X18642800Y-12750800I-50000J0D01*
G01*
X18896800Y-11480800D02*
G75*
G03X18896800Y-11480800I-50000J0D01*
G01*
X18896800Y-11734800D02*
G75*
G03X18896800Y-11734800I-50000J0D01*
G01*
X18896800Y-11988800D02*
G75*
G03X18896800Y-11988800I-50000J0D01*
G01*
X18896800Y-12242800D02*
G75*
G03X18896800Y-12242800I-50000J0D01*
G01*
X18896800Y-12496800D02*
G75*
G03X18896800Y-12496800I-50000J0D01*
G01*
X18896800Y-12750800D02*
G75*
G03X18896800Y-12750800I-50000J0D01*
G01*
D12*
X14342828Y-13894414D02*
X14342828Y-13594414D01*
X14414257Y-13594414D01*
X14457114Y-13608700D01*
X14485686Y-13637271D01*
X14499971Y-13665843D01*
X14514257Y-13722986D01*
X14514257Y-13765843D01*
X14499971Y-13822986D01*
X14485686Y-13851557D01*
X14457114Y-13880129D01*
X14414257Y-13894414D01*
X14342828Y-13894414D01*
X14642828Y-13894414D02*
X14642828Y-13694414D01*
X14642828Y-13751557D02*
X14657114Y-13722986D01*
X14671400Y-13708700D01*
X14699971Y-13694414D01*
X14728543Y-13694414D01*
X14828543Y-13894414D02*
X14828543Y-13694414D01*
X14828543Y-13594414D02*
X14814257Y-13608700D01*
X14828543Y-13622986D01*
X14842828Y-13608700D01*
X14828543Y-13594414D01*
X14828543Y-13622986D01*
X15014257Y-13894414D02*
X14985686Y-13880129D01*
X14971400Y-13851557D01*
X14971400Y-13594414D01*
X15171400Y-13894414D02*
X15142828Y-13880129D01*
X15128543Y-13851557D01*
X15128543Y-13594414D01*
X15514257Y-13894414D02*
X15514257Y-13594414D01*
X15614257Y-13808700D01*
X15714257Y-13594414D01*
X15714257Y-13894414D01*
X15985686Y-13894414D02*
X15985686Y-13737271D01*
X15971400Y-13708700D01*
X15942828Y-13694414D01*
X15885686Y-13694414D01*
X15857114Y-13708700D01*
X15985686Y-13880129D02*
X15957114Y-13894414D01*
X15885686Y-13894414D01*
X15857114Y-13880129D01*
X15842828Y-13851557D01*
X15842828Y-13822986D01*
X15857114Y-13794414D01*
X15885686Y-13780129D01*
X15957114Y-13780129D01*
X15985686Y-13765843D01*
X16128543Y-13694414D02*
X16128543Y-13994414D01*
X16128543Y-13708700D02*
X16157114Y-13694414D01*
X16214257Y-13694414D01*
X16242828Y-13708700D01*
X16257114Y-13722986D01*
X16271400Y-13751557D01*
X16271400Y-13837271D01*
X16257114Y-13865843D01*
X16242828Y-13880129D01*
X16214257Y-13894414D01*
X16157114Y-13894414D01*
X16128543Y-13880129D01*
X16399971Y-13865843D02*
X16414257Y-13880129D01*
X16399971Y-13894414D01*
X16385686Y-13880129D01*
X16399971Y-13865843D01*
X16399971Y-13894414D01*
X16399971Y-13708700D02*
X16414257Y-13722986D01*
X16399971Y-13737271D01*
X16385686Y-13722986D01*
X16399971Y-13708700D01*
X16399971Y-13737271D01*
X13976400Y-14348700D02*
X14056400Y-14428700D01*
X14056400Y-14348700D02*
X13976400Y-14428700D01*
X14399971Y-14224414D02*
X14428543Y-14224414D01*
X14457114Y-14238700D01*
X14471400Y-14252986D01*
X14485686Y-14281557D01*
X14499971Y-14338700D01*
X14499971Y-14410129D01*
X14485686Y-14467271D01*
X14471400Y-14495843D01*
X14457114Y-14510129D01*
X14428543Y-14524414D01*
X14399971Y-14524414D01*
X14371400Y-14510129D01*
X14357114Y-14495843D01*
X14342828Y-14467271D01*
X14328543Y-14410129D01*
X14328543Y-14338700D01*
X14342828Y-14281557D01*
X14357114Y-14252986D01*
X14371400Y-14238700D01*
X14399971Y-14224414D01*
X14628543Y-14495843D02*
X14642828Y-14510129D01*
X14628543Y-14524414D01*
X14614257Y-14510129D01*
X14628543Y-14495843D01*
X14628543Y-14524414D01*
X14814257Y-14352986D02*
X14785686Y-14338700D01*
X14771400Y-14324414D01*
X14757114Y-14295843D01*
X14757114Y-14281557D01*
X14771400Y-14252986D01*
X14785686Y-14238700D01*
X14814257Y-14224414D01*
X14871400Y-14224414D01*
X14899971Y-14238700D01*
X14914257Y-14252986D01*
X14928543Y-14281557D01*
X14928543Y-14295843D01*
X14914257Y-14324414D01*
X14899971Y-14338700D01*
X14871400Y-14352986D01*
X14814257Y-14352986D01*
X14785686Y-14367271D01*
X14771400Y-14381557D01*
X14757114Y-14410129D01*
X14757114Y-14467271D01*
X14771400Y-14495843D01*
X14785686Y-14510129D01*
X14814257Y-14524414D01*
X14871400Y-14524414D01*
X14899971Y-14510129D01*
X14914257Y-14495843D01*
X14928543Y-14467271D01*
X14928543Y-14410129D01*
X14914257Y-14381557D01*
X14899971Y-14367271D01*
X14871400Y-14352986D01*
X15114257Y-14224414D02*
X15142828Y-14224414D01*
X15171400Y-14238700D01*
X15185686Y-14252986D01*
X15199971Y-14281557D01*
X15214257Y-14338700D01*
X15214257Y-14410129D01*
X15199971Y-14467271D01*
X15185686Y-14495843D01*
X15171400Y-14510129D01*
X15142828Y-14524414D01*
X15114257Y-14524414D01*
X15085686Y-14510129D01*
X15071400Y-14495843D01*
X15057114Y-14467271D01*
X15042828Y-14410129D01*
X15042828Y-14338700D01*
X15057114Y-14281557D01*
X15071400Y-14252986D01*
X15085686Y-14238700D01*
X15114257Y-14224414D01*
X15342828Y-14524414D02*
X15342828Y-14324414D01*
X15342828Y-14352986D02*
X15357114Y-14338700D01*
X15385686Y-14324414D01*
X15428543Y-14324414D01*
X15457114Y-14338700D01*
X15471400Y-14367271D01*
X15471400Y-14524414D01*
X15471400Y-14367271D02*
X15485686Y-14338700D01*
X15514257Y-14324414D01*
X15557114Y-14324414D01*
X15585686Y-14338700D01*
X15599971Y-14367271D01*
X15599971Y-14524414D01*
X15742828Y-14524414D02*
X15742828Y-14324414D01*
X15742828Y-14352986D02*
X15757114Y-14338700D01*
X15785686Y-14324414D01*
X15828543Y-14324414D01*
X15857114Y-14338700D01*
X15871400Y-14367271D01*
X15871400Y-14524414D01*
X15871400Y-14367271D02*
X15885686Y-14338700D01*
X15914257Y-14324414D01*
X15957114Y-14324414D01*
X15985686Y-14338700D01*
X15999971Y-14367271D01*
X15999971Y-14524414D01*
X16585686Y-14210129D02*
X16328543Y-14595843D01*
X16971400Y-14224414D02*
X16999971Y-14224414D01*
X17028543Y-14238700D01*
X17042828Y-14252986D01*
X17057114Y-14281557D01*
X17071400Y-14338700D01*
X17071400Y-14410129D01*
X17057114Y-14467271D01*
X17042828Y-14495843D01*
X17028543Y-14510129D01*
X16999971Y-14524414D01*
X16971400Y-14524414D01*
X16942828Y-14510129D01*
X16928543Y-14495843D01*
X16914257Y-14467271D01*
X16899971Y-14410129D01*
X16899971Y-14338700D01*
X16914257Y-14281557D01*
X16928543Y-14252986D01*
X16942828Y-14238700D01*
X16971400Y-14224414D01*
X17199971Y-14495843D02*
X17214257Y-14510129D01*
X17199971Y-14524414D01*
X17185686Y-14510129D01*
X17199971Y-14495843D01*
X17199971Y-14524414D01*
X17399971Y-14224414D02*
X17428543Y-14224414D01*
X17457114Y-14238700D01*
X17471400Y-14252986D01*
X17485686Y-14281557D01*
X17499971Y-14338700D01*
X17499971Y-14410129D01*
X17485686Y-14467271D01*
X17471400Y-14495843D01*
X17457114Y-14510129D01*
X17428543Y-14524414D01*
X17399971Y-14524414D01*
X17371400Y-14510129D01*
X17357114Y-14495843D01*
X17342828Y-14467271D01*
X17328543Y-14410129D01*
X17328543Y-14338700D01*
X17342828Y-14281557D01*
X17357114Y-14252986D01*
X17371400Y-14238700D01*
X17399971Y-14224414D01*
X17599971Y-14224414D02*
X17785686Y-14224414D01*
X17685686Y-14338700D01*
X17728543Y-14338700D01*
X17757114Y-14352986D01*
X17771400Y-14367271D01*
X17785686Y-14395843D01*
X17785686Y-14467271D01*
X17771400Y-14495843D01*
X17757114Y-14510129D01*
X17728543Y-14524414D01*
X17642828Y-14524414D01*
X17614257Y-14510129D01*
X17599971Y-14495843D01*
X18071400Y-14524414D02*
X17899971Y-14524414D01*
X17985686Y-14524414D02*
X17985686Y-14224414D01*
X17957114Y-14267271D01*
X17928543Y-14295843D01*
X17899971Y-14310129D01*
X18185686Y-14224414D02*
X18185686Y-14281557D01*
X18299971Y-14224414D02*
X18299971Y-14281557D01*
X18742828Y-14638700D02*
X18728543Y-14624414D01*
X18699971Y-14581557D01*
X18685686Y-14552986D01*
X18671400Y-14510129D01*
X18657114Y-14438700D01*
X18657114Y-14381557D01*
X18671400Y-14310129D01*
X18685686Y-14267271D01*
X18699971Y-14238700D01*
X18728543Y-14195843D01*
X18742828Y-14181557D01*
X18985686Y-14324414D02*
X18985686Y-14524414D01*
X18914257Y-14210129D02*
X18842828Y-14424414D01*
X19028543Y-14424414D01*
X19185686Y-14352986D02*
X19157114Y-14338700D01*
X19142828Y-14324414D01*
X19128543Y-14295843D01*
X19128543Y-14281557D01*
X19142828Y-14252986D01*
X19157114Y-14238700D01*
X19185686Y-14224414D01*
X19242828Y-14224414D01*
X19271400Y-14238700D01*
X19285686Y-14252986D01*
X19299971Y-14281557D01*
X19299971Y-14295843D01*
X19285686Y-14324414D01*
X19271400Y-14338700D01*
X19242828Y-14352986D01*
X19185686Y-14352986D01*
X19157114Y-14367271D01*
X19142828Y-14381557D01*
X19128543Y-14410129D01*
X19128543Y-14467271D01*
X19142828Y-14495843D01*
X19157114Y-14510129D01*
X19185686Y-14524414D01*
X19242828Y-14524414D01*
X19271400Y-14510129D01*
X19285686Y-14495843D01*
X19299971Y-14467271D01*
X19299971Y-14410129D01*
X19285686Y-14381557D01*
X19271400Y-14367271D01*
X19242828Y-14352986D01*
X19657114Y-14524414D02*
X19657114Y-14224414D01*
X19785686Y-14524414D02*
X19785686Y-14367271D01*
X19771400Y-14338700D01*
X19742828Y-14324414D01*
X19699971Y-14324414D01*
X19671400Y-14338700D01*
X19657114Y-14352986D01*
X19971400Y-14524414D02*
X19942828Y-14510129D01*
X19928543Y-14495843D01*
X19914257Y-14467271D01*
X19914257Y-14381557D01*
X19928543Y-14352986D01*
X19942828Y-14338700D01*
X19971400Y-14324414D01*
X20014257Y-14324414D01*
X20042828Y-14338700D01*
X20057114Y-14352986D01*
X20071400Y-14381557D01*
X20071400Y-14467271D01*
X20057114Y-14495843D01*
X20042828Y-14510129D01*
X20014257Y-14524414D01*
X19971400Y-14524414D01*
X20242828Y-14524414D02*
X20214257Y-14510129D01*
X20199971Y-14481557D01*
X20199971Y-14224414D01*
X20471400Y-14510129D02*
X20442828Y-14524414D01*
X20385686Y-14524414D01*
X20357114Y-14510129D01*
X20342828Y-14481557D01*
X20342828Y-14367271D01*
X20357114Y-14338700D01*
X20385686Y-14324414D01*
X20442828Y-14324414D01*
X20471400Y-14338700D01*
X20485686Y-14367271D01*
X20485686Y-14395843D01*
X20342828Y-14424414D01*
X20599971Y-14510129D02*
X20628543Y-14524414D01*
X20685686Y-14524414D01*
X20714257Y-14510129D01*
X20728543Y-14481557D01*
X20728543Y-14467271D01*
X20714257Y-14438700D01*
X20685686Y-14424414D01*
X20642828Y-14424414D01*
X20614257Y-14410129D01*
X20599971Y-14381557D01*
X20599971Y-14367271D01*
X20614257Y-14338700D01*
X20642828Y-14324414D01*
X20685686Y-14324414D01*
X20714257Y-14338700D01*
X20828543Y-14638700D02*
X20842828Y-14624414D01*
X20871400Y-14581557D01*
X20885686Y-14552986D01*
X20899971Y-14510129D01*
X20914257Y-14438700D01*
X20914257Y-14381557D01*
X20899971Y-14310129D01*
X20885686Y-14267271D01*
X20871400Y-14238700D01*
X20842828Y-14195843D01*
X20828543Y-14181557D01*
X14056400Y-14784700D02*
G75*
G03X14056400Y-14784700I-50000J0D01*
G01*
X14499971Y-14920414D02*
X14328543Y-14920414D01*
X14414257Y-14920414D02*
X14414257Y-14620414D01*
X14385686Y-14663271D01*
X14357114Y-14691843D01*
X14328543Y-14706129D01*
X14628543Y-14891843D02*
X14642828Y-14906129D01*
X14628543Y-14920414D01*
X14614257Y-14906129D01*
X14628543Y-14891843D01*
X14628543Y-14920414D01*
X14828543Y-14620414D02*
X14857114Y-14620414D01*
X14885686Y-14634700D01*
X14899971Y-14648986D01*
X14914257Y-14677557D01*
X14928543Y-14734700D01*
X14928543Y-14806129D01*
X14914257Y-14863271D01*
X14899971Y-14891843D01*
X14885686Y-14906129D01*
X14857114Y-14920414D01*
X14828543Y-14920414D01*
X14799971Y-14906129D01*
X14785686Y-14891843D01*
X14771400Y-14863271D01*
X14757114Y-14806129D01*
X14757114Y-14734700D01*
X14771400Y-14677557D01*
X14785686Y-14648986D01*
X14799971Y-14634700D01*
X14828543Y-14620414D01*
X15114257Y-14620414D02*
X15142828Y-14620414D01*
X15171400Y-14634700D01*
X15185686Y-14648986D01*
X15199971Y-14677557D01*
X15214257Y-14734700D01*
X15214257Y-14806129D01*
X15199971Y-14863271D01*
X15185686Y-14891843D01*
X15171400Y-14906129D01*
X15142828Y-14920414D01*
X15114257Y-14920414D01*
X15085686Y-14906129D01*
X15071400Y-14891843D01*
X15057114Y-14863271D01*
X15042828Y-14806129D01*
X15042828Y-14734700D01*
X15057114Y-14677557D01*
X15071400Y-14648986D01*
X15085686Y-14634700D01*
X15114257Y-14620414D01*
X15342828Y-14920414D02*
X15342828Y-14720414D01*
X15342828Y-14748986D02*
X15357114Y-14734700D01*
X15385686Y-14720414D01*
X15428543Y-14720414D01*
X15457114Y-14734700D01*
X15471400Y-14763271D01*
X15471400Y-14920414D01*
X15471400Y-14763271D02*
X15485686Y-14734700D01*
X15514257Y-14720414D01*
X15557114Y-14720414D01*
X15585686Y-14734700D01*
X15599971Y-14763271D01*
X15599971Y-14920414D01*
X15742828Y-14920414D02*
X15742828Y-14720414D01*
X15742828Y-14748986D02*
X15757114Y-14734700D01*
X15785686Y-14720414D01*
X15828543Y-14720414D01*
X15857114Y-14734700D01*
X15871400Y-14763271D01*
X15871400Y-14920414D01*
X15871400Y-14763271D02*
X15885686Y-14734700D01*
X15914257Y-14720414D01*
X15957114Y-14720414D01*
X15985686Y-14734700D01*
X15999971Y-14763271D01*
X15999971Y-14920414D01*
X16585686Y-14606129D02*
X16328543Y-14991843D01*
X16971400Y-14620414D02*
X16999971Y-14620414D01*
X17028543Y-14634700D01*
X17042828Y-14648986D01*
X17057114Y-14677557D01*
X17071400Y-14734700D01*
X17071400Y-14806129D01*
X17057114Y-14863271D01*
X17042828Y-14891843D01*
X17028543Y-14906129D01*
X16999971Y-14920414D01*
X16971400Y-14920414D01*
X16942828Y-14906129D01*
X16928543Y-14891843D01*
X16914257Y-14863271D01*
X16899971Y-14806129D01*
X16899971Y-14734700D01*
X16914257Y-14677557D01*
X16928543Y-14648986D01*
X16942828Y-14634700D01*
X16971400Y-14620414D01*
X17199971Y-14891843D02*
X17214257Y-14906129D01*
X17199971Y-14920414D01*
X17185686Y-14906129D01*
X17199971Y-14891843D01*
X17199971Y-14920414D01*
X17399971Y-14620414D02*
X17428543Y-14620414D01*
X17457114Y-14634700D01*
X17471400Y-14648986D01*
X17485686Y-14677557D01*
X17499971Y-14734700D01*
X17499971Y-14806129D01*
X17485686Y-14863271D01*
X17471400Y-14891843D01*
X17457114Y-14906129D01*
X17428543Y-14920414D01*
X17399971Y-14920414D01*
X17371400Y-14906129D01*
X17357114Y-14891843D01*
X17342828Y-14863271D01*
X17328543Y-14806129D01*
X17328543Y-14734700D01*
X17342828Y-14677557D01*
X17357114Y-14648986D01*
X17371400Y-14634700D01*
X17399971Y-14620414D01*
X17599971Y-14620414D02*
X17785686Y-14620414D01*
X17685686Y-14734700D01*
X17728543Y-14734700D01*
X17757114Y-14748986D01*
X17771400Y-14763271D01*
X17785686Y-14791843D01*
X17785686Y-14863271D01*
X17771400Y-14891843D01*
X17757114Y-14906129D01*
X17728543Y-14920414D01*
X17642828Y-14920414D01*
X17614257Y-14906129D01*
X17599971Y-14891843D01*
X17928543Y-14920414D02*
X17985686Y-14920414D01*
X18014257Y-14906129D01*
X18028543Y-14891843D01*
X18057114Y-14848986D01*
X18071400Y-14791843D01*
X18071400Y-14677557D01*
X18057114Y-14648986D01*
X18042828Y-14634700D01*
X18014257Y-14620414D01*
X17957114Y-14620414D01*
X17928543Y-14634700D01*
X17914257Y-14648986D01*
X17899971Y-14677557D01*
X17899971Y-14748986D01*
X17914257Y-14777557D01*
X17928543Y-14791843D01*
X17957114Y-14806129D01*
X18014257Y-14806129D01*
X18042828Y-14791843D01*
X18057114Y-14777557D01*
X18071400Y-14748986D01*
X18185686Y-14620414D02*
X18185686Y-14677557D01*
X18299971Y-14620414D02*
X18299971Y-14677557D01*
X18742828Y-15034700D02*
X18728543Y-15020414D01*
X18699971Y-14977557D01*
X18685686Y-14948986D01*
X18671400Y-14906129D01*
X18657114Y-14834700D01*
X18657114Y-14777557D01*
X18671400Y-14706129D01*
X18685686Y-14663271D01*
X18699971Y-14634700D01*
X18728543Y-14591843D01*
X18742828Y-14577557D01*
X18985686Y-14620414D02*
X18928543Y-14620414D01*
X18899971Y-14634700D01*
X18885686Y-14648986D01*
X18857114Y-14691843D01*
X18842828Y-14748986D01*
X18842828Y-14863271D01*
X18857114Y-14891843D01*
X18871400Y-14906129D01*
X18899971Y-14920414D01*
X18957114Y-14920414D01*
X18985686Y-14906129D01*
X18999971Y-14891843D01*
X19014257Y-14863271D01*
X19014257Y-14791843D01*
X18999971Y-14763271D01*
X18985686Y-14748986D01*
X18957114Y-14734700D01*
X18899971Y-14734700D01*
X18871400Y-14748986D01*
X18857114Y-14763271D01*
X18842828Y-14791843D01*
X19185686Y-14748986D02*
X19157114Y-14734700D01*
X19142828Y-14720414D01*
X19128543Y-14691843D01*
X19128543Y-14677557D01*
X19142828Y-14648986D01*
X19157114Y-14634700D01*
X19185686Y-14620414D01*
X19242828Y-14620414D01*
X19271400Y-14634700D01*
X19285686Y-14648986D01*
X19299971Y-14677557D01*
X19299971Y-14691843D01*
X19285686Y-14720414D01*
X19271400Y-14734700D01*
X19242828Y-14748986D01*
X19185686Y-14748986D01*
X19157114Y-14763271D01*
X19142828Y-14777557D01*
X19128543Y-14806129D01*
X19128543Y-14863271D01*
X19142828Y-14891843D01*
X19157114Y-14906129D01*
X19185686Y-14920414D01*
X19242828Y-14920414D01*
X19271400Y-14906129D01*
X19285686Y-14891843D01*
X19299971Y-14863271D01*
X19299971Y-14806129D01*
X19285686Y-14777557D01*
X19271400Y-14763271D01*
X19242828Y-14748986D01*
X19657114Y-14920414D02*
X19657114Y-14620414D01*
X19785686Y-14920414D02*
X19785686Y-14763271D01*
X19771400Y-14734700D01*
X19742828Y-14720414D01*
X19699971Y-14720414D01*
X19671400Y-14734700D01*
X19657114Y-14748986D01*
X19971400Y-14920414D02*
X19942828Y-14906129D01*
X19928543Y-14891843D01*
X19914257Y-14863271D01*
X19914257Y-14777557D01*
X19928543Y-14748986D01*
X19942828Y-14734700D01*
X19971400Y-14720414D01*
X20014257Y-14720414D01*
X20042828Y-14734700D01*
X20057114Y-14748986D01*
X20071400Y-14777557D01*
X20071400Y-14863271D01*
X20057114Y-14891843D01*
X20042828Y-14906129D01*
X20014257Y-14920414D01*
X19971400Y-14920414D01*
X20242828Y-14920414D02*
X20214257Y-14906129D01*
X20199971Y-14877557D01*
X20199971Y-14620414D01*
X20471400Y-14906129D02*
X20442828Y-14920414D01*
X20385686Y-14920414D01*
X20357114Y-14906129D01*
X20342828Y-14877557D01*
X20342828Y-14763271D01*
X20357114Y-14734700D01*
X20385686Y-14720414D01*
X20442828Y-14720414D01*
X20471400Y-14734700D01*
X20485686Y-14763271D01*
X20485686Y-14791843D01*
X20342828Y-14820414D01*
X20599971Y-14906129D02*
X20628543Y-14920414D01*
X20685686Y-14920414D01*
X20714257Y-14906129D01*
X20728543Y-14877557D01*
X20728543Y-14863271D01*
X20714257Y-14834700D01*
X20685686Y-14820414D01*
X20642828Y-14820414D01*
X20614257Y-14806129D01*
X20599971Y-14777557D01*
X20599971Y-14763271D01*
X20614257Y-14734700D01*
X20642828Y-14720414D01*
X20685686Y-14720414D01*
X20714257Y-14734700D01*
X20828543Y-15034700D02*
X20842828Y-15020414D01*
X20871400Y-14977557D01*
X20885686Y-14948986D01*
X20899971Y-14906129D01*
X20914257Y-14834700D01*
X20914257Y-14777557D01*
X20899971Y-14706129D01*
X20885686Y-14663271D01*
X20871400Y-14634700D01*
X20842828Y-14591843D01*
X20828543Y-14577557D01*
M02*
